<?xml version="1.0" encoding="UTF-8"?>
<svg width="266px" height="60px" viewBox="0 0 266 60" version="1.1" xmlns="http://www.w3.org/2000/svg" xmlns:xlink="http://www.w3.org/1999/xlink">
    <title>Group 3</title>
    <g id="Page-1" stroke="none" stroke-width="1" fill="none" fill-rule="evenodd">
        <g id="Extra-Large" transform="translate(-1506.000000, -950.000000)" fill="#FFFFFF" fill-rule="nonzero">
            <g id="HEADER" transform="translate(0.000000, 7.000000)">
                <g id="Group-3" transform="translate(1506.000000, 943.000000)">
                    <g id="bold-arrow-right-icon-copy-2" transform="translate(220.000000, 0.000000)">
                        <path d="M29.2016985,1.46579805 L29.2016985,30.6351792 L29.2016985,34.2019544 L31.6921444,31.7100977 L44.4861996,18.9087948 L44.4861996,36.4983713 L22.9511677,58.0456026 L1.46496815,36.4006515 L1.46496815,18.8110749 L14.2590234,31.6123779 L16.7494692,34.1042345 L16.7494692,30.5863192 L16.7494692,1.46579805 L29.2016985,1.46579805 M30.6666667,0 L15.3333333,0 L15.3333333,30.6351792 L0,15.2931596 L0,36.9869707 L23,60 L46,36.9869707 L46,15.2931596 L30.6666667,30.6351792 L30.6666667,0 L30.6666667,0 Z" id="Shape"></path>
                    </g>
                    <g id="bold-arrow-right-icon-copy-3" transform="translate(110.000000, 0.000000)">
                        <path d="M29.2016985,1.46579805 L29.2016985,30.6351792 L29.2016985,34.2019544 L31.6921444,31.7100977 L44.4861996,18.9087948 L44.4861996,36.4983713 L22.9511677,58.0456026 L1.46496815,36.4006515 L1.46496815,18.8110749 L14.2590234,31.6123779 L16.7494692,34.1042345 L16.7494692,30.5863192 L16.7494692,1.46579805 L29.2016985,1.46579805 M30.6666667,0 L15.3333333,0 L15.3333333,30.6351792 L0,15.2931596 L0,36.9869707 L23,60 L46,36.9869707 L46,15.2931596 L30.6666667,30.6351792 L30.6666667,0 L30.6666667,0 Z" id="Shape"></path>
                    </g>
                    <g id="bold-arrow-right-icon-copy-4">
                        <path d="M29.2016985,1.46579805 L29.2016985,30.6351792 L29.2016985,34.2019544 L31.6921444,31.7100977 L44.4861996,18.9087948 L44.4861996,36.4983713 L22.9511677,58.0456026 L1.46496815,36.4006515 L1.46496815,18.8110749 L14.2590234,31.6123779 L16.7494692,34.1042345 L16.7494692,30.5863192 L16.7494692,1.46579805 L29.2016985,1.46579805 M30.6666667,0 L15.3333333,0 L15.3333333,30.6351792 L0,15.2931596 L0,36.9869707 L23,60 L46,36.9869707 L46,15.2931596 L30.6666667,30.6351792 L30.6666667,0 L30.6666667,0 Z" id="Shape"></path>
                    </g>
                </g>
            </g>
        </g>
    </g>
</svg>