<?xml version="1.0" encoding="UTF-8"?>
<svg width="266px" height="60px" viewBox="0 0 266 60" version="1.1" xmlns="http://www.w3.org/2000/svg" xmlns:xlink="http://www.w3.org/1999/xlink">
    <title>arrow-title</title>
    <g id="Page-1" stroke="none" stroke-width="1" fill="none" fill-rule="evenodd">
        <g id="arrow-title" fill="#FFFFFF" fill-rule="nonzero">
            <g id="bold-arrow-right-icon-copy-2" transform="translate(220.000000, 0.000000)">
                <path d="M29.2,1.5 L29.2,30.7 L29.2,34.3 L31.7,31.8 L44.5,19 L44.5,36.6 L23,58 L1.5,36.4 L1.5,18.8 L14.3,31.6 L16.8,34.1 L16.8,30.6 L16.8,1.5 L29.2,1.5 M30.7,0 L15.3,0 L15.3,30.6 L0,15.3 L0,37 L23,60 L46,37 L46,15.3 L30.7,30.6 L30.7,0 L30.7,0 Z" id="Shape"></path>
            </g>
            <g id="bold-arrow-right-icon-copy-3" transform="translate(110.000000, 0.000000)">
                <path d="M29.2,1.5 L29.2,30.7 L29.2,34.3 L31.7,31.8 L44.5,19 L44.5,36.6 L23,58 L1.5,36.4 L1.5,18.8 L14.3,31.6 L16.8,34.1 L16.8,30.6 L16.8,1.5 L29.2,1.5 M30.7,0 L15.3,0 L15.3,30.6 L0,15.3 L0,37 L23,60 L46,37 L46,15.3 L30.7,30.6 L30.7,0 L30.7,0 Z" id="Shape_00000097472056638537801430000003456540004037224119_"></path>
            </g>
            <g id="bold-arrow-right-icon-copy-4">
                <path d="M29.2,1.5 L29.2,30.7 L29.2,34.3 L31.7,31.8 L44.5,19 L44.5,36.6 L23,58 L1.5,36.4 L1.5,18.8 L14.3,31.6 L16.8,34.1 L16.8,30.6 L16.8,1.5 L29.2,1.5 M30.7,0 L15.3,0 L15.3,30.6 L0,15.3 L0,37 L23,60 L46,37 L46,15.3 L30.7,30.6 L30.7,0 L30.7,0 Z" id="Shape_00000003075966426592339710000011666768881465514663_"></path>
            </g>
        </g>
    </g>
</svg>