<?xml version="1.0" encoding="UTF-8"?>
<svg width="47px" height="36px" viewBox="0 0 47 36" version="1.1" xmlns="http://www.w3.org/2000/svg" xmlns:xlink="http://www.w3.org/1999/xlink">
    <title>bold-arrow-right-icon</title>
    <g id="Page-1" stroke="none" stroke-width="1" fill="none" fill-rule="evenodd">
        <g id="Extra-Large" transform="translate(-523.000000, -4733.000000)" fill="#FFFFFF" fill-rule="nonzero">
            <g id="bold-arrow-right-icon" transform="translate(546.500000, 4751.000000) rotate(-90.000000) translate(-546.500000, -4751.000000) translate(529.000000, 4728.000000)">
                <path d="M22.2186837,1.1237785 L22.2186837,23.4869707 L22.2186837,26.2214984 L24.1135881,24.3110749 L33.8481953,14.4967427 L33.8481953,27.9820847 L17.462845,44.5016287 L1.11464968,27.9071661 L1.11464968,14.4218241 L10.8492569,24.2361564 L12.7441614,26.1465798 L12.7441614,23.4495114 L12.7441614,1.1237785 L22.2186837,1.1237785 M23.3333333,2.93578454e-13 L11.6666667,2.93578454e-13 L11.6666667,23.4869707 L0,11.7247557 L0,28.3566775 L17.5,46 L35,28.3566775 L35,11.7247557 L23.3333333,23.4869707 L23.3333333,2.93578454e-13 L23.3333333,2.93578454e-13 Z" id="Shape"></path>
            </g>
        </g>
    </g>
</svg>