<?xml version="1.0" encoding="UTF-8"?>
<svg width="146px" height="12px" viewBox="0 0 146 12" version="1.1" xmlns="http://www.w3.org/2000/svg" xmlns:xlink="http://www.w3.org/1999/xlink">
    <title>dot-event</title>
    <g id="Page-1" stroke="none" stroke-width="1" fill="none" fill-rule="evenodd">
        <g id="dot-event" transform="translate(0.000000, 0.000000)" fill="#5E2BFF">
            <path d="M25,12 C21.6,12 19,9.5 19,6.1 C19,2.8 21.6,0 24.9,0 C28.1,0 31,2.8 31,6 C31,9.3 28.4,12 25,12" id="Fill-1"></path>
            <path d="M43.9,12 C40.5,12 38,9.4 38,6 C38,2.7 40.8,0 44.1,0 C47.4,0.1 50.1,2.9 50,6.1 C50,9.5 47.3,12 43.9,12" id="Fill-3"></path>
            <path d="M69,6 C69,9.4 66.5,12 63,12 C59.5,12 57,9.5 57,6.1 C57,2.7 59.6,0 62.9,0 C66.3,0 69,2.7 69,6" id="Fill-5"></path>
            <path d="M82,12 C78.5,12 76,9.5 76,6.1 C76,2.7 78.6,0 81.9,0 C85.2,0 87.9,2.7 88,6 C88,9.3 85.4,12 82,12" id="Fill-7"></path>
            <path d="M12,6.1 C12,9.6 9.4,12 6,12 C2.6,12 0,9.3 0,6 C0.1,2.7 2.8,0 6.1,0 C9.5,0.1 12,2.7 12,6.1" id="Fill-9"></path>
            <path d="M121,12 C117.6,12 115,9.5 115,6.1 C115,2.8 117.6,0 120.9,0 C124.1,0 127,2.8 127,6 C127,9.3 124.4,12 121,12" id="Fill-11"></path>
            <path d="M139.9,12 C136.5,12 134,9.4 134,6 C134,2.7 136.8,0 140.1,0 C143.4,0.1 146.1,2.9 146,6.1 C146,9.5 143.3,12 139.9,12" id="Fill-13"></path>
            <path d="M108,6.1 C108,9.5 105.4,12 102,12 C98.6,12 96,9.3 96,6 C96.1,2.7 98.8,0 102.1,0 C105.5,0.1 108,2.7 108,6.1" id="Fill-20"></path>
        </g>
    </g>
</svg>