<?xml version="1.0" encoding="utf-8"?>
<!-- Generator: Adobe Illustrator 27.1.1, SVG Export Plug-In . SVG Version: 6.00 Build 0)  -->
<svg version="1.1" id="Calque_1" xmlns="http://www.w3.org/2000/svg" xmlns:xlink="http://www.w3.org/1999/xlink" x="0px" y="0px"
	 viewBox="0 0 200.1 12" style="enable-background:new 0 0 200.1 12;" xml:space="preserve">
<style type="text/css">
	.st0{fill-rule:evenodd;clip-rule:evenodd;fill:#B8FF2B;}
</style>
<g id="Page-1">
	<g id="Extra-Large" transform="translate(-63.000000, -836.000000)">
		<g id="HEADER" transform="translate(0.000000, 7.000000)">
			<g id="Group-22" transform="translate(63.000000, 829.000000)">
				<path id="Fill-1" class="st0" d="M25,12c-3.4,0-6-2.5-6-5.9C19,2.8,21.6,0,24.9,0C28.1,0,31,2.8,31,6C31,9.3,28.4,12,25,12"/>
				<path id="Fill-3" class="st0" d="M43.9,12C40.5,12,38,9.4,38,6c0-3.3,2.8-6,6.1-6c3.3,0.1,6,2.9,5.9,6.1C50,9.5,47.3,12,43.9,12
					"/>
				<path id="Fill-5" class="st0" d="M69,6c0,3.4-2.5,6-6,6c-3.5,0-6-2.5-6-5.9C57,2.7,59.6,0,62.9,0C66.3,0,69,2.7,69,6"/>
				<path id="Fill-7" class="st0" d="M82,12c-3.5,0-6-2.5-6-5.9C76,2.7,78.6,0,81.9,0c3.3,0,6,2.7,6.1,6C88,9.3,85.4,12,82,12"/>
				<path id="Fill-9" class="st0" d="M12,6.1C12,9.6,9.4,12,6,12c-3.4,0-6-2.7-6-6c0.1-3.3,2.8-6,6.1-6C9.5,0.1,12,2.7,12,6.1"/>
				<path id="Fill-11" class="st0" d="M121,12c-3.4,0-6-2.5-6-5.9c0-3.3,2.6-6.1,5.9-6.1c3.2,0,6.1,2.8,6.1,6
					C127,9.3,124.4,12,121,12"/>
				<path id="Fill-13" class="st0" d="M139.9,12c-3.4,0-5.9-2.6-5.9-6c0-3.3,2.8-6,6.1-6c3.3,0.1,6,2.9,5.9,6.1
					C146,9.5,143.3,12,139.9,12"/>
				<path id="Fill-11_00000012473296165945036930000014567881743545868726_" class="st0" d="M158.8,12c-3.4,0-6-2.5-6-5.9
					c0-3.3,2.6-6.1,5.9-6.1c3.2,0,6.1,2.8,6.1,6C164.8,9.3,162.2,12,158.8,12"/>
				<path id="Fill-13_00000140712206560919210890000012998221109281761413_" class="st0" d="M176.7,12c-3.4,0-5.9-2.6-5.9-6
					c0-3.3,2.8-6,6.1-6c3.3,0.1,6,2.9,5.9,6.1C182.7,9.5,180.1,12,176.7,12"/>
				<path id="Fill-13_00000112591096311442618690000000129882163812496780_" class="st0" d="M194,12c-3.4,0-5.9-2.6-5.9-6
					c0-3.3,2.8-6,6.1-6c3.3,0.1,6,2.9,5.9,6.1C200,9.5,197.4,12,194,12"/>
				<path id="Fill-20" class="st0" d="M108,6.1c0,3.4-2.6,5.9-6,5.9c-3.4,0-6-2.7-6-6c0.1-3.3,2.8-6,6.1-6
					C105.5,0.1,108,2.7,108,6.1"/>
			</g>
		</g>
	</g>
</g>
</svg>
