<?xml version="1.0" encoding="UTF-8"?>
<svg width="146px" height="12px" viewBox="0 0 146 12" version="1.1" xmlns="http://www.w3.org/2000/svg" xmlns:xlink="http://www.w3.org/1999/xlink">
    <title>Group 22 Copy 4</title>
    <g id="Page-1" stroke="none" stroke-width="1" fill="none" fill-rule="evenodd">
        <g id="Extra-Large" transform="translate(-558.000000, -2287.000000)" fill="#5E2BFF">
            <g id="SHOWREEL" transform="translate(66.000000, 1790.000000)">
                <g id="Group-22-Copy-4" transform="translate(492.000000, 497.000000)">
                    <path d="M25.0189875,12 C21.6160498,12.0194627 19.0217208,9.47677623 19.0001442,6.0985473 C18.9775402,2.76152885 21.6150224,0.0416373113 24.9131595,0.000426833394 C28.1270451,-0.0397533826 30.9741285,2.76255912 30.999815,5.99346059 C31.0255014,9.31605537 28.3736348,11.9803128 25.0189875,12" id="Fill-1"></path>
                    <path d="M43.90539,11.9998763 C40.5261515,11.9792764 37.9603572,9.36205093 38.0004638,5.97541683 C38.0405704,2.67530259 40.8264368,-0.0717026257 44.0606745,0.00142724685 C47.3350188,0.0745571194 50.040672,2.86791225 49.9995371,6.12991657 C49.9563453,9.46505075 47.3041676,12.0204763 43.90539,11.9998763" id="Fill-3"></path>
                    <path d="M68.9998633,6.00413365 C69.021589,9.39983242 66.4507235,11.9865407 63.0418697,12 C59.5812883,12.0143659 57.0176647,9.50804133 57,6.09379246 C56.9835244,2.7269494 59.6278432,0.0176043164 62.9477254,0 C66.257262,-0.0174347604 68.9791723,2.68263528 68.9998633,6.00413365" id="Fill-5"></path>
                    <path d="M82.0153674,12 C78.5487657,12.0112948 76.0124551,9.52106139 76,6.09222538 C75.9886545,2.67987415 78.5787751,0.0155201961 81.9243045,0 C85.2191283,-0.0153887824 87.9644699,2.69738923 87.9996533,6.00361964 C88.0348367,9.33560752 85.3878018,11.9886282 82.0153674,12" id="Fill-7"></path>
                    <path d="M12,6.12753663 C11.9833456,9.5541756 9.43729051,12.0306308 5.96210147,11.9997137 C2.59049482,11.9708578 -0.0570709632,9.28931959 0.000935172765,5.96161517 C0.0579054849,2.66379722 2.84945078,-0.053810883 6.12472582,0.000809226742 C9.49633247,0.0574904727 12.0164919,2.68543915 12,6.12753663" id="Fill-9"></path>
                    <path d="M121.018988,12 C117.61605,12.0194627 115.021721,9.47677623 115.000144,6.0985473 C114.97754,2.76152885 117.615022,0.0416373113 120.913159,0.000426833394 C124.127045,-0.0397533826 126.974129,2.76255912 126.999815,5.99346059 C127.025501,9.31605537 124.373635,11.9803128 121.018988,12" id="Fill-11"></path>
                    <path d="M139.90539,11.9998763 C136.526151,11.9792764 133.960357,9.36205093 134.000464,5.97541683 C134.04057,2.67530259 136.826437,-0.0717026257 140.060675,0.00142724685 C143.335019,0.0745571194 146.040672,2.86791225 145.999537,6.12991657 C145.956345,9.46505075 143.304168,12.0204763 139.90539,11.9998763" id="Fill-13"></path>
                    <path d="M108,6.12753663 C107.983346,9.5541756 105.437291,12.0306308 101.962101,11.9997137 C98.5904948,11.9708578 95.942929,9.28931959 96.0009352,5.96161517 C96.0579055,2.66379722 98.8494508,-0.053810883 102.124726,0.000809226742 C105.496332,0.0574904727 108.016492,2.68543915 108,6.12753663" id="Fill-20"></path>
                </g>
            </g>
        </g>
    </g>
</svg>