<?xml version="1.0" encoding="UTF-8"?>
<svg width="342px" height="73px" viewBox="0 0 342 73" version="1.1" xmlns="http://www.w3.org/2000/svg" xmlns:xlink="http://www.w3.org/1999/xlink">
    <title>eikonica</title>
    <g id="Page-1" stroke="none" stroke-width="1" fill="none" fill-rule="evenodd">
        <g id="eikonica" transform="translate(0.000000, -0.000000)" fill="#FFFFFF" fill-rule="nonzero">
            <path d="M44.2,35.4 L44.2,47.1 C44.2,49.3 42.4,51 40.3,51 L12.4,51 C10.2,51 8.5,52.8 8.5,54.9 L8.5,57.7 C8.5,58.7 8.9,59.7 9.6,60.5 L13,63.9 C13.7,64.6 14.7,65 15.8,65 L30,65 C31,65 32,64.6 32.8,63.9 L35.8,60.9 C37.3,59.4 39.8,59.4 41.3,60.9 L41.3,60.9 C42.8,62.4 42.8,64.9 41.3,66.4 L36.3,71.4 C35.6,72.1 34.6,72.5 33.5,72.5 L12,72.5 C11,72.5 10,72.1 9.2,71.4 L1.1,63.3 C0.4,62.6 0,61.6 0,60.6 L0,35.4 C0,34.4 0.4,33.4 1.1,32.6 L9.2,24.5 C9.9,23.8 10.9,23.4 12,23.4 L32.1,23.4 C33.1,23.4 34.1,23.8 34.9,24.5 L43,32.6 C43.7,33.4 44.2,34.4 44.2,35.4 Z M35.7,39.7 L35.7,38.2 C35.7,37.2 35.3,36.2 34.6,35.4 L31.1,32 C30.4,31.3 29.4,30.9 28.3,30.9 L15.8,30.9 C14.8,30.9 13.8,31.3 13,32 L9.6,35.4 C8.9,36.1 8.5,37.1 8.5,38.2 L8.5,39.7 C8.5,41.9 10.3,43.6 12.4,43.6 L31.8,43.6 C33.9,43.7 35.7,41.9 35.7,39.7 Z" id="Shape"></path>
            <path d="M58.6,0.8 L58.6,0.8 C60.9,0.8 62.8,2.7 62.8,5 L62.8,7.5 C62.8,9.8 60.9,11.7 58.6,11.7 L58.6,11.7 C56.3,11.7 54.4,9.8 54.4,7.5 L54.4,5 C54.3,2.7 56.2,0.8 58.6,0.8 Z M58.6,23.4 L58.6,23.4 C60.9,23.4 62.8,25.3 62.8,27.6 L62.8,68.3 C62.8,70.6 60.9,72.5 58.6,72.5 L58.6,72.5 C56.3,72.5 54.4,70.6 54.4,68.3 L54.4,27.6 C54.3,25.3 56.2,23.4 58.6,23.4 Z" id="Shape"></path>
            <path d="M106,71.4 L90.6,55.7 C88.2,53.2 84,55 84,58.4 L84,68.8 C84,70.9 82.3,72.6 80.2,72.6 L79.4,72.6 C77.3,72.6 75.6,70.9 75.6,68.8 L75.6,3.8 C75.6,1.7 77.3,0 79.4,0 L80.2,0 C82.3,0 84,1.7 84,3.8 L84,36.8 C84,40.2 88.2,42 90.6,39.5 L105.3,24.5 C106,23.8 107,23.3 108,23.3 L108,23.3 C111.4,23.3 113.1,27.4 110.7,29.8 L96.3,44.6 C94.8,46.1 94.8,48.5 96.3,50 L112.2,66 C114.6,68.4 112.9,72.5 109.5,72.5 L108.8,72.5 C107.7,72.6 106.8,72.2 106,71.4 Z" id="Path"></path>
            <path d="M166.1,37.8 L166.1,58.2 C166.1,60.8 165.1,63.2 163.3,65 L158.6,69.7 C156.8,71.5 154.3,72.5 151.8,72.5 L136.4,72.5 C133.8,72.5 131.4,71.5 129.6,69.7 L124.9,65 C123.1,63.2 122.1,60.7 122.1,58.2 L122.1,37.8 C122.1,35.2 123.1,32.8 124.9,31 L129.6,26.3 C131.4,24.5 133.9,23.5 136.4,23.5 L151.8,23.5 C154.4,23.5 156.8,24.5 158.6,26.3 L163.3,31 C165.1,32.8 166.1,35.2 166.1,37.8 Z M157.7,55.4 L157.7,40.6 C157.7,38 156.7,35.6 154.9,33.8 L154.9,33.8 C153,32 150.6,31 148,31 L140.1,31 C137.5,31 135.1,32 133.3,33.8 L133.3,33.8 C131.5,35.6 130.5,38.1 130.5,40.6 L130.5,55.4 C130.5,58 131.5,60.4 133.3,62.2 L133.3,62.2 C135.1,64 137.6,65 140.1,65 L148,65 C150.6,65 153,64 154.8,62.2 L154.8,62.2 C156.7,60.4 157.7,57.9 157.7,55.4 Z" id="Shape"></path>
            <path d="M219.5,33.3 L219.5,69.7 C219.5,71.3 218.2,72.6 216.6,72.6 L213.9,72.6 C212.3,72.6 211,71.3 211,69.7 L211,36.5 C211,35.7 210.7,35 210.1,34.4 L207.5,31.8 C207,31.3 206.2,30.9 205.4,30.9 L196,30.9 C195.2,30.9 194.5,31.2 193.9,31.8 L186.2,39.5 C185.7,40 185.3,40.8 185.3,41.6 L185.3,69.8 C185.3,71.4 184,72.7 182.4,72.7 L179.7,72.7 C178.1,72.7 176.8,71.4 176.8,69.8 L176.8,26.3 C176.8,24.7 178.1,23.4 179.7,23.4 L181.7,23.4 C183.3,23.4 184.5,24.6 184.6,26.2 L184.6,26.2 C184.7,28.7 187.8,29.9 189.6,28.1 L193.5,24.2 C194,23.7 194.8,23.3 195.6,23.3 L209.5,23.3 C210.3,23.3 211,23.6 211.6,24.2 L218.6,31.2 C219.2,31.8 219.5,32.5 219.5,33.3 Z" id="Path"></path>
            <path d="M235.7,0.8 L235.7,0.8 C238,0.8 239.9,2.7 239.9,5 L239.9,7.5 C239.9,9.8 238,11.7 235.7,11.7 L235.7,11.7 C233.4,11.7 231.5,9.8 231.5,7.5 L231.5,5 C231.5,2.7 233.4,0.8 235.7,0.8 Z M235.7,23.4 L235.7,23.4 C238,23.4 239.9,25.3 239.9,27.6 L239.9,68.3 C239.9,70.6 238,72.5 235.7,72.5 L235.7,72.5 C233.4,72.5 231.5,70.6 231.5,68.3 L231.5,27.6 C231.5,25.3 233.4,23.4 235.7,23.4 Z" id="Shape"></path>
            <path d="M290.6,66.5 L285.6,71.5 C284.9,72.2 283.9,72.6 282.8,72.6 L262.8,72.6 C261.8,72.6 260.8,72.2 260,71.5 L251.9,63.4 C251.2,62.7 250.8,61.7 250.8,60.6 L250.8,35.4 C250.8,34.4 251.2,33.4 251.9,32.6 L260,24.5 C260.7,23.8 261.7,23.4 262.8,23.4 L282.3,23.4 C283.3,23.4 284.3,23.8 285.1,24.5 L290.1,29.5 C291.6,31 291.6,33.5 290.1,35 L290.1,35 C288.6,36.5 286.1,36.5 284.6,35 L281.7,32.1 C281,31.4 280,31 278.9,31 L266.6,31 C265.6,31 264.6,31.4 263.8,32.1 L260.5,35.4 C259.8,36.1 259.4,37.1 259.4,38.2 L259.4,57.7 C259.4,58.7 259.8,59.7 260.5,60.5 L263.8,63.8 C264.5,64.5 265.5,64.9 266.6,64.9 L279.4,64.9 C280.4,64.9 281.4,64.5 282.2,63.8 L285.1,60.9 C286.6,59.4 289.1,59.4 290.6,60.9 L290.6,60.9 C292.1,62.5 292.1,65 290.6,66.5 Z" id="Path"></path>
            <path d="M341.8,33.3 L341.8,69.7 C341.8,71.3 340.5,72.6 338.9,72.6 L336.9,72.6 C335.3,72.6 334.1,71.4 334,69.8 L334,69.8 C333.9,67.3 330.8,66.1 329,67.9 L325.1,71.8 C324.6,72.3 323.8,72.7 323,72.7 L307.3,72.7 C306.5,72.7 305.8,72.4 305.2,71.8 L298.5,65.1 C298,64.6 297.6,63.8 297.6,63 L297.6,53.9 C297.6,53.1 297.9,52.4 298.5,51.8 L304.2,46.1 C304.7,45.6 305.4,45.3 306.1,45.3 L330.4,43.6 C331.9,43.5 333.1,42.2 333.1,40.7 L333.1,36.4 C333.1,35.6 332.8,34.9 332.2,34.3 L329.5,31.6 C329,31.1 328.2,30.7 327.4,30.7 L312.2,30.7 C311.4,30.7 310.7,31 310.1,31.6 L306.4,35.3 C305.3,36.4 303.4,36.4 302.3,35.3 L300.9,33.9 C299.8,32.8 299.8,30.9 300.9,29.8 L306.5,24.2 C307,23.7 307.8,23.3 308.6,23.3 L331.7,23.3 C332.5,23.3 333.2,23.6 333.8,24.2 L340.8,31.2 C341.5,31.8 341.8,32.5 341.8,33.3 Z M333.3,54.4 L333.3,54 C333.3,52.3 331.9,51 330.2,51.1 L310.3,52.5 C309.6,52.5 308.9,52.8 308.5,53.3 L307.2,54.6 C306.7,55.1 306.3,55.9 306.3,56.7 L306.3,60.1 C306.3,60.9 306.6,61.6 307.2,62.2 L309.2,64.2 C309.7,64.7 310.5,65.1 311.3,65.1 L322.7,65.1 C323.5,65.1 324.2,64.8 324.8,64.2 L332.6,56.4 C333,56 333.3,55.2 333.3,54.4 Z" id="Shape"></path>
        </g>
    </g>
</svg>