<?xml version="1.0" encoding="UTF-8"?>
<svg width="88px" height="31px" viewBox="0 0 88 31" version="1.1" xmlns="http://www.w3.org/2000/svg" xmlns:xlink="http://www.w3.org/1999/xlink">
    <title>lotterie_romande_black copy 5</title>
    <g id="Page-1" stroke="none" stroke-width="1" fill="none" fill-rule="evenodd">
        <g id="Extra-Large" transform="translate(-1381.000000, -5023.000000)" fill="#5E8216" fill-rule="nonzero">
            <g id="lotterie_romande_black-copy-5" transform="translate(1381.000000, 5023.000000)">
                <path d="M6.44205327,14.1037449 C6.44205327,10.6680162 9.17410478,7.85981781 12.5426001,7.85981781 C15.9110954,7.85981781 18.65867,10.6680162 18.65867,14.1037449 C18.65867,17.5394737 15.9110954,20.3320492 12.5426001,20.3320492 C9.1896278,20.3476721 6.44205327,17.5394737 6.44205327,14.1037449 Z M88,0 L88,31 L0,31 L0,0 L88,0 Z M2.90280473,12.111336 C2.90280473,17.5080972 7.21820427,21.8851215 12.5581231,21.8851215 C17.898042,21.8851215 22.2134415,17.5080972 22.2134415,12.111336 C22.2134415,6.69888664 17.898042,2.32186235 12.5581231,2.32186235 C7.21820427,2.32186235 2.90280473,6.69888664 2.90280473,12.111336 Z M0.667489857,5.02024291 C1.66096313,3.29453441 3.02698889,1.81983806 4.62585994,0.674595142 L0.667489857,0.674595142 L0.667489857,5.02024291 Z M87.3325101,0.674595142 L20.4903863,0.674595142 C24.0451579,3.20040486 26.3580878,7.37348178 26.3580878,12.111336 C26.3580878,19.8299595 20.1799259,26.0895749 12.5581231,26.0895749 C7.49761863,26.0895749 3.07355795,23.3284413 0.667489857,19.2024291 L0.667489857,30.3254049 L87.3325101,30.3254049 L87.3325101,0.674595142 Z M39.1490563,6.25961538 L41.5861704,6.25961538 L41.5861704,11.4210526 L43.9767155,11.4210526 L43.9767155,13.5232794 L39.1490563,13.5232794 L39.1490563,6.25961538 L39.1490563,6.25961538 Z M44.8615276,9.85222672 C44.8615276,9.27176113 44.9701887,8.73836032 45.171988,8.26771255 C45.3737873,7.79706478 45.6532016,7.4048583 46.0102311,7.07540486 C46.3672605,6.74595142 46.7863821,6.49493927 47.2831187,6.32236842 C47.7643323,6.14979757 48.292115,6.05566802 48.8664667,6.05566802 C49.4408185,6.05566802 49.9686012,6.14979757 50.4498148,6.32236842 C50.9310284,6.49493927 51.365673,6.76163968 51.7227024,7.07540486 C52.0797319,7.4048583 52.3591462,7.79706478 52.5609455,8.26771255 C52.7627448,8.73836032 52.8714059,9.27176113 52.8714059,9.85222672 C52.8714059,10.4326923 52.7627448,10.9660931 52.5609455,11.4524291 C52.3591462,11.9387652 52.0797319,12.3466599 51.7227024,12.6761134 C51.365673,13.0212551 50.9465514,13.2722672 50.4498148,13.4605263 C49.9686012,13.6487854 49.4252955,13.742915 48.8664667,13.742915 C48.292115,13.742915 47.7643323,13.6487854 47.2831187,13.4605263 C46.8019051,13.2722672 46.3672605,13.0212551 46.0102311,12.6761134 C45.6532016,12.3309717 45.3737873,11.9230769 45.171988,11.4524291 C44.9701887,10.9660931 44.8615276,10.4326923 44.8615276,9.85222672 Z M47.4383489,9.85222672 C47.4383489,10.0875506 47.469395,10.3071862 47.5470101,10.5111336 C47.6246252,10.715081 47.7177633,10.8876518 47.8419474,11.0288462 C47.9661316,11.1700405 48.1213618,11.2798583 48.292115,11.3582996 C48.4628682,11.4367409 48.6646675,11.4838057 48.8664667,11.4838057 C49.068266,11.4838057 49.2545422,11.4524291 49.4252955,11.3582996 C49.5960487,11.2798583 49.7512789,11.1700405 49.875463,11.0288462 C49.9996472,10.8876518 50.1083083,10.715081 50.1704004,10.5111336 C50.2480155,10.3071862 50.2790616,10.0875506 50.2790616,9.85222672 C50.2790616,9.61690283 50.2480155,9.41295547 50.1704004,9.2090081 C50.0927853,9.02074899 49.9996472,8.84817814 49.875463,8.72267206 C49.7512789,8.59716599 49.5960487,8.48734818 49.4252955,8.40890688 C49.2545422,8.33046559 49.068266,8.29908907 48.8664667,8.29908907 C48.6646675,8.29908907 48.4783913,8.33046559 48.292115,8.40890688 C48.1213618,8.48734818 47.9661316,8.59716599 47.8419474,8.72267206 C47.7177633,8.84817814 47.6246252,9.02074899 47.5470101,9.2090081 C47.484918,9.41295547 47.4383489,9.61690283 47.4383489,9.85222672 Z M57.8542953,13.5389676 L55.4327042,13.5389676 L55.4327042,8.31477733 L53.6630799,8.31477733 L53.6630799,6.25961538 L59.6239196,6.25961538 L59.6239196,8.31477733 L57.8542953,8.31477733 L57.8542953,13.5389676 Z M60.9588993,6.25961538 L65.9107426,6.25961538 L65.9107426,8.29908907 L63.2407832,8.29908907 L63.2407832,8.92661943 L65.7555124,8.92661943 L65.7555124,10.8248988 L63.2407832,10.8248988 L63.2407832,11.4994939 L66.0970189,11.4994939 L66.0970189,13.5389676 L60.9744223,13.5389676 L60.9588993,6.25961538 L60.9588993,6.25961538 Z M67.6958899,6.25961538 L70.8004939,6.25961538 C71.1575234,6.25961538 71.4990298,6.2909919 71.8560593,6.3694332 C72.2130887,6.44787449 72.5235491,6.57338057 72.7874405,6.74595142 C73.0668548,6.93421053 73.2841771,7.16953441 73.4549303,7.4832996 C73.6256835,7.78137652 73.7032986,8.173583 73.7032986,8.62854251 C73.7032986,9.06781377 73.5946375,9.46002024 73.3773152,9.80516194 C73.1599929,10.1503036 72.8495325,10.4013158 72.445934,10.5895749 L74.2776504,13.5389676 L71.4990298,13.5389676 L70.117481,10.9347166 L70.0398659,10.9347166 L70.0398659,13.5389676 L67.6958899,13.5389676 L67.6958899,6.25961538 L67.6958899,6.25961538 Z M70.0243429,9.33451417 L70.5055565,9.33451417 C70.5831716,9.33451417 70.6763098,9.33451417 70.7694479,9.31882591 C70.862586,9.30313765 70.9557241,9.27176113 71.0488622,9.22469636 C71.1264773,9.17763158 71.2040924,9.11487854 71.2661845,9.03643725 C71.3282766,8.95799595 71.3593226,8.84817814 71.3593226,8.72267206 C71.3593226,8.59716599 71.3282766,8.48734818 71.2817075,8.40890688 C71.2351385,8.33046559 71.1730464,8.28340081 71.0954313,8.23633603 C71.0178162,8.20495951 70.9402011,8.173583 70.862586,8.15789474 C70.7694479,8.14220648 70.6918328,8.14220648 70.6142177,8.14220648 L70.0398659,8.14220648 L70.0243429,9.33451417 L70.0243429,9.33451417 Z M75.1779855,6.25961538 L77.6150997,6.25961538 L77.6150997,13.5389676 L75.1779855,13.5389676 L75.1779855,6.25961538 Z M79.1518786,6.25961538 L84.103722,6.25961538 L84.103722,8.29908907 L81.4337626,8.29908907 L81.4337626,8.92661943 L83.9484918,8.92661943 L83.9484918,10.8248988 L81.4337626,10.8248988 L81.4337626,11.4994939 L84.2899982,11.4994939 L84.2899982,13.5389676 L79.1674017,13.5389676 L79.1674017,6.25961538 L79.1518786,6.25961538 Z M28.3760804,16.8805668 L31.4651614,16.8805668 C31.8221909,16.8805668 32.1636973,16.9119433 32.5207268,16.9903846 C32.8622332,17.0688259 33.1726936,17.194332 33.452108,17.3669028 C33.7315223,17.5551619 33.9488446,17.7904858 34.1195978,18.104251 C34.290351,18.4023279 34.3679661,18.7945344 34.3679661,19.2494939 C34.3679661,19.6887652 34.259305,20.0809717 34.0419827,20.4261134 C33.8246604,20.7712551 33.5142,21.0222672 33.1106015,21.2105263 L34.9267948,24.159919 L32.1481743,24.159919 L30.7666255,21.5713563 L30.6890104,21.5713563 L30.6890104,24.159919 L28.3450344,24.159919 L28.3450344,16.8805668 L28.3760804,16.8805668 Z M30.7045334,19.9397773 L31.170224,19.9397773 C31.2478391,19.9397773 31.3409772,19.9397773 31.4341154,19.9240891 C31.5272535,19.9084008 31.6203916,19.8770243 31.6980067,19.8299595 C31.7756218,19.7828947 31.8532369,19.7201417 31.915329,19.6417004 C31.9774211,19.5632591 31.9929441,19.4534413 31.9929441,19.3279352 C31.9929441,19.2024291 31.961898,19.0926113 31.915329,19.01417 C31.8687599,18.9357287 31.8066678,18.888664 31.7290527,18.8415992 C31.6514376,18.8102227 31.5738225,18.7788462 31.4806844,18.7631579 C31.3875463,18.7474696 31.3099312,18.7474696 31.2323161,18.7474696 L30.6579644,18.7474696 L30.6579644,19.9397773 C30.6579644,19.9397773 30.7045334,19.9397773 30.7045334,19.9397773 Z M35.3303934,20.4731781 C35.3303934,19.8927126 35.4390545,19.375 35.6408538,18.9043522 C35.842653,18.4337045 36.1220674,18.041498 36.4790968,17.7120445 C36.8361263,17.3825911 37.2552478,17.1315789 37.7364615,16.9590081 C38.2176751,16.7864372 38.7609808,16.6923077 39.3198095,16.6923077 C39.8941612,16.6923077 40.4219439,16.7864372 40.9031575,16.9590081 C41.3843711,17.1315789 41.8190157,17.3825911 42.1760452,17.7120445 C42.5330746,18.041498 42.812489,18.4337045 43.0142882,18.9043522 C43.2160875,19.375 43.3247486,19.8927126 43.3247486,20.4731781 C43.3247486,21.0536437 43.2160875,21.5870445 43.0142882,22.0576923 C42.812489,22.5440283 42.5330746,22.9519231 42.1760452,23.2813765 C41.8190157,23.6265182 41.3998942,23.8775304 40.9031575,24.0657895 C40.4219439,24.2540486 39.8941612,24.3481781 39.3198095,24.3481781 C38.7454578,24.3481781 38.2176751,24.2540486 37.7364615,24.0657895 C37.2552478,23.8775304 36.8361263,23.6265182 36.4790968,23.2813765 C36.1220674,22.9362348 35.842653,22.5283401 35.6408538,22.0576923 C35.4235315,21.5870445 35.3303934,21.0536437 35.3303934,20.4731781 Z M37.8916917,20.4731781 C37.8916917,20.708502 37.9227377,20.9281377 38.0003528,21.132085 C38.0779679,21.3360324 38.171106,21.5086032 38.2952902,21.6497976 C38.4194743,21.7909919 38.5747045,21.9008097 38.7454578,21.979251 C38.916211,22.0576923 39.1180102,22.1047571 39.3198095,22.1047571 C39.5216087,22.1047571 39.707885,22.0576923 39.8786382,21.979251 C40.0493914,21.9008097 40.2046216,21.7909919 40.3288058,21.6497976 C40.4529899,21.5086032 40.5616511,21.3360324 40.6237432,21.132085 C40.6858352,20.9281377 40.7324043,20.708502 40.7324043,20.4731781 C40.7324043,20.2378543 40.7013583,20.0339069 40.6237432,19.8299595 C40.5461281,19.6417004 40.4529899,19.4691296 40.3288058,19.3436235 C40.2046216,19.2181174 40.0493914,19.1082996 39.8786382,19.0298583 C39.707885,18.951417 39.5216087,18.9200405 39.3198095,18.9200405 C39.1180102,18.9200405 38.931734,18.951417 38.7454578,19.0298583 C38.5747045,19.1082996 38.4194743,19.2181174 38.2952902,19.3436235 C38.171106,19.4848178 38.0779679,19.6417004 38.0003528,19.8299595 C37.9227377,20.0182186 37.8916917,20.2378543 37.8916917,20.4731781 Z M46.4759217,20.0339069 L46.5845828,24.1442308 L44.3337449,24.1442308 L44.3337449,16.8805668 L47.500441,16.8805668 L48.8043747,20.7869433 L48.8509437,20.7869433 L49.9841242,16.8805668 L53.2439584,16.8805668 L53.2439584,24.1442308 L50.8844593,24.1442308 L50.9620744,20.0652834 L50.8999824,20.0495951 L49.5650026,24.1442308 L47.8574705,24.1442308 L46.5380138,20.0339069 L46.4759217,20.0339069 L46.4759217,20.0339069 Z M56.9229141,16.8805668 L59.4842124,16.8805668 L62.278356,24.1442308 L59.6549656,24.1442308 L59.2824131,23.0774291 L57.0005292,23.0774291 L56.6434997,24.1442308 L54.0822014,24.1442308 L56.9229141,16.8805668 Z M58.1647557,19.4063765 L57.5748809,21.2105263 L58.7391074,21.2105263 L58.1647557,19.4063765 Z M63.1476451,16.8805668 L65.5537132,16.8805668 L67.6027518,20.5673077 L67.6493209,20.5673077 L67.5561827,16.8805668 L69.8535897,16.8805668 L69.8535897,24.1442308 L67.3699065,24.1442308 L65.38296,20.6771255 L65.3363909,20.6771255 L65.445052,24.1442308 L63.1476451,24.1442308 L63.1476451,16.8805668 L63.1476451,16.8805668 Z M71.1730464,24.1442308 L71.1730464,16.8805668 L73.8585288,16.8805668 C74.4328806,16.8805668 74.9761863,16.9433198 75.4884459,17.0531377 C76.0007056,17.1629555 76.4663962,17.3669028 76.8544717,17.6336032 C77.2580702,17.9159919 77.5685306,18.2768219 77.8013759,18.7317814 C78.0342212,19.1867409 78.1584054,19.7672065 78.1584054,20.4574899 C78.1584054,21.1007085 78.0497442,21.6497976 77.8168989,22.1047571 C77.5840536,22.5754049 77.2891162,22.9519231 76.9010407,23.25 C76.5284883,23.5480769 76.0783207,23.7677126 75.5971071,23.9089069 C75.1003704,24.0501012 74.5881108,24.1285425 74.0603281,24.1285425 L71.1730464,24.1285425 L71.1730464,24.1442308 L71.1730464,24.1442308 Z M73.5014994,18.951417 L73.5014994,22.042004 L73.951667,22.042004 C74.5260187,22.042004 74.9606633,21.916498 75.2556006,21.6654858 C75.566061,21.4144737 75.7057682,21.0065789 75.7057682,20.4418016 C75.7057682,19.9711538 75.550538,19.6103239 75.2556006,19.3436235 C74.9451402,19.0769231 74.5415417,18.951417 74.0292821,18.951417 L73.5014994,18.951417 L73.5014994,18.951417 Z M79.1674017,16.8805668 L84.103722,16.8805668 L84.103722,18.9043522 L81.4337626,18.9043522 L81.4337626,19.5318826 L83.9329688,19.5318826 L83.9329688,21.4301619 L81.4337626,21.4301619 L81.4337626,22.1047571 L84.2899982,22.1047571 L84.2899982,24.1285425 L79.1674017,24.1285425 L79.1674017,16.8805668 Z" id="Shape"></path>
            </g>
        </g>
    </g>
</svg>