<?xml version="1.0" encoding="UTF-8"?>
<svg width="93px" height="39px" viewBox="0 0 93 39" version="1.1" xmlns="http://www.w3.org/2000/svg" xmlns:xlink="http://www.w3.org/1999/xlink">
    <title>partenaire-eikon</title>
    <g id="Page-1" stroke="none" stroke-width="1" fill="none" fill-rule="evenodd">
        <g id="partenaire-eikon" transform="translate(0.095303, 0.000000)" fill="#5E8216">
            <polygon id="Path" points="0.904696696 22 0.904696696 26 2.9046967 26 2.9046967 25.4 1.4046967 25.4 1.4046967 24.3 2.8046967 24.3 2.8046967 23.8 1.4046967 23.8 1.4046967 22.6 2.8046967 22.6 2.8046967 22.1"></polygon>
            <g id="Group">
                <path d="M4.9046967,24.3 C4.9046967,24 4.7046967,23.9 4.3046967,23.9 C3.8046967,23.9 3.7046967,24.2 3.7046967,24.6 C3.7046967,25 3.9046967,25.3 4.4046967,25.3 C4.7046967,25.3 4.9046967,25.1 4.9046967,24.9 L5.5046967,24.9 C5.4046967,25.4 5.0046967,25.8 4.4046967,25.8 C3.6046967,25.8 3.2046967,25.2 3.2046967,24.5 C3.2046967,23.8 3.6046967,23.2 4.4046967,23.2 C5.2046967,23.2 5.5046967,23.7 5.5046967,24.2 L4.9046967,24.2 L4.9046967,24.3 Z M7.9046967,24.7 C7.9046967,24.3 7.6046967,24 7.2046967,24 C6.8046967,24 6.5046967,24.3 6.5046967,24.7 C6.5046967,25.1 6.8046967,25.4 7.2046967,25.4 C7.7046967,25.4 7.9046967,25.1 7.9046967,24.7 M5.9046967,24.7 C5.9046967,24 6.4046967,23.4 7.2046967,23.4 C8.0046967,23.4 8.5046967,24 8.5046967,24.7 C8.5046967,25.4 8.0046967,26 7.2046967,26 C6.4046967,26 5.9046967,25.4 5.9046967,24.7" id="Shape"></path>
                <path d="M9.1046967,25.9 L9.7046967,25.9 L9.7046967,22.2 L9.1046967,22.2 L9.1046967,25.9 Z M10.9046967,24.4 L12.1046967,24.4 C12.1046967,24.1 11.9046967,23.8 11.5046967,23.8 C11.1046967,23.8 10.9046967,24 10.9046967,24.4 Z M10.9046967,24.8 C10.9046967,25.1 11.1046967,25.4 11.5046967,25.4 C11.8046967,25.4 12.0046967,25.2 12.0046967,25.1 L12.6046967,25.1 C12.5046967,25.5 12.1046967,25.9 11.5046967,25.9 C10.7046967,25.9 10.3046967,25.3 10.3046967,24.6 C10.3046967,23.9 10.8046967,23.3 11.5046967,23.3 C12.1046967,23.3 12.6046967,23.8 12.6046967,24.4 C12.6046967,24.5 12.6046967,24.6 12.6046967,24.7 C12.6046967,24.8 10.9046967,24.8 10.9046967,24.8 Z M15.0046967,24.7 C15.0046967,25.1 15.3046967,25.4 15.7046967,25.4 C16.1046967,25.4 16.4046967,25.1 16.4046967,24.7 C16.4046967,24.3 16.1046967,24 15.7046967,24 C15.3046967,23.9 15.0046967,24.2 15.0046967,24.7 Z M15.0046967,23.7 C15.2046967,23.5 15.5046967,23.3 15.7046967,23.3 C16.4046967,23.3 17.0046967,23.9 17.0046967,24.6 C17.0046967,25.3 16.5046967,25.9 15.7046967,25.9 C15.4046967,25.9 15.1046967,25.7 15.0046967,25.5 L15.0046967,27 L14.4046967,27 L14.4046967,23.3 L15.0046967,23.3 L15.0046967,23.7 L15.0046967,23.7 Z M19.2046967,24 C19.1046967,24 19.0046967,24 19.0046967,24 C18.5046967,24 18.3046967,24.3 18.3046967,24.9 L18.3046967,25.9 L17.7046967,25.9 L17.7046967,23.5 L18.3046967,23.5 L18.3046967,23.9 C18.4046967,23.7 18.7046967,23.5 19.0046967,23.5 C19.1046967,23.5 19.2046967,23.5 19.2046967,23.6 L19.2046967,24 L19.2046967,24 Z M21.4046967,24.7 C21.4046967,24.3 21.1046967,24 20.7046967,24 C20.3046967,24 20.0046967,24.3 20.0046967,24.7 C20.0046967,25.1 20.3046967,25.4 20.7046967,25.4 C21.2046967,25.4 21.4046967,25.1 21.4046967,24.7 M19.5046967,24.7 C19.5046967,24 20.0046967,23.4 20.8046967,23.4 C21.6046967,23.4 22.1046967,24 22.1046967,24.7 C22.1046967,25.4 21.6046967,26 20.8046967,26 C20.0046967,25.9 19.5046967,25.4 19.5046967,24.7 M24.1046967,22.7 C24.0046967,22.7 23.9046967,22.6 23.9046967,22.6 C23.7046967,22.6 23.5046967,22.6 23.5046967,23 L23.5046967,23.3 L24.1046967,23.3 L24.1046967,23.8 L23.5046967,23.8 L23.5046967,25.7 L22.9046967,25.7 L22.9046967,23.8 L22.4046967,23.8 L22.4046967,23.3 L22.9046967,23.3 L22.9046967,23 C22.9046967,22.1 23.5046967,22 23.8046967,22 C24.0046967,22 24.1046967,22.1 24.1046967,22.1 C24.1046967,22.3 24.1046967,22.7 24.1046967,22.7 Z M25.0046967,24.4 L26.2046967,24.4 C26.2046967,24.1 26.0046967,23.8 25.6046967,23.8 C25.3046967,23.8 25.0046967,24 25.0046967,24.4 Z M25.0046967,24.8 C25.0046967,25.1 25.2046967,25.4 25.6046967,25.4 C25.9046967,25.4 26.1046967,25.2 26.1046967,25.1 L26.7046967,25.1 C26.6046967,25.5 26.2046967,25.9 25.6046967,25.9 C24.8046967,25.9 24.4046967,25.3 24.4046967,24.6 C24.4046967,23.9 24.9046967,23.3 25.6046967,23.3 C26.2046967,23.3 26.7046967,23.8 26.7046967,24.4 C26.7046967,24.5 26.7046967,24.6 26.7046967,24.7 L25.0046967,24.7 L25.0046967,24.8 Z M29.1046967,25.2 C29.1046967,25.7 28.6046967,25.9 28.1046967,25.9 C27.6046967,25.9 27.1046967,25.6 27.1046967,25 L27.7046967,25 C27.7046967,25.3 27.9046967,25.5 28.2046967,25.5 C28.4046967,25.5 28.6046967,25.4 28.6046967,25.2 C28.6046967,25 28.4046967,25 27.9046967,24.8 C27.6046967,24.7 27.3046967,24.6 27.3046967,24.1 C27.3046967,23.6 27.7046967,23.4 28.2046967,23.4 C28.7046967,23.4 29.1046967,23.7 29.1046967,24.2 L28.5046967,24.2 C28.5046967,24 28.4046967,23.8 28.1046967,23.8 C27.9046967,23.8 27.8046967,23.9 27.8046967,24.1 C27.8046967,24.3 28.0046967,24.3 28.5046967,24.5 C28.8046967,24.6 29.1046967,24.7 29.1046967,25.2 M31.6046967,25.2 C31.6046967,25.7 31.1046967,25.9 30.6046967,25.9 C30.1046967,25.9 29.6046967,25.6 29.6046967,25 L30.2046967,25 C30.2046967,25.3 30.4046967,25.5 30.7046967,25.5 C30.9046967,25.5 31.1046967,25.4 31.1046967,25.2 C31.1046967,25 30.9046967,25 30.4046967,24.7 C30.1046967,24.6 29.8046967,24.5 29.8046967,24 C29.8046967,23.5 30.2046967,23.3 30.7046967,23.3 C31.2046967,23.3 31.6046967,23.6 31.6046967,24.1 L31.0046967,24.1 C31.0046967,23.9 30.9046967,23.7 30.6046967,23.7 C30.4046967,23.7 30.3046967,23.8 30.3046967,24 C30.3046967,24.2 30.5046967,24.2 31.0046967,24.4 C31.3046967,24.6 31.6046967,24.7 31.6046967,25.2 M32.3046967,25.9 L32.9046967,25.9 L32.9046967,23.5 L32.3046967,23.5 L32.3046967,25.9 L32.3046967,25.9 Z M32.6046967,22.1 C32.8046967,22.1 33.0046967,22.3 33.0046967,22.5 C33.0046967,22.7 32.8046967,22.9 32.6046967,22.9 L32.6046967,22.9 C32.4046967,22.9 32.2046967,22.7 32.2046967,22.5 C32.2046967,22.3 32.3046967,22.1 32.6046967,22.1 Z M35.4046967,24.7 C35.4046967,24.3 35.1046967,24 34.7046967,24 C34.3046967,24 34.0046967,24.3 34.0046967,24.7 C34.0046967,25.1 34.3046967,25.4 34.7046967,25.4 C35.1046967,25.4 35.4046967,25.1 35.4046967,24.7 M33.4046967,24.7 C33.4046967,24 33.9046967,23.4 34.7046967,23.4 C35.5046967,23.4 36.0046967,24 36.0046967,24.7 C36.0046967,25.4 35.5046967,26 34.7046967,26 C33.9046967,25.9 33.4046967,25.4 33.4046967,24.7 M36.6046967,23.4 L37.2046967,23.4 L37.2046967,23.7 C37.4046967,23.4 37.7046967,23.3 38.0046967,23.3 C38.3046967,23.3 38.6046967,23.4 38.7046967,23.6 C38.8046967,23.8 38.9046967,24 38.9046967,24.3 L38.9046967,25.7 L38.3046967,25.7 L38.3046967,24.4 C38.3046967,24 38.2046967,23.7 37.8046967,23.7 C37.4046967,23.7 37.2046967,24 37.2046967,24.4 L37.2046967,25.7 L36.6046967,25.7 L36.6046967,23.4 L36.6046967,23.4 Z M39.6046967,23.4 L40.2046967,23.4 L40.2046967,23.7 C40.4046967,23.4 40.7046967,23.3 41.0046967,23.3 C41.3046967,23.3 41.6046967,23.4 41.7046967,23.6 C41.8046967,23.8 41.9046967,24 41.9046967,24.3 L41.9046967,25.7 L41.3046967,25.7 L41.3046967,24.4 C41.3046967,24 41.2046967,23.7 40.8046967,23.7 C40.4046967,23.7 40.2046967,24 40.2046967,24.4 L40.2046967,25.7 L39.6046967,25.7 L39.6046967,23.4 L39.6046967,23.4 Z M43.0046967,24.4 L44.2046967,24.4 C44.2046967,24.1 44.0046967,23.8 43.6046967,23.8 C43.2046967,23.8 43.0046967,24 43.0046967,24.4 Z M43.0046967,24.8 C43.0046967,25.1 43.2046967,25.4 43.6046967,25.4 C43.9046967,25.4 44.1046967,25.2 44.1046967,25.1 L44.7046967,25.1 C44.6046967,25.5 44.2046967,25.9 43.6046967,25.9 C42.8046967,25.9 42.4046967,25.3 42.4046967,24.6 C42.4046967,23.9 42.9046967,23.3 43.6046967,23.3 C44.2046967,23.3 44.7046967,23.8 44.7046967,24.4 C44.7046967,24.5 44.7046967,24.6 44.7046967,24.7 L43.0046967,24.7 L43.0046967,24.8 Z M45.4046967,25.9 L46.0046967,25.9 L46.0046967,22.2 L45.4046967,22.2 L45.4046967,25.9 Z M46.8046967,25.9 L47.4046967,25.9 L47.4046967,22.2 L46.8046967,22.2 L46.8046967,25.9 Z M48.6046967,24.4 L49.8046967,24.4 C49.8046967,24.1 49.6046967,23.8 49.2046967,23.8 C48.8046967,23.8 48.6046967,24 48.6046967,24.4 Z M48.6046967,24.8 C48.6046967,25.1 48.8046967,25.4 49.2046967,25.4 C49.5046967,25.4 49.7046967,25.2 49.7046967,25.1 L50.3046967,25.1 C50.2046967,25.5 49.8046967,25.9 49.2046967,25.9 C48.4046967,25.9 48.0046967,25.3 48.0046967,24.6 C48.0046967,23.9 48.5046967,23.3 49.2046967,23.3 C49.8046967,23.3 50.3046967,23.8 50.3046967,24.4 C50.3046967,24.5 50.3046967,24.6 50.3046967,24.7 L48.6046967,24.7 L48.6046967,24.8 Z M52.5046967,24.4 L53.7046967,24.4 C53.7046967,24.1 53.5046967,23.8 53.1046967,23.8 C52.7046967,23.8 52.5046967,24 52.5046967,24.4 Z M52.5046967,24.8 C52.5046967,25.1 52.7046967,25.4 53.1046967,25.4 C53.4046967,25.4 53.6046967,25.2 53.6046967,25.1 L54.2046967,25.1 C54.1046967,25.5 53.7046967,25.9 53.1046967,25.9 C52.3046967,25.9 51.9046967,25.3 51.9046967,24.6 C51.9046967,23.9 52.4046967,23.3 53.1046967,23.3 C53.7046967,23.3 54.2046967,23.8 54.2046967,24.4 C54.2046967,24.5 54.2046967,24.6 54.2046967,24.7 L52.5046967,24.7 L52.5046967,24.8 Z M54.9046967,23.4 L55.5046967,23.4 L55.5046967,23.7 C55.7046967,23.4 56.0046967,23.3 56.3046967,23.3 C56.6046967,23.3 56.9046967,23.4 57.0046967,23.6 C57.1046967,23.8 57.2046967,24 57.2046967,24.3 L57.2046967,25.7 L56.6046967,25.7 L56.6046967,24.4 C56.6046967,24 56.5046967,23.7 56.1046967,23.7 C55.7046967,23.7 55.5046967,24 55.5046967,24.4 L55.5046967,25.7 L54.9046967,25.7 L54.9046967,23.4 L54.9046967,23.4 Z M60.9046967,24.7 C60.9046967,24.3 60.6046967,24 60.2046967,24 C59.8046967,24 59.5046967,24.3 59.5046967,24.7 C59.5046967,25.1 59.8046967,25.4 60.2046967,25.4 C60.6046967,25.4 60.9046967,25.1 60.9046967,24.7 Z M61.4046967,23.5 L61.4046967,25.9 L60.9046967,25.9 L60.9046967,25.6 C60.7046967,25.8 60.4046967,26 60.2046967,26 C59.5046967,26 58.9046967,25.4 58.9046967,24.7 C58.9046967,24 59.4046967,23.4 60.2046967,23.4 C60.5046967,23.4 60.8046967,23.6 60.9046967,23.8 L60.9046967,23.5 L61.4046967,23.5 L61.4046967,23.5 Z M63.8046967,24 C63.7046967,24 63.6046967,24 63.6046967,24 C63.1046967,24 62.9046967,24.3 62.9046967,24.9 L62.9046967,25.9 L62.3046967,25.9 L62.3046967,23.5 L62.9046967,23.5 L62.9046967,23.9 C63.0046967,23.7 63.3046967,23.5 63.6046967,23.5 C63.7046967,23.5 63.8046967,23.5 63.8046967,23.6 C63.8046967,23.5 63.8046967,24 63.8046967,24 Z M65.7046967,25.9 C65.6046967,25.9 65.4046967,26 65.3046967,26 C65.0046967,26 64.5046967,25.9 64.5046967,25.1 L64.5046967,24 L64.1046967,24 L64.1046967,23.5 L64.5046967,23.5 L64.5046967,22.8 L65.1046967,22.8 L65.1046967,23.5 L65.7046967,23.5 L65.7046967,24 L65.1046967,24 L65.1046967,25 C65.1046967,25.4 65.2046967,25.5 65.4046967,25.5 C65.5046967,25.5 65.6046967,25.5 65.7046967,25.5 L65.7046967,25.9 L65.7046967,25.9 Z M68.1046967,25.2 C68.1046967,25.7 67.6046967,25.9 67.1046967,25.9 C66.6046967,25.9 66.1046967,25.6 66.1046967,25 L66.7046967,25 C66.7046967,25.3 66.9046967,25.5 67.2046967,25.5 C67.4046967,25.5 67.6046967,25.4 67.6046967,25.2 C67.6046967,25 67.4046967,25 66.9046967,24.7 C66.6046967,24.6 66.3046967,24.5 66.3046967,24 C66.3046967,23.5 66.7046967,23.3 67.2046967,23.3 C67.7046967,23.3 68.1046967,23.6 68.1046967,24.1 L67.5046967,24.1 C67.5046967,23.9 67.4046967,23.7 67.1046967,23.7 C66.9046967,23.7 66.8046967,23.8 66.8046967,24 C66.8046967,24.2 67.0046967,24.2 67.5046967,24.4 C67.7046967,24.6 68.1046967,24.7 68.1046967,25.2 M71.6046967,24.7 C71.6046967,24.3 71.3046967,24 70.9046967,24 C70.5046967,24 70.2046967,24.3 70.2046967,24.7 C70.2046967,25.1 70.5046967,25.4 70.9046967,25.4 C71.4046967,25.4 71.6046967,25.1 71.6046967,24.7 Z M72.2046967,23.5 L72.2046967,25.9 L71.6046967,25.9 L71.6046967,25.6 C71.4046967,25.8 71.1046967,26 70.9046967,26 C70.2046967,26 69.6046967,25.4 69.6046967,24.7 C69.6046967,24 70.1046967,23.4 70.9046967,23.4 C71.2046967,23.4 71.5046967,23.6 71.6046967,23.8 L71.6046967,23.5 L72.2046967,23.5 L72.2046967,23.5 Z M73.6046967,24.7 C73.6046967,25.1 73.9046967,25.4 74.3046967,25.4 C74.7046967,25.4 75.0046967,25.1 75.0046967,24.7 C75.0046967,24.3 74.7046967,24 74.3046967,24 C73.9046967,23.9 73.6046967,24.2 73.6046967,24.7 Z M73.6046967,23.7 C73.8046967,23.5 74.1046967,23.3 74.3046967,23.3 C75.0046967,23.3 75.6046967,23.9 75.6046967,24.6 C75.6046967,25.3 75.1046967,25.9 74.3046967,25.9 C74.0046967,25.9 73.7046967,25.7 73.6046967,25.5 L73.6046967,27 L73.0046967,27 L73.0046967,23.3 L73.6046967,23.3 L73.6046967,23.7 L73.6046967,23.7 Z M76.8046967,24.7 C76.8046967,25.1 77.1046967,25.4 77.5046967,25.4 C77.9046967,25.4 78.2046967,25.1 78.2046967,24.7 C78.2046967,24.3 77.9046967,24 77.5046967,24 C77.1046967,23.9 76.8046967,24.2 76.8046967,24.7 Z M76.8046967,23.7 C77.0046967,23.5 77.3046967,23.3 77.5046967,23.3 C78.2046967,23.3 78.8046967,23.9 78.8046967,24.6 C78.8046967,25.3 78.3046967,25.9 77.5046967,25.9 C77.2046967,25.9 76.9046967,25.7 76.8046967,25.5 L76.8046967,27 L76.2046967,27 L76.2046967,23.3 L76.8046967,23.3 L76.8046967,23.7 L76.8046967,23.7 Z M79.4046967,25.9 L80.0046967,25.9 L80.0046967,22.2 L79.4046967,22.2 L79.4046967,25.9 Z M80.8046967,25.9 L81.4046967,25.9 L81.4046967,23.5 L80.8046967,23.5 L80.8046967,25.9 L80.8046967,25.9 Z M81.0046967,22.1 C81.2046967,22.1 81.4046967,22.3 81.4046967,22.5 C81.4046967,22.7 81.2046967,22.9 81.0046967,22.9 C80.8046967,22.9 80.6046967,22.7 80.6046967,22.5 C80.6046967,22.3 80.8046967,22.1 81.0046967,22.1 L81.0046967,22.1 Z M82.5046967,24.7 C82.5046967,25.1 82.8046967,25.4 83.2046967,25.4 C83.7046967,25.4 83.9046967,25.1 83.9046967,24.7 C83.9046967,24.3 83.6046967,24 83.2046967,24 C82.8046967,23.9 82.5046967,24.2 82.5046967,24.7 Z M83.9046967,23.5 L84.5046967,23.5 L84.5046967,27.2 L83.9046967,27.2 L83.9046967,25.7 C83.7046967,25.9 83.4046967,26.1 83.2046967,26.1 C82.5046967,26.1 81.9046967,25.5 81.9046967,24.8 C81.9046967,24.1 82.4046967,23.5 83.2046967,23.5 C83.5046967,23.5 83.8046967,23.7 83.9046967,23.9 C83.9046967,23.7 83.9046967,23.5 83.9046967,23.5 Z M87.5046967,23.4 L87.5046967,25.8 L86.9046967,25.8 L86.9046967,25.5 C86.7046967,25.8 86.4046967,25.9 86.1046967,25.9 C85.8046967,25.9 85.5046967,25.8 85.4046967,25.6 C85.3046967,25.4 85.2046967,25.2 85.2046967,24.9 L85.2046967,23.5 L85.8046967,23.5 L85.8046967,24.8 C85.8046967,25.2 85.9046967,25.5 86.3046967,25.5 C86.7046967,25.5 86.9046967,25.2 86.9046967,24.8 L86.9046967,23.5 L87.5046967,23.5 L87.5046967,23.4 Z M88.7046967,24.4 L89.9046967,24.4 C89.9046967,24.1 89.7046967,23.8 89.3046967,23.8 C88.9046967,23.8 88.7046967,24 88.7046967,24.4 L88.7046967,24.4 Z M88.8046967,23.3 L88.5046967,22.8 L89.8046967,22.1 L90.1046967,22.6 L88.8046967,23.3 Z M88.7046967,24.8 C88.7046967,25.1 88.9046967,25.4 89.3046967,25.4 C89.6046967,25.4 89.8046967,25.2 89.8046967,25.1 L90.4046967,25.1 C90.3046967,25.5 89.9046967,25.9 89.3046967,25.9 C88.5046967,25.9 88.1046967,25.3 88.1046967,24.6 C88.1046967,23.9 88.6046967,23.3 89.3046967,23.3 C89.9046967,23.3 90.4046967,23.8 90.4046967,24.4 C90.4046967,24.5 90.4046967,24.6 90.4046967,24.7 L88.7046967,24.7 L88.7046967,24.8 Z M92.9046967,25.2 C92.9046967,25.7 92.4046967,25.9 91.9046967,25.9 C91.4046967,25.9 90.9046967,25.6 90.9046967,25 L91.5046967,25 C91.5046967,25.3 91.7046967,25.5 92.0046967,25.5 C92.2046967,25.5 92.4046967,25.4 92.4046967,25.2 C92.4046967,25 92.2046967,25 91.7046967,24.7 C91.4046967,24.6 91.1046967,24.5 91.1046967,24 C91.1046967,23.5 91.5046967,23.3 92.0046967,23.3 C92.5046967,23.3 92.9046967,23.6 92.9046967,24.1 L92.3046967,24.1 C92.3046967,23.9 92.2046967,23.7 91.9046967,23.7 C91.7046967,23.7 91.6046967,23.8 91.6046967,24 C91.6046967,24.2 91.8046967,24.2 92.3046967,24.4 C92.6046967,24.6 92.9046967,24.7 92.9046967,25.2 M1.0046967,30.3 L1.0046967,31.3 L1.7046967,31.3 C2.2046967,31.3 2.3046967,31 2.3046967,30.8 C2.3046967,30.6 2.2046967,30.3 1.7046967,30.3 L1.0046967,30.3 L1.0046967,30.3 Z M1.7046967,29.7 C2.2046967,29.7 2.3046967,29.4 2.3046967,29.2 C2.3046967,29 2.2046967,28.7 1.7046967,28.7 L1.0046967,28.7 L1.0046967,29.7 C1.0046967,29.7 1.7046967,29.7 1.7046967,29.7 Z M0.404696696,28.2 L1.7046967,28.2 C2.7046967,28.2 2.8046967,28.8 2.8046967,29.2 C2.8046967,29.7 2.5046967,29.9 2.2046967,30 C2.4046967,30 2.9046967,30.3 2.9046967,30.8 C2.9046967,31.2 2.7046967,31.8 1.7046967,31.8 L0.404696696,31.8 L0.404696696,28.2 Z M4.0046967,30.4 L5.2046967,30.4 C5.2046967,30.1 5.0046967,29.8 4.6046967,29.8 C4.2046967,29.8 4.0046967,30 4.0046967,30.4 L4.0046967,30.4 Z M4.0046967,30.8 C4.0046967,31.1 4.2046967,31.4 4.6046967,31.4 C4.9046967,31.4 5.1046967,31.2 5.1046967,31.1 L5.7046967,31.1 C5.6046967,31.5 5.2046967,31.9 4.6046967,31.9 C3.8046967,31.9 3.4046967,31.3 3.4046967,30.6 C3.4046967,29.9 3.9046967,29.3 4.6046967,29.3 C5.2046967,29.3 5.7046967,29.8 5.7046967,30.4 C5.7046967,30.5 5.7046967,30.6 5.7046967,30.7 L4.0046967,30.7 L4.0046967,30.8 Z M7.9046967,29.9 C7.8046967,29.9 7.7046967,29.9 7.7046967,29.9 C7.2046967,29.9 7.0046967,30.2 7.0046967,30.8 L7.0046967,31.8 L6.4046967,31.8 L6.4046967,29.4 L7.0046967,29.4 L7.0046967,29.8 C7.1046967,29.6 7.4046967,29.4 7.7046967,29.4 C7.8046967,29.4 7.9046967,29.4 7.9046967,29.5 C7.9046967,29.4 7.9046967,29.9 7.9046967,29.9 Z M10.6046967,29.4 L10.6046967,31.8 L10.0046967,31.8 L10.0046967,31.5 C9.8046967,31.8 9.5046967,31.9 9.2046967,31.9 C8.9046967,31.9 8.6046967,31.8 8.5046967,31.6 C8.4046967,31.4 8.3046967,31.2 8.3046967,30.9 L8.3046967,29.5 L8.9046967,29.5 L8.9046967,30.8 C8.9046967,31.2 9.0046967,31.5 9.4046967,31.5 C9.8046967,31.5 10.0046967,31.2 10.0046967,30.8 L10.0046967,29.5 C10.0046967,29.4 10.6046967,29.4 10.6046967,29.4 Z M12.8046967,28.7 C12.7046967,28.7 12.6046967,28.6 12.6046967,28.6 C12.4046967,28.6 12.2046967,28.6 12.2046967,29 L12.2046967,29.3 L12.8046967,29.3 L12.8046967,29.8 L12.2046967,29.8 L12.2046967,31.8 L11.6046967,31.8 L11.6046967,29.8 L11.1046967,29.8 L11.1046967,29.3 L11.6046967,29.3 L11.6046967,29 C11.6046967,28.1 12.2046967,28 12.5046967,28 C12.7046967,28 12.8046967,28.1 12.8046967,28.1 L12.8046967,28.7 L12.8046967,28.7 Z M15.2046967,31.1 C15.2046967,31.6 14.7046967,31.8 14.2046967,31.8 C13.7046967,31.8 13.2046967,31.5 13.2046967,30.9 L13.8046967,30.9 C13.8046967,31.2 14.0046967,31.4 14.3046967,31.4 C14.5046967,31.4 14.7046967,31.3 14.7046967,31.1 C14.7046967,30.9 14.5046967,30.9 14.0046967,30.6 C13.7046967,30.5 13.4046967,30.4 13.4046967,29.9 C13.4046967,29.4 13.8046967,29.2 14.3046967,29.2 C14.8046967,29.2 15.2046967,29.5 15.2046967,30 L14.6046967,30 C14.6046967,29.8 14.5046967,29.6 14.2046967,29.6 C14.0046967,29.6 13.9046967,29.7 13.9046967,29.9 C13.9046967,30.1 14.1046967,30.1 14.6046967,30.3 C14.8046967,30.6 15.2046967,30.7 15.2046967,31.1 M17.2046967,28.7 C17.1046967,28.6 17.0046967,28.6 17.0046967,28.6 C16.8046967,28.6 16.6046967,28.6 16.6046967,29 L16.6046967,29.3 L17.2046967,29.3 L17.2046967,29.8 L16.6046967,29.8 L16.6046967,31.8 L16.0046967,31.8 L16.0046967,29.8 L15.5046967,29.8 L15.5046967,29.3 L16.0046967,29.3 L16.0046967,29 C16.0046967,28.1 16.6046967,28 16.9046967,28 C17.1046967,28 17.2046967,28.1 17.2046967,28.1 L17.2046967,28.7 L17.2046967,28.7 Z M19.6046967,30.6 C19.6046967,30.2 19.3046967,29.9 18.9046967,29.9 C18.5046967,29.9 18.2046967,30.2 18.2046967,30.6 C18.2046967,31 18.5046967,31.3 18.9046967,31.3 C19.3046967,31.4 19.6046967,31 19.6046967,30.6 L19.6046967,30.6 Z M20.1046967,29.4 L20.1046967,31.8 L19.5046967,31.8 L19.5046967,31.5 C19.3046967,31.7 19.0046967,31.9 18.8046967,31.9 C18.1046967,31.9 17.5046967,31.3 17.5046967,30.6 C17.5046967,29.9 18.0046967,29.3 18.8046967,29.3 C19.1046967,29.3 19.4046967,29.5 19.5046967,29.7 L19.5046967,29.4 L20.1046967,29.4 L20.1046967,29.4 Z M22.5046967,30.3 C22.4046967,30 22.3046967,29.8 21.9046967,29.8 C21.4046967,29.8 21.3046967,30.1 21.3046967,30.5 C21.3046967,30.9 21.5046967,31.2 22.0046967,31.2 C22.3046967,31.2 22.5046967,31 22.5046967,30.8 L23.1046967,30.8 C23.0046967,31.3 22.6046967,31.7 22.0046967,31.7 C21.2046967,31.7 20.8046967,31.1 20.8046967,30.4 C20.8046967,29.7 21.2046967,29.1 22.0046967,29.1 C22.8046967,29.1 23.1046967,29.6 23.1046967,30.1 L22.5046967,30.1 L22.5046967,30.3 Z M23.8046967,28.2 L24.4046967,28.2 L24.4046967,29.7 C24.6046967,29.4 24.9046967,29.3 25.2046967,29.3 C25.5046967,29.3 25.8046967,29.4 25.9046967,29.6 C26.0046967,29.8 26.1046967,30 26.1046967,30.3 L26.1046967,31.7 L25.5046967,31.7 L25.5046967,30.4 C25.5046967,30 25.4046967,29.7 25.0046967,29.7 C24.6046967,29.7 24.4046967,30 24.4046967,30.4 L24.4046967,31.7 L23.8046967,31.7 L23.8046967,28.2 L23.8046967,28.2 Z M28.5046967,31.1 C28.5046967,31.6 28.0046967,31.8 27.5046967,31.8 C27.0046967,31.8 26.5046967,31.5 26.5046967,30.9 L27.1046967,30.9 C27.1046967,31.2 27.3046967,31.4 27.6046967,31.4 C27.8046967,31.4 28.0046967,31.3 28.0046967,31.1 C28.0046967,30.9 27.8046967,30.9 27.3046967,30.6 C27.0046967,30.5 26.7046967,30.4 26.7046967,29.9 C26.7046967,29.4 27.1046967,29.2 27.6046967,29.2 C28.1046967,29.2 28.5046967,29.5 28.5046967,30 L27.9046967,30 C27.9046967,29.8 27.8046967,29.6 27.5046967,29.6 C27.3046967,29.6 27.2046967,29.7 27.2046967,29.9 C27.2046967,30.1 27.4046967,30.1 27.9046967,30.3 C28.2046967,30.6 28.5046967,30.7 28.5046967,31.1 M30.8046967,30.3 C30.7046967,30 30.6046967,29.8 30.2046967,29.8 C29.7046967,29.8 29.6046967,30.1 29.6046967,30.5 C29.6046967,30.9 29.8046967,31.2 30.3046967,31.2 C30.6046967,31.2 30.8046967,31 30.8046967,30.8 L31.4046967,30.8 C31.3046967,31.3 30.9046967,31.7 30.3046967,31.7 C29.5046967,31.7 29.1046967,31.1 29.1046967,30.4 C29.1046967,29.7 29.5046967,29.1 30.3046967,29.1 C31.1046967,29.1 31.4046967,29.6 31.4046967,30.1 L30.8046967,30.1 L30.8046967,30.3 Z M32.0046967,28.2 L32.6046967,28.2 L32.6046967,29.7 C32.8046967,29.4 33.1046967,29.3 33.4046967,29.3 C33.7046967,29.3 34.0046967,29.4 34.1046967,29.6 C34.2046967,29.8 34.3046967,30 34.3046967,30.3 L34.3046967,31.7 L33.7046967,31.7 L33.7046967,30.4 C33.7046967,30 33.6046967,29.7 33.2046967,29.7 C32.8046967,29.7 32.6046967,30 32.6046967,30.4 L32.6046967,31.7 L32.0046967,31.7 L32.0046967,28.2 L32.0046967,28.2 Z M37.2046967,29.4 L37.2046967,31.8 L36.6046967,31.8 L36.6046967,31.5 C36.4046967,31.8 36.1046967,31.9 35.8046967,31.9 C35.5046967,31.9 35.2046967,31.8 35.1046967,31.6 C35.0046967,31.4 34.9046967,31.2 34.9046967,30.9 L34.9046967,29.5 L35.5046967,29.5 L35.5046967,30.8 C35.5046967,31.2 35.6046967,31.5 36.0046967,31.5 C36.4046967,31.5 36.6046967,31.2 36.6046967,30.8 L36.6046967,29.5 L37.2046967,29.4 L37.2046967,29.4 Z M38.0046967,31.8 L38.6046967,31.8 L38.6046967,28.1 L38.0046967,28.1 L38.0046967,31.8 Z M39.8046967,30.4 L41.0046967,30.4 C41.0046967,30.1 40.8046967,29.8 40.4046967,29.8 C40.0046967,29.8 39.8046967,30 39.8046967,30.4 L39.8046967,30.4 Z M39.8046967,30.8 C39.8046967,31.1 40.0046967,31.4 40.4046967,31.4 C40.7046967,31.4 40.9046967,31.2 40.9046967,31.1 L41.5046967,31.1 C41.4046967,31.5 41.0046967,31.9 40.4046967,31.9 C39.6046967,31.9 39.2046967,31.3 39.2046967,30.6 C39.2046967,29.9 39.7046967,29.3 40.4046967,29.3 C41.0046967,29.3 41.5046967,29.8 41.5046967,30.4 C41.5046967,30.5 41.5046967,30.6 41.5046967,30.7 L39.8046967,30.7 L39.8046967,30.8 Z M44.7046967,28.7 C44.6046967,28.7 44.5046967,28.6 44.5046967,28.6 C44.3046967,28.6 44.1046967,28.6 44.1046967,29 L44.1046967,29.3 L44.7046967,29.3 L44.7046967,29.8 L44.1046967,29.8 L44.1046967,31.8 L43.5046967,31.8 L43.5046967,29.8 L43.0046967,29.8 L43.0046967,29.3 L43.5046967,29.3 L43.5046967,29 C43.5046967,28.1 44.1046967,28 44.4046967,28 C44.6046967,28 44.7046967,28.1 44.7046967,28.1 L44.7046967,28.7 L44.7046967,28.7 Z M45.7046967,28.2 C45.9046967,28.2 46.1046967,28.4 46.1046967,28.6 C46.1046967,28.8 45.9046967,29 45.7046967,29 C45.5046967,29 45.3046967,28.8 45.3046967,28.6 C45.3046967,28.4 45.5046967,28.2 45.7046967,28.2 Z M47.4046967,31.8 L46.9046967,31.8 L46.9046967,31.5 C46.7046967,31.8 46.4046967,31.9 46.1046967,31.9 C45.8046967,31.9 45.5046967,31.8 45.4046967,31.6 C45.3046967,31.4 45.2046967,31.2 45.2046967,30.9 L45.2046967,29.5 L45.8046967,29.5 L45.8046967,30.8 C45.8046967,31.2 45.9046967,31.5 46.3046967,31.5 C46.7046967,31.5 46.9046967,31.2 46.9046967,30.8 L46.9046967,29.5 L47.5046967,29.5 L47.4046967,31.8 L47.4046967,31.8 Z M49.8046967,29.9 C49.7046967,29.9 49.6046967,29.9 49.6046967,29.9 C49.1046967,29.9 48.9046967,30.2 48.9046967,30.8 L48.9046967,31.8 L48.3046967,31.8 L48.3046967,29.4 L48.9046967,29.4 L48.9046967,29.8 C49.0046967,29.6 49.3046967,29.4 49.6046967,29.4 C49.7046967,29.4 49.8046967,29.4 49.8046967,29.5 C49.8046967,29.4 49.8046967,29.9 49.8046967,29.9 Z M53.5046967,30 L55.2046967,30 L55.2046967,30.5 L54.8046967,30.5 C54.6046967,31.3 54.1046967,31.9 53.0046967,31.9 C51.8046967,31.9 51.1046967,31 51.1046967,30 C51.1046967,29 51.8046967,28.1 53.0046967,28.1 C53.9046967,28.1 54.5046967,28.6 54.5046967,29.3 L53.9046967,29.3 C53.8046967,29 53.4046967,28.7 52.9046967,28.7 C52.1046967,28.7 51.6046967,29.4 51.6046967,30.1 C51.6046967,30.8 52.1046967,31.5 52.9046967,31.5 C53.5046967,31.5 53.9046967,31.1 54.0046967,30.6 L53.3046967,30.6 L53.3046967,30 L53.5046967,30 Z M56.2046967,30.4 L57.4046967,30.4 C57.4046967,30.1 57.2046967,29.8 56.8046967,29.8 C56.5046967,29.8 56.2046967,30 56.2046967,30.4 Z M56.2046967,30.8 C56.2046967,31.1 56.4046967,31.4 56.8046967,31.4 C57.1046967,31.4 57.3046967,31.2 57.3046967,31.1 L57.9046967,31.1 C57.8046967,31.5 57.4046967,31.9 56.8046967,31.9 C56.0046967,31.9 55.6046967,31.3 55.6046967,30.6 C55.6046967,29.9 56.1046967,29.3 56.8046967,29.3 C57.4046967,29.3 57.9046967,29.8 57.9046967,30.4 C57.9046967,30.5 57.9046967,30.6 57.9046967,30.7 L56.2046967,30.7 L56.2046967,30.8 Z M60.4046967,31.1 C60.4046967,31.6 59.9046967,31.8 59.4046967,31.8 C58.9046967,31.8 58.4046967,31.5 58.4046967,30.9 L59.0046967,30.9 C59.0046967,31.2 59.2046967,31.4 59.5046967,31.4 C59.7046967,31.4 59.9046967,31.3 59.9046967,31.1 C59.9046967,30.9 59.7046967,30.9 59.2046967,30.6 C58.9046967,30.5 58.6046967,30.4 58.6046967,29.9 C58.6046967,29.4 59.0046967,29.2 59.5046967,29.2 C60.0046967,29.2 60.4046967,29.5 60.4046967,30 L59.8046967,30 C59.8046967,29.8 59.7046967,29.6 59.4046967,29.6 C59.2046967,29.6 59.1046967,29.7 59.1046967,29.9 C59.1046967,30.1 59.3046967,30.1 59.8046967,30.3 C60.1046967,30.6 60.4046967,30.7 60.4046967,31.1 M62.4046967,31.8 C62.3046967,31.8 62.1046967,31.9 62.0046967,31.9 C61.7046967,31.9 61.2046967,31.8 61.2046967,31 L61.2046967,29.9 L60.8046967,29.9 L60.8046967,29.4 L61.2046967,29.4 L61.2046967,28.7 L61.8046967,28.7 L61.8046967,29.4 L62.4046967,29.4 L62.4046967,29.9 L61.8046967,29.9 L61.8046967,30.9 C61.8046967,31.3 61.9046967,31.4 62.1046967,31.4 C62.2046967,31.4 62.3046967,31.4 62.4046967,31.4 C62.4046967,31.4 62.4046967,31.8 62.4046967,31.8 Z M64.7046967,30.6 C64.7046967,30.2 64.4046967,29.9 64.0046967,29.9 C63.6046967,29.9 63.3046967,30.2 63.3046967,30.6 C63.3046967,31 63.6046967,31.3 64.0046967,31.3 C64.5046967,31.4 64.7046967,31 64.7046967,30.6 Z M65.3046967,29.4 L65.3046967,31.8 L64.7046967,31.8 L64.7046967,31.5 C64.5046967,31.7 64.2046967,31.9 64.0046967,31.9 C63.3046967,31.9 62.7046967,31.3 62.7046967,30.6 C62.7046967,29.9 63.2046967,29.3 64.0046967,29.3 C64.3046967,29.3 64.6046967,29.5 64.7046967,29.7 L64.7046967,29.4 C64.7046967,29.4 65.3046967,29.4 65.3046967,29.4 Z M66.1046967,31.8 L66.7046967,31.8 L66.7046967,28.1 L66.1046967,28.1 L66.1046967,31.8 Z M68.9046967,31.8 C68.8046967,31.8 68.6046967,31.9 68.5046967,31.9 C68.2046967,31.9 67.7046967,31.8 67.7046967,31 L67.7046967,29.9 L67.3046967,29.9 L67.3046967,29.4 L67.7046967,29.4 L67.7046967,28.7 L68.3046967,28.7 L68.3046967,29.4 L68.9046967,29.4 L68.9046967,29.9 L68.3046967,29.9 L68.3046967,30.9 C68.3046967,31.3 68.4046967,31.4 68.6046967,31.4 C68.7046967,31.4 68.8046967,31.4 68.9046967,31.4 L68.9046967,31.8 L68.9046967,31.8 Z M71.5046967,29.4 L71.5046967,31.8 L70.9046967,31.8 L70.9046967,31.5 C70.7046967,31.8 70.4046967,31.9 70.1046967,31.9 C69.8046967,31.9 69.5046967,31.8 69.4046967,31.6 C69.3046967,31.4 69.2046967,31.2 69.2046967,30.9 L69.2046967,29.5 L69.8046967,29.5 L69.8046967,30.8 C69.8046967,31.2 69.9046967,31.5 70.3046967,31.5 C70.7046967,31.5 70.9046967,31 70.9046967,30.6 L70.9046967,29.3 C71.0046967,29.4 71.5046967,29.4 71.5046967,29.4 Z M72.3046967,29.4 L72.9046967,29.4 L72.9046967,29.7 C73.1046967,29.4 73.4046967,29.3 73.7046967,29.3 C74.0046967,29.3 74.3046967,29.4 74.4046967,29.6 C74.5046967,29.8 74.6046967,30 74.6046967,30.3 L74.6046967,31.7 L74.0046967,31.7 L74.0046967,30.4 C74.0046967,30 73.9046967,29.7 73.5046967,29.7 C73.1046967,29.7 72.9046967,30 72.9046967,30.4 L72.9046967,31.7 L72.3046967,31.7 C72.3046967,31.8 72.3046967,29.4 72.3046967,29.4 Z M75.7046967,30.6 C75.7046967,31 76.0046967,31.3 76.4046967,31.3 C76.9046967,31.3 77.1046967,31 77.1046967,30.6 C77.1046967,30.2 76.8046967,29.9 76.4046967,29.9 C76.0046967,29.9 75.7046967,30.2 75.7046967,30.6 Z M77.7046967,31.9 C77.7046967,32.3 77.6046967,32.6 77.4046967,32.8 C77.2046967,33 76.8046967,33.1 76.4046967,33.1 C76.0046967,33.1 75.7046967,33 75.5046967,32.8 C75.3046967,32.6 75.2046967,32.4 75.2046967,32.1 L75.8046967,32.1 C75.9046967,32.4 76.0046967,32.6 76.4046967,32.6 C76.9046967,32.6 77.1046967,32.4 77.1046967,32 L77.1046967,31.5 C76.9046967,31.7 76.6046967,31.9 76.4046967,31.9 C75.7046967,31.9 75.1046967,31.3 75.1046967,30.6 C75.1046967,29.9 75.6046967,29.3 76.4046967,29.3 C76.7046967,29.3 77.0046967,29.5 77.1046967,29.7 L77.1046967,29.4 L77.7046967,29.4 C77.7046967,29.4 77.7046967,31.9 77.7046967,31.9 Z M1.7046967,37.9 L1.3046967,37.9 L0.00469669574,34.2 L0.604696696,34.2 L1.5046967,36.8 L2.4046967,34.2 L3.0046967,34.2 L1.7046967,37.9 Z M5.0046967,36.6 C5.0046967,36.2 4.7046967,35.9 4.3046967,35.9 C3.9046967,35.9 3.6046967,36.2 3.6046967,36.6 C3.6046967,37 3.9046967,37.3 4.3046967,37.3 C4.7046967,37.4 5.0046967,37 5.0046967,36.6 M3.0046967,36.6 C3.0046967,35.9 3.5046967,35.3 4.3046967,35.3 C5.1046967,35.3 5.6046967,35.9 5.6046967,36.6 C5.6046967,37.3 5.1046967,37.9 4.3046967,37.9 C3.5046967,37.9 3.0046967,37.3 3.0046967,36.6 M7.9046967,36.3 C7.8046967,36 7.7046967,35.8 7.3046967,35.8 C6.8046967,35.8 6.7046967,36.1 6.7046967,36.5 C6.7046967,36.9 6.9046967,37.2 7.4046967,37.2 C7.7046967,37.2 7.9046967,37 7.9046967,36.8 L8.5046967,36.8 C8.4046967,37.3 8.0046967,37.7 7.4046967,37.7 C6.6046967,37.7 6.2046967,37.1 6.2046967,36.4 C6.2046967,35.7 6.6046967,35.1 7.4046967,35.1 C8.2046967,35.1 8.5046967,35.6 8.5046967,36.1 L7.9046967,36.1 L7.9046967,36.3 Z M10.9046967,36.6 C10.9046967,36.2 10.6046967,35.9 10.2046967,35.9 C9.8046967,35.9 9.5046967,36.2 9.5046967,36.6 C9.5046967,37 9.8046967,37.3 10.2046967,37.3 C10.6046967,37.4 10.9046967,37 10.9046967,36.6 Z M11.5046967,35.4 L11.5046967,37.9 L10.9046967,37.9 L10.9046967,37.6 C10.7046967,37.8 10.4046967,38 10.2046967,38 C9.5046967,38 8.9046967,37.4 8.9046967,36.7 C8.9046967,36 9.4046967,35.4 10.2046967,35.4 C10.5046967,35.4 10.8046967,35.6 10.9046967,35.8 L10.9046967,35.5 L11.5046967,35.4 L11.5046967,35.4 Z M13.6046967,37.9 C13.5046967,37.9 13.3046967,38 13.2046967,38 C12.9046967,38 12.4046967,37.9 12.4046967,37.1 L12.4046967,36 L12.0046967,36 L12.0046967,35.5 L12.4046967,35.5 L12.4046967,34.8 L12.9046967,34.8 L12.9046967,35.5 L13.5046967,35.5 L13.5046967,36 L12.9046967,36 L12.9046967,37 C12.9046967,37.4 13.0046967,37.5 13.2046967,37.5 C13.3046967,37.5 13.4046967,37.5 13.5046967,37.5 L13.5046967,37.9 L13.6046967,37.9 Z M14.1046967,37.9 L14.7046967,37.9 L14.7046967,35.5 L14.1046967,35.5 L14.1046967,37.9 Z M14.4046967,34.1 C14.6046967,34.1 14.9046967,34.3 14.9046967,34.5 C14.9046967,34.7 14.7046967,35 14.4046967,35 L14.3046967,35 C14.1046967,35 13.9046967,34.8 13.9046967,34.5 C14.0046967,34.3 14.2046967,34.1 14.4046967,34.1 L14.4046967,34.1 Z M17.3046967,36.6 C17.3046967,36.2 17.0046967,35.9 16.6046967,35.9 C16.2046967,35.9 15.9046967,36.2 15.9046967,36.6 C15.9046967,37 16.2046967,37.3 16.6046967,37.3 C17.0046967,37.4 17.3046967,37 17.3046967,36.6 M15.3046967,36.6 C15.3046967,35.9 15.8046967,35.3 16.6046967,35.3 C17.4046967,35.3 17.9046967,35.9 17.9046967,36.6 C17.9046967,37.3 17.4046967,37.9 16.6046967,37.9 C15.8046967,37.9 15.3046967,37.3 15.3046967,36.6 M18.5046967,35.4 L19.1046967,35.4 L19.1046967,35.7 C19.3046967,35.4 19.6046967,35.3 19.9046967,35.3 C20.2046967,35.3 20.5046967,35.4 20.6046967,35.6 C20.7046967,35.8 20.8046967,36 20.8046967,36.3 L20.8046967,37.7 L20.2046967,37.7 L20.2046967,36.4 C20.2046967,36 20.1046967,35.7 19.7046967,35.7 C19.3046967,35.7 19.1046967,36 19.1046967,36.4 L19.1046967,37.7 L18.5046967,37.7 C18.5046967,37.9 18.5046967,35.4 18.5046967,35.4 Z M23.3046967,36.6 C23.3046967,36.2 23.0046967,35.9 22.6046967,35.9 C22.2046967,35.9 21.9046967,36.2 21.9046967,36.6 C21.9046967,37 22.2046967,37.3 22.6046967,37.3 C23.0046967,37.4 23.3046967,37 23.3046967,36.6 Z M23.8046967,35.4 L23.8046967,37.9 L23.2046967,37.9 L23.2046967,37.6 C23.0046967,37.8 22.7046967,38 22.5046967,38 C21.8046967,38 21.2046967,37.4 21.2046967,36.7 C21.2046967,36 21.7046967,35.4 22.5046967,35.4 C22.8046967,35.4 23.1046967,35.6 23.2046967,35.8 L23.2046967,35.5 L23.8046967,35.4 L23.8046967,35.4 Z M24.6046967,37.9 L25.2046967,37.9 L25.2046967,34.2 L24.6046967,34.2 L24.6046967,37.9 Z M27.6046967,36.6 C27.6046967,37.1 27.9046967,37.3 28.3046967,37.3 C28.6046967,37.3 28.9046967,37.1 28.9046967,36.8 C28.9046967,36.5 28.6046967,36.3 28.3046967,36.2 C27.6046967,36 27.1046967,35.7 27.1046967,35.1 C27.1046967,34.5 27.6046967,34.1 28.2046967,34.1 C28.8046967,34.1 29.3046967,34.6 29.3046967,35.2 L28.7046967,35.2 C28.7046967,34.9 28.5046967,34.6 28.1046967,34.6 C27.8046967,34.6 27.5046967,34.8 27.5046967,35.1 C27.5046967,35.4 27.8046967,35.6 28.0046967,35.6 C28.6046967,35.8 29.3046967,36.1 29.3046967,36.7 C29.3046967,37.4 28.7046967,37.8 28.0046967,37.8 C27.3046967,37.8 26.7046967,37.3 26.7046967,36.5 C27.0046967,36.6 27.6046967,36.6 27.6046967,36.6 Z M31.8046967,36.3 C31.7046967,36 31.6046967,35.8 31.2046967,35.8 C30.7046967,35.8 30.6046967,36.1 30.6046967,36.5 C30.6046967,36.9 30.8046967,37.2 31.3046967,37.2 C31.6046967,37.2 31.8046967,37 31.8046967,36.8 L32.4046967,36.8 C32.3046967,37.3 31.9046967,37.7 31.3046967,37.7 C30.5046967,37.7 30.1046967,37.1 30.1046967,36.4 C30.1046967,35.7 30.5046967,35.1 31.3046967,35.1 C32.1046967,35.1 32.4046967,35.6 32.4046967,36.1 L31.8046967,36.1 L31.8046967,36.3 Z M33.0046967,34.2 L33.6046967,34.2 L33.6046967,35.7 C33.8046967,35.4 34.1046967,35.3 34.4046967,35.3 C34.7046967,35.3 35.0046967,35.4 35.1046967,35.6 C35.2046967,35.8 35.3046967,36 35.3046967,36.3 L35.3046967,37.7 L34.7046967,37.7 L34.7046967,36.4 C34.7046967,36 34.6046967,35.7 34.2046967,35.7 C33.8046967,35.7 33.6046967,36 33.6046967,36.4 L33.6046967,37.7 L33.0046967,37.7 L33.0046967,34.2 L33.0046967,34.2 Z M37.8046967,36.6 C37.8046967,36.2 37.5046967,35.9 37.1046967,35.9 C36.7046967,35.9 36.4046967,36.2 36.4046967,36.6 C36.4046967,37 36.7046967,37.3 37.1046967,37.3 C37.6046967,37.4 37.8046967,37 37.8046967,36.6 M35.9046967,36.6 C35.9046967,35.9 36.4046967,35.3 37.2046967,35.3 C38.0046967,35.3 38.5046967,35.9 38.5046967,36.6 C38.5046967,37.3 38.0046967,37.9 37.2046967,37.9 C36.3046967,37.9 35.9046967,37.3 35.9046967,36.6 M40.8046967,36.6 C40.8046967,36.2 40.5046967,35.9 40.1046967,35.9 C39.7046967,35.9 39.4046967,36.2 39.4046967,36.6 C39.4046967,37 39.7046967,37.3 40.1046967,37.3 C40.6046967,37.4 40.8046967,37 40.8046967,36.6 M38.9046967,36.6 C38.9046967,35.9 39.4046967,35.3 40.2046967,35.3 C41.0046967,35.3 41.5046967,35.9 41.5046967,36.6 C41.5046967,37.3 41.0046967,37.9 40.2046967,37.9 C39.3046967,37.9 38.9046967,37.3 38.9046967,36.6 M42.1046967,37.9 L42.7046967,37.9 L42.7046967,34.2 L42.1046967,34.2 L42.1046967,37.9 Z M46.3046967,36.6 C46.3046967,36.2 46.0046967,35.9 45.6046967,35.9 C45.2046967,35.9 44.9046967,36.2 44.9046967,36.6 C44.9046967,37 45.2046967,37.3 45.6046967,37.3 C46.1046967,37.4 46.3046967,37 46.3046967,36.6 M44.4046967,36.6 C44.4046967,35.9 44.9046967,35.3 45.7046967,35.3 C46.5046967,35.3 47.0046967,35.9 47.0046967,36.6 C47.0046967,37.3 46.5046967,37.9 45.7046967,37.9 C44.9046967,37.9 44.4046967,37.3 44.4046967,36.6 M49.0046967,34.7 C48.9046967,34.7 48.8046967,34.6 48.8046967,34.6 C48.6046967,34.6 48.4046967,34.6 48.4046967,35 L48.4046967,35.3 L49.0046967,35.3 L49.0046967,35.8 L48.4046967,35.8 L48.4046967,37.8 L47.8046967,37.8 L47.8046967,35.9 L47.3046967,35.9 L47.3046967,35.4 L47.8046967,35.4 L47.8046967,35.1 C47.8046967,34.2 48.4046967,34.1 48.7046967,34.1 C48.9046967,34.1 49.0046967,34.2 49.0046967,34.2 L49.0046967,34.7 L49.0046967,34.7 Z M51.7046967,35.2 L51.2046967,36.9 L52.2046967,36.9 L51.7046967,35.2 Z M52.6046967,37.9 L52.4046967,37.4 L51.0046967,37.4 L50.8046967,37.9 L50.2046967,37.9 L51.5046967,34.2 L51.9046967,34.2 L53.2046967,37.9 L52.6046967,37.9 Z M54.2046967,36.6 C54.2046967,37 54.5046967,37.3 54.9046967,37.3 C55.3046967,37.3 55.6046967,37 55.6046967,36.6 C55.6046967,36.2 55.3046967,35.9 54.9046967,35.9 C54.5046967,35.8 54.2046967,36.2 54.2046967,36.6 L54.2046967,36.6 Z M54.2046967,35.7 C54.4046967,35.5 54.7046967,35.3 54.9046967,35.3 C55.6046967,35.3 56.2046967,35.9 56.2046967,36.6 C56.2046967,37.3 55.7046967,37.9 54.9046967,37.9 C54.6046967,37.9 54.3046967,37.7 54.2046967,37.5 L54.2046967,39 L53.6046967,39 L53.6046967,35.3 L54.2046967,35.3 L54.2046967,35.7 L54.2046967,35.7 Z M57.4046967,36.6 C57.4046967,37 57.7046967,37.3 58.1046967,37.3 C58.5046967,37.3 58.8046967,37 58.8046967,36.6 C58.8046967,36.2 58.5046967,35.9 58.1046967,35.9 C57.7046967,35.8 57.4046967,36.2 57.4046967,36.6 Z M57.4046967,35.7 C57.6046967,35.5 57.9046967,35.3 58.1046967,35.3 C58.8046967,35.3 59.4046967,35.9 59.4046967,36.6 C59.4046967,37.3 58.9046967,37.9 58.1046967,37.9 C57.8046967,37.9 57.5046967,37.7 57.4046967,37.5 L57.4046967,39 L56.8046967,39 L56.8046967,35.3 L57.4046967,35.3 L57.4046967,35.7 Z M60.0046967,37.9 L60.6046967,37.9 L60.6046967,34.2 L60.0046967,34.2 L60.0046967,37.9 Z M61.4046967,37.9 L62.0046967,37.9 L62.0046967,35.5 L61.4046967,35.5 L61.4046967,37.9 Z M61.7046967,34.1 C61.9046967,34.1 62.1046967,34.3 62.2046967,34.5 C62.2046967,34.7 62.0046967,34.9 61.8046967,35 C61.8046967,35 61.8046967,35 61.7046967,35 C61.5046967,35 61.3046967,34.8 61.3046967,34.6 C61.2046967,34.3 61.4046967,34.1 61.7046967,34.1 L61.7046967,34.1 L61.7046967,34.1 Z M63.2046967,36.4 L64.4046967,36.4 C64.4046967,36.1 64.2046967,35.8 63.8046967,35.8 C63.4046967,35.8 63.2046967,36 63.2046967,36.4 L63.2046967,36.4 Z M63.2046967,36.8 C63.2046967,37.1 63.4046967,37.4 63.8046967,37.4 C64.1046967,37.4 64.3046967,37.2 64.3046967,37.1 L64.9046967,37.1 C64.8046967,37.5 64.4046967,37.9 63.8046967,37.9 C63.0046967,37.9 62.6046967,37.3 62.6046967,36.6 C62.6046967,35.9 63.1046967,35.3 63.8046967,35.3 C64.4046967,35.3 64.9046967,35.8 64.9046967,36.4 C64.9046967,36.5 64.9046967,36.6 64.9046967,36.7 C64.9046967,36.8 63.2046967,36.8 63.2046967,36.8 Z M67.4046967,36.6 C67.4046967,36.2 67.1046967,35.9 66.7046967,35.9 C66.3046967,35.9 66.0046967,36.2 66.0046967,36.6 C66.0046967,37 66.3046967,37.3 66.7046967,37.3 C67.1046967,37.4 67.4046967,37 67.4046967,36.6 L67.4046967,36.6 Z M67.4046967,37.5 C67.2046967,37.7 66.9046967,37.9 66.7046967,37.9 C66.0046967,37.9 65.4046967,37.3 65.4046967,36.6 C65.4046967,35.9 65.9046967,35.3 66.7046967,35.3 C67.0046967,35.3 67.3046967,35.5 67.4046967,35.7 L67.4046967,34.2 L67.9046967,34.2 L67.9046967,37.8 L67.3046967,37.8 L67.3046967,37.5 L67.4046967,37.5 Z M71.0046967,35.2 L70.5046967,36.9 L71.5046967,36.9 L71.0046967,35.2 Z M71.8046967,37.9 L71.6046967,37.4 L70.2046967,37.4 L70.0046967,37.9 L69.4046967,37.9 L70.7046967,34.2 L71.1046967,34.2 L72.4046967,37.9 C72.4046967,37.9 71.8046967,37.9 71.8046967,37.9 Z M74.4046967,36 C74.3046967,36 74.2046967,36 74.2046967,36 C73.7046967,36 73.5046967,36.3 73.5046967,36.9 L73.5046967,37.9 L72.9046967,37.9 L72.9046967,35.5 L73.5046967,35.5 L73.5046967,35.9 C73.6046967,35.7 73.9046967,35.5 74.2046967,35.5 C74.3046967,35.5 74.4046967,35.5 74.4046967,35.6 C74.4046967,35.4 74.4046967,36 74.4046967,36 Z M76.4046967,37.9 C76.3046967,37.9 76.1046967,38 76.0046967,38 C75.7046967,38 75.2046967,37.9 75.2046967,37.1 L75.2046967,36 L74.8046967,36 L74.8046967,35.5 L75.2046967,35.5 L75.2046967,34.8 L75.8046967,34.8 L75.8046967,35.5 L76.4046967,35.5 L76.4046967,36 L75.8046967,36 L75.8046967,37 C75.8046967,37.4 75.9046967,37.5 76.1046967,37.5 C76.2046967,37.5 76.3046967,37.5 76.4046967,37.5 L76.4046967,37.9 L76.4046967,37.9 Z M78.8046967,37.2 C78.8046967,37.7 78.3046967,37.9 77.8046967,37.9 C77.3046967,37.9 76.8046967,37.6 76.8046967,37 L77.4046967,37 C77.4046967,37.3 77.6046967,37.5 77.9046967,37.5 C78.1046967,37.5 78.3046967,37.4 78.3046967,37.2 C78.3046967,37 78.1046967,37 77.6046967,36.7 C77.3046967,36.6 77.0046967,36.5 77.0046967,36 C77.0046967,35.5 77.4046967,35.3 77.9046967,35.3 C78.4046967,35.3 78.8046967,35.6 78.8046967,36.1 L78.2046967,36.1 C78.2046967,35.9 78.1046967,35.7 77.8046967,35.7 C77.6046967,35.7 77.5046967,35.8 77.5046967,36 C77.5046967,36.2 77.7046967,36.2 78.2046967,36.4 C78.4046967,36.6 78.8046967,36.7 78.8046967,37.2 M6.3046967,8 C6.3046967,6.7 5.4046967,6 4.2046967,6 C3.0046967,6 2.1046967,6.7 2.1046967,8 L6.3046967,8 L6.3046967,8 Z M4.2046967,4.2 C6.5046967,4.2 8.3046967,5.9 8.3046967,8.2 C8.3046967,8.5 8.3046967,8.9 8.2046967,9.5 L2.0046967,9.5 C2.0046967,10.8 2.7046967,11.8 4.3046967,11.8 C5.5046967,11.8 5.9046967,11.3 6.2046967,10.7 L8.3046967,10.7 C8.0046967,12.2 6.6046967,13.6 4.4046967,13.6 C1.4046967,13.6 0.00469669574,11.4 0.00469669574,9 C-0.0953033043,6.3 1.4046967,4.2 4.2046967,4.2 L4.2046967,4.2 Z M10.1046967,13.3 L12.2046967,13.3 L12.2046967,4.5 L10.1046967,4.5 L10.1046967,13.3 L10.1046967,13.3 Z M11.1046967,0 C11.8046967,0 12.5046967,0.6 12.5046967,1.4 L12.5046967,1.4 C12.5046967,2.1 11.9046967,2.8 11.1046967,2.8 C10.4046967,2.8 9.7046967,2.2 9.7046967,1.4 C9.7046967,0.6 10.4046967,0 11.1046967,0 Z M14.4046967,13.3 L14.4046967,0.1 L16.5046967,0.1 L16.5046967,8.5 L19.7046967,4.6 L22.3046967,4.6 L18.7046967,9 L22.3046967,13.4 L19.7046967,13.4 L16.5046967,9.4 L16.5046967,13.3 L14.4046967,13.3 Z" id="Shape_00000045581010842488574240000001807921959934268800_"></path>
                <path d="M26.7046967,11.7 C28.2046967,11.7 29.3046967,10.4 29.3046967,8.9 C29.3046967,7.4 28.3046967,6.1 26.7046967,6.1 C25.2046967,6.1 24.1046967,7.4 24.1046967,8.9 C24.2046967,10.4 25.2046967,11.7 26.7046967,11.7 M26.7046967,4.2 C29.5046967,4.2 31.4046967,6.3 31.4046967,8.8 C31.4046967,11.3 29.6046967,13.4 26.7046967,13.4 C23.9046967,13.4 22.1046967,11.3 22.1046967,8.8 C22.1046967,6.4 23.9046967,4.2 26.7046967,4.2 M32.9046967,13.3 L32.9046967,4.5 L34.9046967,4.5 L34.9046967,5.8 C35.5046967,4.8 36.4046967,4.3 37.7046967,4.3 C39.0046967,4.3 39.8046967,4.8 40.3046967,5.5 C40.8046967,6.2 40.9046967,6.9 40.9046967,8.1 L40.9046967,13.4 L38.9046967,13.4 L38.9046967,8.8 C38.9046967,7.3 38.4046967,6.1 37.0046967,6.1 C35.6046967,6.1 34.9046967,7.2 34.9046967,8.8 L34.9046967,13.4 C35.0046967,13.3 32.9046967,13.3 32.9046967,13.3 Z M18.0046967,14.7 L0.204696696,14.7 L0.204696696,15.7 L18.4046967,15.7 L18.0046967,14.7 Z M19.3046967,14.7 L19.8046967,15.7 L41.3046967,15.7 L41.3046967,14.7 L19.3046967,14.7 Z" id="Shape_00000170960299839681383290000003875040646999974283_"></path>
            </g>
        </g>
    </g>
</svg>