<?xml version="1.0" encoding="UTF-8"?>
<svg width="88px" height="31px" viewBox="0 0 88 31" version="1.1" xmlns="http://www.w3.org/2000/svg" xmlns:xlink="http://www.w3.org/1999/xlink">
    <title>partenaire-loterie</title>
    <g id="Page-1" stroke="none" stroke-width="1" fill="none" fill-rule="evenodd">
        <g id="partenaire-loterie" fill="#5E8216" fill-rule="nonzero">
            <path d="M6.4,14.1 C6.4,10.7 9.1,7.9 12.5,7.9 C15.9,7.9 18.6,10.7 18.6,14.1 C18.6,17.5 15.9,20.3 12.5,20.3 C9.2,20.3 6.4,17.5 6.4,14.1 Z M88,0 L88,31 L0,31 L0,0 L88,0 Z M2.9,12.1 C2.9,17.5 7.2,21.9 12.6,21.9 C18,21.9 22.3,17.5 22.3,12.1 C22.3,6.7 18,2.3 12.6,2.3 C7.2,2.3 2.9,6.7 2.9,12.1 Z M0.7,5 C1.7,3.3 3.1,1.8 4.7,0.7 L0.7,0.7 L0.7,5 Z M87.3,0.7 L20.5,0.7 C24.1,3.2 26.4,7.4 26.4,12.1 C26.4,19.8 20.2,26.1 12.6,26.1 C7.5,26.1 3.1,23.3 0.7,19.2 L0.7,30.3 L87.4,30.3 L87.4,0.7 L87.3,0.7 Z M39.1,6.3 L41.5,6.3 L41.5,11.5 L44,11.5 L44,13.6 L39.2,13.6 L39.2,6.3 L39.1,6.3 Z M44.9,9.9 C44.9,9.3 45,8.8 45.2,8.3 C45.4,7.8 45.7,7.4 46,7.1 C46.4,6.8 46.8,6.5 47.3,6.3 C47.8,6.1 48.3,6 48.9,6 C49.5,6 50,6.1 50.5,6.3 C51,6.5 51.4,6.7 51.8,7.1 C52.2,7.4 52.4,7.8 52.6,8.3 C52.8,8.8 52.9,9.3 52.9,9.9 C52.9,10.5 52.8,11 52.6,11.5 C52.4,12 52.1,12.4 51.8,12.7 C51.4,13 51,13.3 50.5,13.5 C50,13.7 49.5,13.8 48.9,13.8 C48.3,13.8 47.8,13.7 47.3,13.5 C46.8,13.3 46.4,13 46,12.7 C45.6,12.4 45.4,11.9 45.2,11.5 C45,11 44.9,10.4 44.9,9.9 Z M47.4,9.9 C47.4,10.1 47.4,10.4 47.5,10.6 C47.6,10.8 47.7,11 47.8,11.1 C47.9,11.2 48.1,11.4 48.3,11.4 C48.5,11.5 48.7,11.5 48.9,11.5 C49.1,11.5 49.3,11.5 49.5,11.4 C49.7,11.3 49.8,11.2 50,11.1 C50.1,11 50.2,10.8 50.3,10.6 C50.4,10.4 50.4,10.2 50.4,9.9 C50.4,9.7 50.4,9.5 50.3,9.3 C50.1,9 50,8.8 49.9,8.7 C49.8,8.6 49.6,8.5 49.4,8.4 C49.2,8.3 49,8.3 48.8,8.3 C48.6,8.3 48.4,8.3 48.2,8.4 C48,8.5 47.9,8.6 47.7,8.7 C47.6,8.8 47.5,9 47.4,9.2 C47.5,9.4 47.4,9.6 47.4,9.9 Z M57.9,13.5 L55.5,13.5 L55.5,8.3 L53.7,8.3 L53.7,6.3 L59.7,6.3 L59.7,8.4 L57.9,8.4 L57.9,13.5 L57.9,13.5 Z M61,6.3 L66,6.3 L66,8.3 L63.3,8.3 L63.3,8.9 L65.8,8.9 L65.8,10.8 L63.3,10.8 L63.3,11.5 L66.2,11.5 L66.2,13.5 L61,13.5 L61,6.3 L61,6.3 Z M67.7,6.3 L70.8,6.3 C71.2,6.3 71.5,6.3 71.9,6.4 C72.3,6.5 72.6,6.6 72.8,6.8 C73.1,7 73.3,7.2 73.5,7.5 C73.7,7.8 73.7,8.2 73.7,8.6 C73.7,9 73.6,9.4 73.4,9.8 C73.2,10.1 72.9,10.4 72.5,10.6 L74.3,13.5 L71.5,13.5 L70.1,10.9 L70,10.9 L70,13.5 L67.7,13.5 L67.7,6.3 L67.7,6.3 Z M70,9.3 L70.5,9.3 C70.6,9.3 70.7,9.3 70.8,9.3 C70.9,9.3 71,9.3 71.1,9.2 C71.2,9.2 71.3,9.1 71.3,9 C71.4,8.9 71.4,8.8 71.4,8.7 C71.4,8.6 71.4,8.5 71.3,8.4 C71.2,8.3 71.2,8.3 71.1,8.2 C71,8.2 70.9,8.1 70.9,8.1 C70.8,8.1 70.7,8.1 70.7,8.1 L70,8.1 L70,9.3 L70,9.3 Z M75.2,6.3 L77.6,6.3 L77.6,13.6 L75.2,13.6 L75.2,6.3 Z M79.2,6.3 L84.2,6.3 L84.2,8.3 L81.5,8.3 L81.5,8.9 L84,8.9 L84,10.8 L81.5,10.8 L81.5,11.5 L84.4,11.5 L84.4,13.5 L79.3,13.5 L79.2,6.3 L79.2,6.3 Z M28.4,16.9 L31.5,16.9 C31.9,16.9 32.2,16.9 32.6,17 C32.9,17.1 33.3,17.2 33.5,17.4 C33.8,17.6 34,17.8 34.2,18.1 C34.4,18.4 34.4,18.8 34.4,19.2 C34.4,19.6 34.3,20 34.1,20.4 C33.9,20.7 33.6,21 33.2,21.2 L35,24.1 L32.2,24.1 L30.8,21.5 L30.7,21.5 L30.7,24.1 L28.4,24.1 L28.4,16.9 L28.4,16.9 Z M30.7,19.9 L31.2,19.9 C31.3,19.9 31.4,19.9 31.5,19.9 C31.6,19.9 31.7,19.9 31.8,19.8 C31.9,19.8 32,19.7 32,19.6 C32,19.5 32.1,19.4 32.1,19.3 C32.1,19.2 32.1,19.1 32,19 C31.9,18.9 31.9,18.9 31.8,18.8 C31.7,18.8 31.6,18.7 31.6,18.7 C31.5,18.7 31.4,18.7 31.4,18.7 L30.8,18.7 L30.7,19.9 L30.7,19.9 Z M35.3,20.5 C35.3,19.9 35.4,19.4 35.6,18.9 C35.8,18.4 36.1,18 36.4,17.7 C36.8,17.4 37.2,17.1 37.7,16.9 C38.2,16.7 38.7,16.6 39.3,16.6 C39.9,16.6 40.4,16.7 40.9,16.9 C41.4,17.1 41.8,17.3 42.2,17.7 C42.6,18 42.8,18.4 43,18.9 C43.2,19.4 43.3,19.9 43.3,20.5 C43.3,21.1 43.2,21.6 43,22.1 C42.8,22.6 42.5,23 42.2,23.3 C41.8,23.6 41.4,23.9 40.9,24.1 C40.4,24.3 39.9,24.4 39.3,24.4 C38.7,24.4 38.2,24.3 37.7,24.1 C37.2,23.9 36.8,23.7 36.4,23.3 C36,23 35.8,22.5 35.6,22.1 C35.4,21.6 35.3,21.1 35.3,20.5 Z M37.9,20.5 C37.9,20.7 37.9,21 38,21.2 C38.1,21.4 38.2,21.6 38.3,21.7 C38.4,21.8 38.6,22 38.8,22 C39,22.1 39.2,22.1 39.4,22.1 C39.6,22.1 39.8,22.1 40,22 C40.2,21.9 40.3,21.8 40.5,21.7 C40.6,21.6 40.7,21.4 40.8,21.2 C40.9,21 40.9,20.8 40.9,20.5 C40.9,20.3 40.9,20.1 40.8,19.9 C40.7,19.7 40.6,19.5 40.5,19.4 C40.4,19.3 40.2,19.2 40,19.1 C39.8,19 39.6,19 39.4,19 C39.2,19 39,19 38.8,19.1 C38.6,19.2 38.5,19.3 38.3,19.4 C38.2,19.5 38.1,19.7 38,19.9 C37.9,20 37.9,20.2 37.9,20.5 Z M46.5,20 L46.6,24.1 L44.3,24.1 L44.3,16.8 L47.5,16.8 L48.8,20.7 L48.8,20.7 L49.9,16.8 L53.2,16.8 L53.2,24.1 L50.8,24.1 L50.9,20 L50.8,20 L49.5,24.1 L47.8,24.1 L46.5,20 L46.5,20 L46.5,20 Z M56.9,16.9 L59.5,16.9 L62.3,24.2 L59.7,24.2 L59.3,23.1 L57,23.1 L56.6,24.2 L54,24.2 L56.9,16.9 Z M58.2,19.4 L57.6,21.2 L58.8,21.2 L58.2,19.4 Z M63.1,16.9 L65.5,16.9 L67.5,20.6 L67.5,20.6 L67.4,16.9 L69.7,16.9 L69.7,24.2 L67.2,24.2 L65.2,20.7 L65.2,20.7 L65.3,24.2 L63,24.2 L63,16.9 L63.1,16.9 Z M71.2,24.1 L71.2,16.8 L73.9,16.8 C74.5,16.8 75,16.9 75.5,17 C76,17.1 76.5,17.3 76.9,17.6 C77.3,17.9 77.6,18.2 77.8,18.7 C78,19.2 78.2,19.7 78.2,20.4 C78.2,21 78.1,21.6 77.9,22 C77.7,22.5 77.4,22.8 77,23.1 C76.6,23.4 76.2,23.6 75.7,23.8 C75.2,23.9 74.7,24 74.2,24 L71.2,24.1 L71.2,24.1 L71.2,24.1 Z M73.5,19 L73.5,22 L74,22 C74.6,22 75,21.9 75.3,21.6 C75.6,21.3 75.8,20.9 75.8,20.4 C75.8,19.9 75.6,19.6 75.3,19.3 C74.9,19.1 74.5,19 74,19 L73.5,19 L73.5,19 Z M79.2,16.9 L84.1,16.9 L84.1,18.9 L81.4,18.9 L81.4,19.5 L83.9,19.5 L83.9,21.4 L81.4,21.4 L81.4,22.1 L84.3,22.1 L84.3,24.1 L79.2,24.1 L79.2,16.9 L79.2,16.9 Z" id="Shape"></path>
        </g>
    </g>
</svg>