<?xml version="1.0" encoding="UTF-8"?>
<svg width="80px" height="28px" viewBox="0 0 80 28" version="1.1" xmlns="http://www.w3.org/2000/svg" xmlns:xlink="http://www.w3.org/1999/xlink">
    <title>fri-son copy 5</title>
    <g id="Page-1" stroke="none" stroke-width="1" fill="none" fill-rule="evenodd">
        <g id="Extra-Large" transform="translate(-1732.000000, -5024.000000)" fill="#5E8216" fill-rule="nonzero">
            <g id="fri-son-copy-5" transform="translate(1732.000000, 5024.000000)">
                <g id="Group">
                    <path d="M54.3584623,10.92 C50.6440339,10.92 47.5287069,13.32 46.3305042,16.64 C45.7314029,14.92 44.5731403,13.4 43.0554169,12.4 C41.8172741,11.56 41.0184723,10.16 41.0184723,8.56 C41.0184723,6.04 43.095357,4 45.6115826,4 L45.6115826,0.04 C40.898652,0.04 37.0644034,3.84 37.0644034,8.56 C37.0644034,11.52 38.5421867,14.12 40.8187718,15.64 L40.8187718,15.64 C42.0569146,16.48 42.8557164,17.88 42.8557164,19.48 C42.8557164,22 40.7788318,24.04 38.2626061,24.04 C35.7463804,24.04 33.7094358,22 33.7094358,19.48 L29.7553669,19.48 C29.7553669,24.16 33.5896156,28 38.2626061,28 C41.9770344,28 45.1323015,25.64 46.3305042,22.32 C47.4887668,25.6 50.6440339,28 54.3584623,28 C59.0713929,28 62.9056415,24.2 62.9056415,19.48 C62.9056415,14.76 59.0713929,10.92 54.3584623,10.92 M54.3584623,24.04 C51.8422366,24.04 49.8052921,22 49.8052921,19.48 C49.8052921,16.96 51.8422366,14.88 54.3584623,14.88 C56.874688,14.88 58.9515726,16.96 58.9515726,19.48 C58.9515726,22 56.874688,24.04 54.3584623,24.04" id="Shape"></path>
                    <path d="M76.005991,27.6 L80,27.6 L80,19.48 C80,14.76 76.1258113,10.92 71.4528208,10.92 C66.7398902,10.92 62.9056415,14.76 62.9056415,19.48 L62.9056415,27.64 L66.8597104,27.64 L66.8597104,19.48 C66.8597104,16.96 68.9365951,14.88 71.4528208,14.88 C73.9690464,14.88 76.005991,16.96 76.005991,19.48 L76.005991,27.6 L76.005991,27.6 Z" id="Path"></path>
                    <path d="M23.0454319,10.56 L23.0454319,10.56 C20.4093859,10.56 18.0928607,11.76 16.4952571,13.64 C14.9375936,11.76 12.5811283,10.56 9.94508238,10.56 L8.86669995,10.56 L8.86669995,8.52 C8.86669995,6 10.9435846,3.96 13.4598103,3.96 L13.4598103,0 C8.82675986,0 4.95257114,3.8 4.95257114,8.52 L4.95257114,10.56 L0,10.56 L0,14.52 L4.95257114,14.52 L4.95257114,27.68 L8.90664004,27.68 L8.90664004,14.52 L9.98502247,14.52 C12.5012481,14.52 14.5381927,16.56 14.5381927,19.08 L14.5381927,27.64 L18.4922616,27.64 L18.4922616,19.08 C18.4922616,16.56 20.5292062,14.52 23.0454319,14.52 L24.1238143,14.52 L24.1238143,27.64 L28.0778832,27.64 L28.0778832,10.56 L23.0454319,10.56 Z" id="Path"></path>
                    <polygon id="Path" points="36.0259611 10.56 29.7553669 14.52 29.7553669 18.56 36.0259611 14.68"></polygon>
                </g>
                <rect id="Rectangle" x="24" y="0" width="4" height="10"></rect>
            </g>
        </g>
    </g>
</svg>