<?xml version="1.0" encoding="UTF-8"?>
<svg width="40px" height="39px" viewBox="0 0 40 39" version="1.1" xmlns="http://www.w3.org/2000/svg" xmlns:xlink="http://www.w3.org/1999/xlink">
    <title>etat_de_fribourg copy 5</title>
    <g id="Page-1" stroke="none" stroke-width="1" fill="none" fill-rule="evenodd">
        <g id="Extra-Large" transform="translate(-1649.000000, -5019.000000)" fill="#5E8216" fill-rule="nonzero">
            <g id="etat_de_fribourg-copy-5" transform="translate(1649.000000, 5019.000000)">
                <path d="M0,18.2149828 L0,19 C2.286608,18.4243207 4.72912109,17.0112898 6.08029855,15.7552624 C6.96376073,14.9179107 7.74328618,13.9235556 8.36690655,12.7721971 C8.36690655,12.7721971 8.41887491,12.7198626 8.41887491,12.6675281 C8.99052691,11.6208386 9.40627382,10.3648111 9.718084,8.89944571 C10.5495778,4.86969089 9.30233709,0.83993607 9.04249528,0.316591288 C8.73068509,-0.0497500595 8.31493818,0.00258441868 8.003128,0.00258441868 C7.95115964,0.00258441868 7.84722291,0.00258441868 7.79525455,0.00258441868 L0,0.00258441868 L0,9.21345258 L5.97636182,9.21345258 C6.02833018,9.21345258 6.13226691,9.21345258 6.13226691,9.21345258 C6.34014037,9.26578706 6.49604546,9.37045601 6.49604546,9.57979393 C6.49604546,9.6321284 6.49604546,9.68446288 6.49604546,9.73679736 C6.49604546,11.5685041 5.61258327,15.1795831 0.467715273,17.4823001 L0,17.691638 C0,17.691638 0,18.2149828 0,18.2149828 Z" id="Path"></path>
                <g id="Group" transform="translate(0.000000, 24.000000)">
                    <polygon id="Path" points="0.217096336 0.0530035336 2.33378562 0.0530035336 2.33378562 0.371024735 0.651289009 0.371024735 0.651289009 1.32508834 2.22523745 1.32508834 2.22523745 1.64310954 0.651289009 1.64310954 0.651289009 2.65017668 2.33378562 2.65017668 2.33378562 2.96819788 0.217096336 2.96819788"></polygon>
                    <polygon id="Path" points="3.58208955 0.371024735 2.60515604 0.371024735 2.60515604 0.0530035336 5.04748982 0.0530035336 5.04748982 0.371024735 4.01628223 0.371024735 4.01628223 3.02120141 3.58208955 3.02120141"></polygon>
                    <path d="M5.86160109,0.0530035336 L6.29579376,0.0530035336 L7.48982361,3.02120141 L7.05563094,3.02120141 L6.72998643,2.12014134 L5.42740841,2.12014134 L5.10176391,3.02120141 L4.66757123,3.02120141 L5.86160109,0.0530035336 Z M5.53595658,1.80212014 L6.56716418,1.80212014 L6.07869742,0.424028269 L6.07869742,0.424028269 L5.53595658,1.80212014 Z" id="Shape"></path>
                    <polygon id="Path" points="8.1953867 0.371024735 7.1641791 0.371024735 7.1641791 0.0530035336 9.60651289 0.0530035336 9.60651289 0.371024735 8.57530529 0.371024735 8.57530529 3.02120141 8.1953867 3.02120141"></polygon>
                    <path d="M11.2890095,0.0530035336 L12.3202171,0.0530035336 C13.2428765,0.0530035336 13.7856174,0.530035336 13.7856174,1.48409894 C13.7856174,2.49116608 13.3514247,3.02120141 12.3202171,3.02120141 L11.2890095,3.02120141 L11.2890095,0.0530035336 Z M11.6689281,2.70318021 L12.3202171,2.70318021 C12.5915875,2.70318021 13.3514247,2.65017668 13.3514247,1.53710247 C13.3514247,0.848056537 13.0800543,0.424028269 12.3202171,0.424028269 L11.614654,0.424028269 L11.6689281,2.70318021 L11.6689281,2.70318021 Z" id="Shape"></path>
                    <path d="M14.3283582,0.0530035336 L16.4450475,0.0530035336 L16.4450475,0.371024735 L14.7625509,0.371024735 L14.7625509,1.32508834 L16.3364993,1.32508834 L16.3364993,1.64310954 L14.7625509,1.64310954 L14.7625509,2.65017668 L16.4450475,2.65017668 L16.4450475,2.96819788 L14.3283582,2.96819788 C14.3283582,2.96819788 14.3283582,0.0530035336 14.3283582,0.0530035336 Z" id="Path"></path>
                    <polygon id="Path" points="18.2903664 0.0530035336 20.2985075 0.0530035336 20.2985075 0.371024735 18.724559 0.371024735 18.724559 1.32508834 20.1356852 1.32508834 20.1356852 1.64310954 18.724559 1.64310954 18.724559 3.02120141 18.3446404 3.02120141"></polygon>
                    <path d="M20.7869742,0.0530035336 L22.1981004,0.0530035336 C22.7408412,0.0530035336 23.1207598,0.371024735 23.1207598,0.848056537 C23.1207598,1.21908127 22.9579376,1.48409894 22.578019,1.59010601 L22.578019,1.59010601 C22.9579376,1.64310954 23.0122117,1.90812721 23.0122117,2.22614841 C23.0122117,2.49116608 23.0122117,2.86219081 23.1750339,3.02120141 L22.7408412,3.02120141 C22.6322931,2.91519435 22.6865672,2.59717314 22.6322931,2.27915194 C22.578019,2.01413428 22.5237449,1.74911661 22.1438263,1.74911661 L21.2211669,1.74911661 L21.2211669,3.02120141 L20.8412483,3.02120141 L20.7869742,0.0530035336 L20.7869742,0.0530035336 Z M22.0352782,1.43109541 C22.4151967,1.43109541 22.7408412,1.32508834 22.7408412,0.901060071 C22.7408412,0.636042403 22.578019,0.371024735 22.1981004,0.371024735 L21.2211669,0.371024735 L21.2211669,1.37809187 L22.0352782,1.43109541 L22.0352782,1.43109541 Z" id="Shape"></path>
                    <polygon id="Path" points="23.8263229 0.0530035336 24.2062415 0.0530035336 24.2062415 3.02120141 23.8263229 3.02120141"></polygon>
                    <path d="M24.9660787,0.0530035336 L26.0515604,0.0530035336 C26.3229308,0.0530035336 26.6485753,0.0530035336 26.8656716,0.159010601 C27.082768,0.265017668 27.2455902,0.477031802 27.2455902,0.795053004 C27.2455902,1.1130742 27.082768,1.32508834 26.8113976,1.48409894 L26.8113976,1.48409894 C27.1913161,1.53710247 27.4084125,1.85512367 27.4084125,2.17314488 C27.4084125,2.59717314 27.082768,3.02120141 26.4857531,3.02120141 L25.0203528,3.02120141 L24.9660787,0.0530035336 L24.9660787,0.0530035336 Z M25.4002714,1.32508834 L26.2143826,1.32508834 C26.6485753,1.32508834 26.8656716,1.16607774 26.8656716,0.848056537 C26.8656716,0.424028269 26.5943012,0.371024735 26.2143826,0.371024735 L25.4002714,0.371024735 L25.4002714,1.32508834 Z M25.4002714,2.70318021 L26.431479,2.70318021 C26.7571235,2.70318021 26.9742198,2.49116608 26.9742198,2.17314488 C26.9742198,1.80212014 26.6485753,1.69611307 26.3229308,1.69611307 L25.4002714,1.69611307 L25.4002714,2.70318021 L25.4002714,2.70318021 Z" id="Shape"></path>
                    <path d="M29.2537313,0 C30.2306649,0 30.7191316,0.74204947 30.7191316,1.53710247 C30.7191316,2.33215548 30.2306649,3.07420495 29.2537313,3.07420495 C28.2767978,3.07420495 27.7883311,2.33215548 27.7883311,1.53710247 C27.7883311,0.74204947 28.2767978,0 29.2537313,0 Z M29.2537313,2.75618375 C30.0135685,2.75618375 30.2849389,2.12014134 30.2849389,1.53710247 C30.2849389,0.954063604 29.9592944,0.318021201 29.2537313,0.318021201 C28.4938942,0.318021201 28.2225237,0.954063604 28.2225237,1.53710247 C28.2225237,2.12014134 28.4938942,2.75618375 29.2537313,2.75618375 Z" id="Shape"></path>
                    <path d="M33.7042062,1.96113074 C33.7042062,2.70318021 33.2700136,3.12720848 32.5101764,3.12720848 C31.7503392,3.12720848 31.2618725,2.75618375 31.2618725,1.96113074 L31.2618725,0.0530035336 L31.641791,0.0530035336 L31.641791,1.96113074 C31.641791,2.49116608 31.9674355,2.75618375 32.4559023,2.75618375 C32.9443691,2.75618375 33.2700136,2.49116608 33.2700136,1.96113074 L33.2700136,0.0530035336 L33.7042062,0.0530035336 L33.7042062,1.96113074 Z" id="Path"></path>
                    <path d="M34.4097693,0.0530035336 L35.8751696,0.0530035336 C36.4179104,0.0530035336 36.797829,0.371024735 36.797829,0.848056537 C36.797829,1.21908127 36.6350068,1.48409894 36.2550882,1.59010601 L36.2550882,1.59010601 C36.6350068,1.64310954 36.6892809,1.90812721 36.6892809,2.22614841 C36.6892809,2.49116608 36.6892809,2.86219081 36.8521031,3.02120141 L36.4179104,3.02120141 C36.3093623,2.91519435 36.3636364,2.59717314 36.3093623,2.27915194 C36.2550882,2.01413428 36.2008141,1.74911661 35.8208955,1.74911661 L34.843962,1.74911661 L34.843962,3.02120141 L34.4640434,3.02120141 L34.4097693,0.0530035336 L34.4097693,0.0530035336 Z M35.6580733,1.43109541 C36.0379919,1.43109541 36.3636364,1.32508834 36.3636364,0.901060071 C36.3636364,0.636042403 36.2008141,0.371024735 35.8208955,0.371024735 L34.843962,0.371024735 L34.843962,1.37809187 L35.6580733,1.43109541 L35.6580733,1.43109541 Z" id="Shape"></path>
                    <path d="M39.6743555,2.65017668 C39.4572592,2.96819788 39.0773406,3.07420495 38.697422,3.07420495 C37.7747626,3.07420495 37.2320217,2.33215548 37.2320217,1.59010601 C37.2320217,0.74204947 37.7204885,0 38.697422,0 C39.348711,0 39.8914518,0.265017668 40,1.00706714 L39.6200814,1.00706714 C39.5658073,0.583038869 39.1858887,0.371024735 38.697422,0.371024735 C37.9375848,0.371024735 37.6662144,1.00706714 37.6662144,1.64310954 C37.6662144,2.27915194 38.046133,2.80918728 38.697422,2.80918728 C39.348711,2.80918728 39.6743555,2.38515901 39.6743555,1.85512367 L38.697422,1.85512367 L38.697422,1.53710247 L40,1.53710247 L40,3.07420495 L39.7286296,3.07420495 L39.6743555,2.65017668 Z" id="Path"></path>
                    <path d="M1.95386703,6.83745583 C1.89959294,6.41342756 1.62822252,6.25441696 1.19402985,6.25441696 C0.868385346,6.25441696 0.488466757,6.36042403 0.488466757,6.7844523 C0.488466757,7.15547703 0.976933514,7.20848057 1.46540027,7.31448763 C1.95386703,7.4204947 2.44233379,7.5795053 2.44233379,8.16254417 C2.44233379,8.79858657 1.79104478,9.06360424 1.24830393,9.06360424 C0.542740841,9.06360424 0,8.74558304 0,8.00353357 L0.379918589,8.00353357 C0.379918589,8.48056537 0.814111262,8.69257951 1.24830393,8.69257951 C1.62822252,8.69257951 2.00814111,8.58657244 2.00814111,8.16254417 C2.00814111,7.7385159 1.51967436,7.68551237 1.0312076,7.5795053 C0.542740841,7.47349823 0.0542740841,7.31448763 0.0542740841,6.7844523 C0.0542740841,6.20141343 0.597014925,5.93639576 1.13975577,5.93639576 C1.73677069,5.93639576 2.22523745,6.20141343 2.27951153,6.89045936 L1.95386703,6.89045936 L1.95386703,6.83745583 Z" id="Path"></path>
                    <polygon id="Path" points="3.58208955 6.30742049 2.55088195 6.30742049 2.55088195 5.98939929 4.99321574 5.98939929 4.99321574 6.30742049 3.96200814 6.30742049 3.96200814 8.95759717 3.58208955 8.95759717"></polygon>
                    <path d="M5.86160109,5.98939929 L6.29579376,5.98939929 L7.48982361,8.95759717 L7.05563094,8.95759717 L6.72998643,8.0565371 L5.42740841,8.0565371 L5.10176391,8.95759717 L4.66757123,8.95759717 L5.86160109,5.98939929 Z M5.53595658,7.7385159 L6.56716418,7.7385159 L6.07869742,6.36042403 L6.07869742,6.36042403 L5.53595658,7.7385159 Z" id="Shape"></path>
                    <path d="M8.68385346,5.98939929 L9.11804613,5.98939929 L10.312076,8.95759717 L9.87788331,8.95759717 L9.55223881,8.0565371 L8.24966079,8.0565371 L7.92401628,8.95759717 L7.48982361,8.95759717 L8.68385346,5.98939929 Z M8.35820896,7.7385159 L9.38941655,7.7385159 L8.9009498,6.36042403 L8.9009498,6.36042403 L8.35820896,7.7385159 Z" id="Shape"></path>
                    <polygon id="Path" points="11.0176391 6.30742049 9.98643148 6.30742049 9.98643148 5.98939929 12.4287653 5.98939929 12.4287653 6.30742049 11.3975577 6.30742049 11.3975577 8.95759717 11.0176391 8.95759717 11.0176391 6.30742049"></polygon>
                    <path d="M14.1112619,5.98939929 L16.119403,5.98939929 L16.119403,6.30742049 L14.5454545,6.30742049 L14.5454545,7.2614841 L15.9565807,7.2614841 L15.9565807,7.5795053 L14.5454545,7.5795053 L14.5454545,8.95759717 L14.165536,8.95759717 L14.165536,5.98939929 C14.165536,5.98939929 14.1112619,5.98939929 14.1112619,5.98939929 Z" id="Path"></path>
                    <path d="M16.6078697,5.98939929 L18.0189959,5.98939929 C18.5617368,5.98939929 18.9416554,6.30742049 18.9416554,6.7844523 C18.9416554,7.15547703 18.7788331,7.4204947 18.3989145,7.52650177 L18.3989145,7.52650177 C18.724559,7.5795053 18.8331072,7.84452297 18.8331072,8.16254417 C18.8331072,8.42756184 18.8331072,8.79858657 18.9959294,8.95759717 L18.5617368,8.95759717 C18.4531886,8.85159011 18.5074627,8.5335689 18.4531886,8.2155477 C18.3989145,7.95053004 18.3446404,7.68551237 17.9647218,7.68551237 L16.9877883,7.68551237 L16.9877883,8.95759717 L16.6078697,8.95759717 C16.6078697,8.95759717 16.6078697,5.98939929 16.6078697,5.98939929 Z M17.8561737,7.36749117 C18.2360923,7.36749117 18.5617368,7.2614841 18.5617368,6.83745583 C18.5617368,6.57243816 18.3989145,6.30742049 18.0189959,6.30742049 L17.0420624,6.30742049 L17.0420624,7.31448763 L17.8561737,7.36749117 L17.8561737,7.36749117 Z" id="Shape"></path>
                    <polygon id="Path" points="19.5929444 5.98939929 21.7096336 5.98939929 21.7096336 6.30742049 20.027137 6.30742049 20.027137 7.2614841 21.6010855 7.2614841 21.6010855 7.5795053 20.027137 7.5795053 20.027137 8.58657244 21.7096336 8.58657244 21.7096336 8.90459364 19.5929444 8.90459364"></polygon>
                    <polygon id="Path" points="22.3066486 5.98939929 22.6865672 5.98939929 22.6865672 8.95759717 22.3066486 8.95759717"></polygon>
                    <path d="M23.4464043,5.98939929 L24.531886,5.98939929 C24.8032564,5.98939929 25.1289009,5.98939929 25.3459973,6.09540636 C25.5630936,6.20141343 25.7259159,6.41342756 25.7259159,6.73144876 C25.7259159,7.04946996 25.5630936,7.2614841 25.2917232,7.4204947 L25.2917232,7.4204947 C25.6716418,7.47349823 25.8887381,7.79151943 25.8887381,8.10954064 C25.8887381,8.5335689 25.5630936,8.95759717 24.9660787,8.95759717 L23.5006784,8.95759717 L23.4464043,5.98939929 L23.4464043,5.98939929 Z M23.880597,7.2614841 L24.6947083,7.2614841 C25.1289009,7.2614841 25.3459973,7.1024735 25.3459973,6.7844523 C25.3459973,6.36042403 25.0746269,6.30742049 24.6947083,6.30742049 L23.880597,6.30742049 L23.880597,7.2614841 Z M23.880597,8.63957597 L24.9118046,8.63957597 C25.2374491,8.63957597 25.4545455,8.42756184 25.4545455,8.10954064 C25.4545455,7.7385159 25.1289009,7.63250883 24.8032564,7.63250883 L23.880597,7.63250883 L23.880597,8.63957597 L23.880597,8.63957597 Z" id="Shape"></path>
                    <path d="M28.8738128,7.8975265 C28.8738128,8.63957597 28.4396201,9.06360424 27.6797829,9.06360424 C26.9199457,9.06360424 26.431479,8.69257951 26.431479,7.8975265 L26.431479,5.98939929 L26.8113976,5.98939929 L26.8113976,7.8975265 C26.8113976,8.42756184 27.1370421,8.69257951 27.6255088,8.69257951 C28.1139756,8.69257951 28.4396201,8.42756184 28.4396201,7.8975265 L28.4396201,5.98939929 L28.8195387,5.98939929 L28.8738128,7.8975265 L28.8738128,7.8975265 Z" id="Path"></path>
                    <path d="M29.5793758,5.98939929 L30.990502,5.98939929 C31.5332429,5.98939929 31.9131615,6.30742049 31.9131615,6.7844523 C31.9131615,7.15547703 31.7503392,7.4204947 31.3704206,7.52650177 L31.3704206,7.52650177 C31.6960651,7.5795053 31.8046133,7.84452297 31.8046133,8.16254417 C31.8046133,8.42756184 31.8046133,8.79858657 31.9674355,8.95759717 L31.5332429,8.95759717 C31.4246947,8.85159011 31.4789688,8.5335689 31.4246947,8.2155477 C31.3704206,7.95053004 31.3161465,7.68551237 30.936228,7.68551237 L29.9592944,7.68551237 L29.9592944,8.95759717 L29.5793758,8.95759717 C29.5793758,8.95759717 29.5793758,5.98939929 29.5793758,5.98939929 Z M30.8276798,7.36749117 C31.2075984,7.36749117 31.5332429,7.2614841 31.5332429,6.83745583 C31.5332429,6.57243816 31.3704206,6.30742049 30.990502,6.30742049 L30.0135685,6.30742049 L30.0135685,7.31448763 L30.8276798,7.36749117 L30.8276798,7.36749117 Z" id="Shape"></path>
                    <path d="M34.843962,8.58657244 C34.6268657,8.90459364 34.2469471,9.01060071 33.8670285,9.01060071 C32.9443691,9.01060071 32.4016282,8.26855124 32.4016282,7.52650177 C32.4016282,6.67844523 32.890095,5.93639576 33.8670285,5.93639576 C34.5183175,5.93639576 35.0610583,6.20141343 35.1696065,6.9434629 L34.7896879,6.9434629 C34.7354138,6.51943463 34.3554953,6.30742049 33.8670285,6.30742049 C33.1071913,6.30742049 32.8358209,6.9434629 32.8358209,7.5795053 C32.8358209,8.2155477 33.2157395,8.74558304 33.8670285,8.74558304 C34.5183175,8.74558304 34.843962,8.32155477 34.843962,7.79151943 L33.8670285,7.79151943 L33.8670285,7.47349823 L35.1696065,7.47349823 L35.1696065,9.01060071 L34.8982361,9.01060071 L34.843962,8.58657244 Z" id="Path"></path>
                    <polygon id="Path" points="2.11668928 14.8939929 1.84531886 14.8939929 1.3568521 13.1978799 1.3568521 13.1978799 0.868385346 14.8939929 0.597014925 14.8939929 0.0542740841 12.8798587 0.325644505 12.8798587 0.759837178 14.5229682 0.759837178 14.5229682 1.24830393 12.8268551 1.57394844 12.8268551 1.95386703 14.5229682 1.95386703 14.5229682 2.3880597 12.8268551 2.65943012 12.8268551"></polygon>
                    <polygon id="Path" points="4.88466757 14.8939929 4.61329715 14.8939929 4.12483039 13.1978799 4.12483039 13.1978799 3.63636364 14.8939929 3.36499322 14.8939929 2.82225237 12.8798587 3.0936228 12.8798587 3.52781547 14.5229682 3.52781547 14.5229682 4.01628223 12.8268551 4.34192673 12.8268551 4.72184532 14.5229682 4.72184532 14.5229682 5.15603799 12.8268551 5.42740841 12.8268551"></polygon>
                    <polygon id="Path" points="7.65264586 14.8939929 7.38127544 14.8939929 6.89280868 13.1978799 6.89280868 13.1978799 6.40434193 14.8939929 6.13297151 14.8939929 5.59023066 12.8798587 5.86160109 12.8798587 6.29579376 14.5759717 6.29579376 14.5759717 6.78426052 12.8798587 7.10990502 12.8798587 7.54409769 14.5759717 7.54409769 14.5759717 7.97829037 12.8798587 8.1953867 12.8798587"></polygon>
                    <polygon id="Path" points="8.30393487 14.5759717 8.62957938 14.5759717 8.62957938 14.8939929 8.30393487 14.8939929"></polygon>
                    <polygon id="Path" points="9.17232022 12.8268551 10.5291723 12.8268551 10.5291723 13.0388693 9.44369064 13.0388693 9.44369064 13.6749117 10.4206242 13.6749117 10.4206242 13.8869258 9.44369064 13.8869258 9.44369064 14.8409894 9.17232022 14.8409894"></polygon>
                    <path d="M10.9090909,12.8268551 L11.8860244,12.8268551 C12.265943,12.8268551 12.5373134,13.0388693 12.5373134,13.3568905 C12.5373134,13.6219081 12.4287653,13.7809187 12.1573948,13.8869258 L12.1573948,13.8869258 C12.3744912,13.9399293 12.4287653,14.0989399 12.4830393,14.3109541 C12.4830393,14.5229682 12.4830393,14.7349823 12.5915875,14.8939929 L12.265943,14.8939929 C12.2116689,14.7879859 12.2116689,14.5759717 12.2116689,14.4169611 C12.1573948,14.204947 12.1573948,14.0459364 11.8860244,14.0459364 L11.2347354,14.0459364 L11.2347354,14.8939929 L10.9090909,14.8939929 L10.9090909,12.8268551 Z M11.7774763,13.7809187 C12.0488467,13.7809187 12.265943,13.7279152 12.265943,13.409894 C12.265943,13.1978799 12.1573948,13.0388693 11.8860244,13.0388693 L11.1804613,13.0388693 L11.1804613,13.7279152 L11.7774763,13.7809187 L11.7774763,13.7809187 Z" id="Shape"></path>
                    <polygon id="Path" points="12.9715061 14.5759717 13.2971506 14.5759717 13.2971506 14.8939929 12.9715061 14.8939929"></polygon>
                    <path d="M15.3052917,13.4628975 C15.2510176,13.1978799 15.0339213,13.0388693 14.7082768,13.0388693 C14.21981,13.0388693 14.0027137,13.4628975 14.0027137,13.8869258 C14.0027137,14.3639576 14.21981,14.7349823 14.7082768,14.7349823 C15.0881954,14.7349823 15.3052917,14.4699647 15.3052917,14.1519435 L15.5766621,14.1519435 C15.5223881,14.6819788 15.1967436,14.9469965 14.6540027,14.9469965 C14.0027137,14.9469965 13.6770692,14.4699647 13.6770692,13.8869258 C13.6770692,13.3038869 14.0027137,12.8268551 14.6540027,12.8268551 C15.0881954,12.8268551 15.468114,13.0388693 15.5223881,13.4628975 C15.5223881,13.4628975 15.3052917,13.4628975 15.3052917,13.4628975 Z" id="Path"></path>
                    <path d="M16.0108548,12.8268551 L16.2822252,12.8268551 L16.2822252,13.6749117 L17.3677069,13.6749117 L17.3677069,12.8268551 L17.6390773,12.8268551 L17.6390773,14.8409894 L17.3677069,14.8409894 L17.3677069,13.8869258 L16.2822252,13.8869258 L16.2822252,14.8409894 L16.0108548,14.8409894 C16.0108548,14.8409894 16.0108548,12.8268551 16.0108548,12.8268551 Z" id="Path"></path>
                </g>
            </g>
        </g>
    </g>
</svg>