<?xml version="1.0" encoding="UTF-8"?>
<svg width="80px" height="28px" viewBox="0 0 80 28" version="1.1" xmlns="http://www.w3.org/2000/svg" xmlns:xlink="http://www.w3.org/1999/xlink">
    <title>partenaire-frison</title>
    <g id="Page-1" stroke="none" stroke-width="1" fill="none" fill-rule="evenodd">
        <g id="partenaire-frison" fill="#5E8216" fill-rule="nonzero">
            <g id="Group">
                <path d="M54.4,10.9 C50.7,10.9 47.6,13.3 46.4,16.6 C45.8,14.9 44.6,13.4 43.1,12.4 C41.9,11.6 41.1,10.2 41.1,8.6 C41,6 43.1,4 45.6,4 L45.6,0 C40.9,0 37.1,3.8 37.1,8.5 C37.1,11.5 38.6,14.1 40.9,15.6 L40.9,15.6 C42.1,16.4 42.9,17.8 42.9,19.4 C42.9,21.9 40.8,24 38.3,24 C35.8,24 33.7,22 33.7,19.4 L29.7,19.4 C29.7,24.1 33.5,27.9 38.2,27.9 C41.9,27.9 45.1,25.5 46.3,22.2 C47.5,25.5 50.6,27.9 54.3,27.9 C59,27.9 62.8,24.1 62.8,19.4 C62.8,14.7 59.1,10.9 54.4,10.9 M54.4,24 C51.9,24 49.8,22 49.8,19.4 C49.8,16.8 51.8,14.8 54.4,14.8 C56.9,14.8 59,16.9 59,19.4 C59,21.9 56.9,24 54.4,24" id="Shape"></path>
                <path d="M76,27.6 L80,27.6 L80,19.5 C80,14.8 76.1,10.9 71.5,10.9 C66.8,10.9 63,14.7 63,19.5 L63,27.7 L67,27.7 L67,19.5 C67,17 69.1,14.9 71.6,14.9 C74.1,14.9 76,17 76,19.5 L76,27.6 L76,27.6 Z" id="Path"></path>
                <path d="M23,10.6 L23,10.6 C20.4,10.6 18,11.8 16.4,13.7 C14.8,11.8 12.5,10.6 9.8,10.6 L8.9,10.6 L8.9,8.6 C8.9,6 10.9,4 13.5,4 L13.5,0 C8.8,0 5,3.8 5,8.5 L5,10.5 L0,10.5 L0,14.5 L5,14.5 L5,27.7 L9,27.7 L9,14.5 L10,14.5 C12.5,14.5 14.6,16.5 14.6,19.1 L14.6,27.7 L18.6,27.7 L18.6,19.1 C18.6,16.6 20.6,14.5 23.2,14.5 L24.3,14.5 L24.3,27.6 L28.3,27.6 L28.3,10.6 L23,10.6 Z" id="Path_00000142870703035027785630000007110312379262194060_"></path>
                <polygon id="Path_00000124840662828192341230000010038863511206505383_" points="36 10.6 29.8 14.5 29.8 18.6 36 14.7"></polygon>
            </g>
            <rect id="Rectangle" x="24" y="0" width="4" height="10"></rect>
        </g>
    </g>
</svg>