<?xml version="1.0" encoding="UTF-8"?>
<svg width="93px" height="39px" viewBox="0 0 93 39" version="1.1" xmlns="http://www.w3.org/2000/svg" xmlns:xlink="http://www.w3.org/1999/xlink">
    <title>eikon_full copy 5</title>
    <g id="Page-1" stroke="none" stroke-width="1" fill="none" fill-rule="evenodd">
        <g id="Extra-Large" transform="translate(-1514.000000, -5019.000000)" fill="#5E8216">
            <g id="eikon_full-copy-5" transform="translate(1514.000000, 5019.000000)">
                <polygon id="Path" points="1 22 1 26 3 26 3 25.4375 1.54054054 25.4375 1.54054054 24.3125 2.94594595 24.3125 2.94594595 23.75 1.54054054 23.75 1.54054054 22.625 2.94594595 22.625 2.94594595 22.0625"></polygon>
                <g id="Group">
                    <path d="M5.01470588,24.3176471 C4.95772059,24.0308824 4.84375,23.8588235 4.44485294,23.8588235 C3.98897059,23.8588235 3.81801471,24.2029412 3.81801471,24.6044118 C3.81801471,25.0058824 3.98897059,25.35 4.50183824,25.35 C4.84375,25.35 4.95772059,25.1779412 5.01470588,24.9485294 L5.58455882,24.9485294 C5.52757353,25.4647059 5.12867647,25.8661765 4.44485294,25.8661765 C3.64705882,25.8661765 3.24816176,25.2352941 3.24816176,24.6044118 C3.24816176,23.9735294 3.64705882,23.3426471 4.44485294,23.3426471 C5.24264706,23.3426471 5.52757353,23.8014706 5.58455882,24.3176471 C5.58455882,24.3176471 5.01470588,24.3176471 5.01470588,24.3176471 Z M8.03492647,24.6617647 C8.03492647,24.2602941 7.75,23.9161765 7.29411765,23.9161765 C6.89522059,23.9161765 6.61029412,24.2602941 6.61029412,24.6617647 C6.61029412,25.0632353 6.89522059,25.4073529 7.29411765,25.4073529 C7.75,25.4073529 8.03492647,25.0632353 8.03492647,24.6617647 M6.04044118,24.6617647 C6.04044118,23.9735294 6.55330882,23.4 7.29411765,23.4 C8.09191176,23.4 8.54779412,23.9735294 8.54779412,24.6617647 C8.54779412,25.35 8.03492647,25.9235294 7.29411765,25.9235294 C6.55330882,25.9235294 6.04044118,25.35 6.04044118,24.6617647" id="Shape"></path>
                    <path d="M9.23161765,25.8661765 L9.80147059,25.8661765 L9.80147059,22.1955882 L9.23161765,22.1955882 L9.23161765,25.8661765 Z M10.9981618,24.375 L12.1948529,24.375 C12.1948529,24.0308824 11.9669118,23.8014706 11.625,23.8014706 C11.2830882,23.8014706 10.9981618,23.9735294 10.9981618,24.375 Z M10.9981618,24.8338235 C10.9981618,25.1779412 11.1691176,25.4647059 11.625,25.4647059 C11.9669118,25.4647059 12.0808824,25.2926471 12.1378676,25.1205882 L12.7077206,25.1205882 C12.6507353,25.5220588 12.2518382,25.9235294 11.625,25.9235294 C10.8272059,25.9235294 10.4283088,25.35 10.4283088,24.6617647 C10.4283088,23.9161765 10.8841912,23.4 11.625,23.4 C12.2518382,23.4 12.7647059,23.8588235 12.7647059,24.4897059 C12.7647059,24.5470588 12.7647059,24.6617647 12.7647059,24.8338235 C12.7077206,24.8338235 10.9981618,24.8338235 10.9981618,24.8338235 Z M15.1011029,24.6617647 C15.1011029,25.0632353 15.3860294,25.4073529 15.8419118,25.4073529 C16.2408088,25.4073529 16.5257353,25.0632353 16.5257353,24.6617647 C16.5257353,24.2602941 16.2408088,23.9161765 15.8419118,23.9161765 C15.3860294,23.8588235 15.1011029,24.2029412 15.1011029,24.6617647 Z M15.1011029,23.7441176 C15.2720588,23.5147059 15.5569853,23.3426471 15.8419118,23.3426471 C16.5827206,23.3426471 17.0955882,23.9161765 17.0955882,24.6044118 C17.0955882,25.2926471 16.5827206,25.8661765 15.8419118,25.8661765 C15.5569853,25.8661765 15.2720588,25.6941176 15.1011029,25.4647059 L15.1011029,27.0132353 L14.53125,27.0132353 L14.53125,23.3426471 L15.1011029,23.3426471 L15.1011029,23.7441176 L15.1011029,23.7441176 Z M19.2610294,23.9735294 C19.2040441,23.9735294 19.0900735,23.9735294 19.0330882,23.9735294 C18.5772059,23.9735294 18.2922794,24.2602941 18.2922794,24.8338235 L18.2922794,25.8661765 L17.7224265,25.8661765 L17.7224265,23.4573529 L18.2922794,23.4573529 L18.2922794,23.8588235 C18.40625,23.6294118 18.6911765,23.4573529 19.0330882,23.4573529 C19.1470588,23.4573529 19.2040441,23.4573529 19.2610294,23.5147059 L19.2610294,23.9735294 L19.2610294,23.9735294 Z M21.5404412,24.6617647 C21.5404412,24.2602941 21.2555147,23.9161765 20.7996324,23.9161765 C20.4007353,23.9161765 20.1158088,24.2602941 20.1158088,24.6617647 C20.1158088,25.0632353 20.4007353,25.4073529 20.7996324,25.4073529 C21.2555147,25.4073529 21.5404412,25.0632353 21.5404412,24.6617647 M19.6029412,24.6617647 C19.6029412,23.9735294 20.1158088,23.4 20.8566176,23.4 C21.6544118,23.4 22.1102941,23.9735294 22.1102941,24.6617647 C22.1102941,25.35 21.5974265,25.9235294 20.8566176,25.9235294 C20.0588235,25.9235294 19.6029412,25.35 19.6029412,24.6617647 M24.1617647,22.7117647 C24.1047794,22.7117647 23.9908088,22.6544118 23.9338235,22.6544118 C23.7628676,22.6544118 23.5349265,22.6544118 23.5349265,23.0558824 L23.5349265,23.4 L24.1617647,23.4 L24.1617647,23.8588235 L23.5349265,23.8588235 L23.5349265,25.8088235 L22.9650735,25.8088235 L22.9650735,23.8588235 L22.4522059,23.8588235 L22.4522059,23.4 L22.9650735,23.4 L22.9650735,23.1132353 C22.9650735,22.1955882 23.5349265,22.1382353 23.8198529,22.1382353 C23.9908088,22.1382353 24.1047794,22.1955882 24.1617647,22.1955882 C24.1617647,22.2529412 24.1617647,22.7117647 24.1617647,22.7117647 Z M25.0735294,24.375 L26.2702206,24.375 C26.2702206,24.0308824 26.0422794,23.8014706 25.7003676,23.8014706 C25.3584559,23.8014706 25.0735294,23.9735294 25.0735294,24.375 Z M25.0735294,24.8338235 C25.0735294,25.1779412 25.2444853,25.4647059 25.7003676,25.4647059 C26.0422794,25.4647059 26.15625,25.2926471 26.2132353,25.1205882 L26.7830882,25.1205882 C26.7261029,25.5220588 26.3272059,25.9235294 25.7003676,25.9235294 C24.9025735,25.9235294 24.5036765,25.35 24.5036765,24.6617647 C24.5036765,23.9161765 24.9595588,23.4 25.7003676,23.4 C26.3272059,23.4 26.8400735,23.8588235 26.8400735,24.4897059 C26.8400735,24.5470588 26.8400735,24.6617647 26.8400735,24.8338235 L25.0735294,24.8338235 L25.0735294,24.8338235 Z M29.2334559,25.1779412 C29.2334559,25.6941176 28.7775735,25.9235294 28.2647059,25.9235294 C27.7518382,25.9235294 27.2959559,25.6367647 27.2959559,25.0632353 L27.8658088,25.0632353 C27.8658088,25.4073529 28.0367647,25.5220588 28.3216912,25.5220588 C28.5496324,25.5220588 28.7205882,25.4647059 28.7205882,25.2352941 C28.7205882,25.0058824 28.4926471,25.0058824 27.9797794,24.7764706 C27.6378676,24.6617647 27.4099265,24.5470588 27.4099265,24.0882353 C27.4099265,23.6294118 27.8088235,23.4 28.3216912,23.4 C28.8345588,23.4 29.2334559,23.7441176 29.2334559,24.2029412 L28.6636029,24.2029412 C28.6636029,23.9735294 28.5496324,23.8014706 28.2647059,23.8014706 C28.09375,23.8014706 27.9227941,23.9161765 27.9227941,24.0882353 C27.9227941,24.3176471 28.1507353,24.3176471 28.6066176,24.4897059 C28.9485294,24.6044118 29.2334559,24.7191176 29.2334559,25.1779412 M31.6838235,25.1779412 C31.6838235,25.6941176 31.2279412,25.9235294 30.7150735,25.9235294 C30.2022059,25.9235294 29.7463235,25.6367647 29.7463235,25.0632353 L30.3161765,25.0632353 C30.3161765,25.4073529 30.4871324,25.5220588 30.7720588,25.5220588 C31,25.5220588 31.1709559,25.4647059 31.1709559,25.2352941 C31.1709559,25.0058824 30.9430147,25.0058824 30.4301471,24.7764706 C30.0882353,24.6617647 29.8602941,24.5470588 29.8602941,24.0882353 C29.8602941,23.6294118 30.2591912,23.4 30.7720588,23.4 C31.2849265,23.4 31.6838235,23.7441176 31.6838235,24.2029412 L31.1139706,24.2029412 C31.1139706,23.9735294 31,23.8014706 30.7150735,23.8014706 C30.5441176,23.8014706 30.3731618,23.9161765 30.3731618,24.0882353 C30.3731618,24.3176471 30.6011029,24.3176471 31.0569853,24.4897059 C31.3988971,24.6044118 31.6838235,24.7191176 31.6838235,25.1779412 M32.3676471,25.8661765 L32.9375,25.8661765 L32.9375,23.4573529 L32.3676471,23.4573529 L32.3676471,25.8661765 L32.3676471,25.8661765 Z M32.6525735,22.1382353 C32.8805147,22.1382353 33.0514706,22.3102941 33.0514706,22.5397059 C33.0514706,22.7691176 32.8805147,22.9411765 32.6525735,22.9411765 L32.6525735,22.9411765 C32.4246324,22.9411765 32.2536765,22.7691176 32.2536765,22.5397059 C32.2536765,22.3102941 32.4246324,22.1382353 32.6525735,22.1382353 Z M35.5018382,24.6617647 C35.5018382,24.2602941 35.2169118,23.9161765 34.7610294,23.9161765 C34.3621324,23.9161765 34.0772059,24.2602941 34.0772059,24.6617647 C34.0772059,25.0632353 34.3621324,25.4073529 34.7610294,25.4073529 C35.2169118,25.4073529 35.5018382,25.0632353 35.5018382,24.6617647 M33.5073529,24.6617647 C33.5073529,23.9735294 34.0202206,23.4 34.7610294,23.4 C35.5588235,23.4 36.0147059,23.9735294 36.0147059,24.6617647 C36.0147059,25.35 35.5018382,25.9235294 34.7610294,25.9235294 C34.0202206,25.9235294 33.5073529,25.35 33.5073529,24.6617647 M36.6985294,23.4 L37.2683824,23.4 L37.2683824,23.7441176 C37.4393382,23.4573529 37.7242647,23.3426471 38.0661765,23.3426471 C38.4080882,23.3426471 38.6360294,23.4573529 38.8069853,23.6867647 C38.9209559,23.8588235 38.9779412,24.0882353 38.9779412,24.4323529 L38.9779412,25.8661765 L38.4080882,25.8661765 L38.4080882,24.6044118 C38.4080882,24.2029412 38.2941176,23.8588235 37.8952206,23.8588235 C37.4963235,23.8588235 37.3253676,24.2029412 37.3253676,24.6044118 L37.3253676,25.8661765 L36.7555147,25.8661765 L36.7555147,23.4 L36.6985294,23.4 Z M39.71875,23.4 L40.2886029,23.4 L40.2886029,23.7441176 C40.4595588,23.4573529 40.7444853,23.3426471 41.0863971,23.3426471 C41.4283088,23.3426471 41.65625,23.4573529 41.8272059,23.6867647 C41.9411765,23.8588235 41.9981618,24.0882353 41.9981618,24.4323529 L41.9981618,25.8661765 L41.4283088,25.8661765 L41.4283088,24.6044118 C41.4283088,24.2029412 41.3143382,23.8588235 40.9154412,23.8588235 C40.5165441,23.8588235 40.3455882,24.2029412 40.3455882,24.6044118 L40.3455882,25.8661765 L39.7757353,25.8661765 L39.7757353,23.4 L39.71875,23.4 Z M43.1378676,24.375 L44.3345588,24.375 C44.3345588,24.0308824 44.1066176,23.8014706 43.7647059,23.8014706 C43.4227941,23.8014706 43.1378676,23.9735294 43.1378676,24.375 Z M43.1378676,24.8338235 C43.1378676,25.1779412 43.3088235,25.4647059 43.7647059,25.4647059 C44.1066176,25.4647059 44.2205882,25.2926471 44.2775735,25.1205882 L44.8474265,25.1205882 C44.7904412,25.5220588 44.3915441,25.9235294 43.7647059,25.9235294 C42.9669118,25.9235294 42.5680147,25.35 42.5680147,24.6617647 C42.5680147,23.9161765 43.0238971,23.4 43.7647059,23.4 C44.3915441,23.4 44.9044118,23.8588235 44.9044118,24.4897059 C44.9044118,24.5470588 44.9044118,24.6617647 44.9044118,24.8338235 L43.1378676,24.8338235 L43.1378676,24.8338235 Z M45.53125,25.8661765 L46.1011029,25.8661765 L46.1011029,22.1955882 L45.53125,22.1955882 L45.53125,25.8661765 Z M46.8988971,25.8661765 L47.46875,25.8661765 L47.46875,22.1955882 L46.8988971,22.1955882 L46.8988971,25.8661765 Z M48.6654412,24.375 L49.8621324,24.375 C49.8621324,24.0308824 49.6341912,23.8014706 49.2922794,23.8014706 C48.9503676,23.8014706 48.6654412,23.9735294 48.6654412,24.375 Z M48.6654412,24.8338235 C48.6654412,25.1779412 48.8363971,25.4647059 49.2922794,25.4647059 C49.6341912,25.4647059 49.7481618,25.2926471 49.8051471,25.1205882 L50.375,25.1205882 C50.3180147,25.5220588 49.9191176,25.9235294 49.2922794,25.9235294 C48.4944853,25.9235294 48.0955882,25.35 48.0955882,24.6617647 C48.0955882,23.9161765 48.5514706,23.4 49.2922794,23.4 C49.9191176,23.4 50.4319853,23.8588235 50.4319853,24.4897059 C50.4319853,24.5470588 50.4319853,24.6617647 50.4319853,24.8338235 L48.6654412,24.8338235 L48.6654412,24.8338235 Z M52.5974265,24.375 L53.7941176,24.375 C53.7941176,24.0308824 53.5661765,23.8014706 53.2242647,23.8014706 C52.8823529,23.8014706 52.5974265,23.9735294 52.5974265,24.375 Z M52.5974265,24.8338235 C52.5974265,25.1779412 52.7683824,25.4647059 53.2242647,25.4647059 C53.5661765,25.4647059 53.6801471,25.2926471 53.7371324,25.1205882 L54.3069853,25.1205882 C54.25,25.5220588 53.8511029,25.9235294 53.2242647,25.9235294 C52.4264706,25.9235294 52.0275735,25.35 52.0275735,24.6617647 C52.0275735,23.9161765 52.4834559,23.4 53.2242647,23.4 C53.8511029,23.4 54.3639706,23.8588235 54.3639706,24.4897059 C54.3639706,24.5470588 54.3639706,24.6617647 54.3639706,24.8338235 L52.5974265,24.8338235 L52.5974265,24.8338235 Z M55.0477941,23.4 L55.6176471,23.4 L55.6176471,23.7441176 C55.7886029,23.4573529 56.0735294,23.3426471 56.4154412,23.3426471 C56.7573529,23.3426471 56.9852941,23.4573529 57.15625,23.6867647 C57.2702206,23.8588235 57.3272059,24.0882353 57.3272059,24.4323529 L57.3272059,25.8661765 L56.7573529,25.8661765 L56.7573529,24.6044118 C56.7573529,24.2029412 56.6433824,23.8588235 56.2444853,23.8588235 C55.8455882,23.8588235 55.6746324,24.2029412 55.6746324,24.6044118 L55.6746324,25.8661765 L55.1047794,25.8661765 L55.1047794,23.4 L55.0477941,23.4 Z M60.9742647,24.6617647 C60.9742647,24.2602941 60.6893382,23.9161765 60.2334559,23.9161765 C59.8345588,23.9161765 59.5496324,24.2602941 59.5496324,24.6617647 C59.5496324,25.0632353 59.8345588,25.4073529 60.2334559,25.4073529 C60.6893382,25.4073529 60.9742647,25.0632353 60.9742647,24.6617647 Z M61.5441176,23.4573529 L61.5441176,25.8661765 L60.9742647,25.8661765 L60.9742647,25.5220588 C60.8033088,25.7514706 60.5183824,25.9235294 60.2334559,25.9235294 C59.4926471,25.9235294 58.9797794,25.35 58.9797794,24.6617647 C58.9797794,23.9735294 59.4926471,23.4 60.2334559,23.4 C60.5183824,23.4 60.8033088,23.5720588 60.9742647,23.8014706 L60.9742647,23.4573529 C60.9742647,23.4573529 61.5441176,23.4573529 61.5441176,23.4573529 Z M63.8805147,23.9735294 C63.8235294,23.9735294 63.7095588,23.9735294 63.6525735,23.9735294 C63.1966912,23.9735294 62.9117647,24.2602941 62.9117647,24.8338235 L62.9117647,25.8661765 L62.3419118,25.8661765 L62.3419118,23.4573529 L62.9117647,23.4573529 L62.9117647,23.8588235 C63.0257353,23.6294118 63.3106618,23.4573529 63.6525735,23.4573529 C63.7665441,23.4573529 63.8235294,23.4573529 63.8805147,23.5147059 C63.8805147,23.4573529 63.8805147,23.9735294 63.8805147,23.9735294 Z M65.8180147,25.8661765 C65.7040441,25.8661765 65.5330882,25.9235294 65.4191176,25.9235294 C65.1341912,25.9235294 64.6213235,25.8661765 64.6213235,25.0632353 L64.6213235,23.9161765 L64.2224265,23.9161765 L64.2224265,23.4573529 L64.6213235,23.4573529 L64.6213235,22.7117647 L65.1911765,22.7117647 L65.1911765,23.4573529 L65.7610294,23.4573529 L65.7610294,23.9161765 L65.1911765,23.9161765 L65.1911765,24.8911765 C65.1911765,25.2926471 65.3051471,25.35 65.5330882,25.35 C65.6470588,25.35 65.7610294,25.35 65.8180147,25.35 L65.8180147,25.8661765 L65.8180147,25.8661765 Z M68.1544118,25.1779412 C68.1544118,25.6941176 67.6985294,25.9235294 67.1856618,25.9235294 C66.6727941,25.9235294 66.2169118,25.6367647 66.2169118,25.0632353 L66.7867647,25.0632353 C66.7867647,25.4073529 66.9577206,25.5220588 67.2426471,25.5220588 C67.4705882,25.5220588 67.6415441,25.4647059 67.6415441,25.2352941 C67.6415441,25.0058824 67.4136029,25.0058824 66.9007353,24.7764706 C66.5588235,24.6617647 66.3308824,24.5470588 66.3308824,24.0882353 C66.3308824,23.6294118 66.7297794,23.4 67.2426471,23.4 C67.7555147,23.4 68.1544118,23.7441176 68.1544118,24.2029412 L67.5845588,24.2029412 C67.5845588,23.9735294 67.4705882,23.8014706 67.1856618,23.8014706 C67.0147059,23.8014706 66.84375,23.9161765 66.84375,24.0882353 C66.84375,24.3176471 67.0716912,24.3176471 67.5275735,24.4897059 C67.8125,24.6044118 68.1544118,24.7191176 68.1544118,25.1779412 M71.7444853,24.6617647 C71.7444853,24.2602941 71.4595588,23.9161765 71.0036765,23.9161765 C70.6047794,23.9161765 70.3198529,24.2602941 70.3198529,24.6617647 C70.3198529,25.0632353 70.6047794,25.4073529 71.0036765,25.4073529 C71.4595588,25.4073529 71.7444853,25.0632353 71.7444853,24.6617647 Z M72.3143382,23.4573529 L72.3143382,25.8661765 L71.7444853,25.8661765 L71.7444853,25.5220588 C71.5735294,25.7514706 71.2886029,25.9235294 71.0036765,25.9235294 C70.2628676,25.9235294 69.75,25.35 69.75,24.6617647 C69.75,23.9735294 70.2628676,23.4 71.0036765,23.4 C71.2886029,23.4 71.5735294,23.5720588 71.7444853,23.8014706 L71.7444853,23.4573529 C71.7444853,23.4573529 72.3143382,23.4573529 72.3143382,23.4573529 Z M73.6819853,24.6617647 C73.6819853,25.0632353 73.9669118,25.4073529 74.4227941,25.4073529 C74.8216912,25.4073529 75.1066176,25.0632353 75.1066176,24.6617647 C75.1066176,24.2602941 74.8216912,23.9161765 74.4227941,23.9161765 C73.9669118,23.8588235 73.6819853,24.2029412 73.6819853,24.6617647 Z M73.6819853,23.7441176 C73.8529412,23.5147059 74.1378676,23.3426471 74.4227941,23.3426471 C75.1636029,23.3426471 75.6764706,23.9161765 75.6764706,24.6044118 C75.6764706,25.2926471 75.1636029,25.8661765 74.4227941,25.8661765 C74.1378676,25.8661765 73.8529412,25.6941176 73.6819853,25.4647059 L73.6819853,27.0132353 L73.1121324,27.0132353 L73.1121324,23.3426471 L73.6819853,23.3426471 L73.6819853,23.7441176 L73.6819853,23.7441176 Z M76.8731618,24.6617647 C76.8731618,25.0632353 77.1580882,25.4073529 77.6139706,25.4073529 C78.0128676,25.4073529 78.2977941,25.0632353 78.2977941,24.6617647 C78.2977941,24.2602941 78.0128676,23.9161765 77.6139706,23.9161765 C77.1580882,23.8588235 76.8731618,24.2029412 76.8731618,24.6617647 Z M76.8731618,23.7441176 C77.0441176,23.5147059 77.3290441,23.3426471 77.6139706,23.3426471 C78.3547794,23.3426471 78.8676471,23.9161765 78.8676471,24.6044118 C78.8676471,25.2926471 78.3547794,25.8661765 77.6139706,25.8661765 C77.3290441,25.8661765 77.0441176,25.6941176 76.8731618,25.4647059 L76.8731618,27.0132353 L76.3033088,27.0132353 L76.3033088,23.3426471 L76.8731618,23.3426471 L76.8731618,23.7441176 L76.8731618,23.7441176 Z M79.4944853,25.8661765 L80.0643382,25.8661765 L80.0643382,22.1955882 L79.4944853,22.1955882 L79.4944853,25.8661765 Z M80.8621324,25.8661765 L81.4319853,25.8661765 L81.4319853,23.4573529 L80.8621324,23.4573529 L80.8621324,25.8661765 L80.8621324,25.8661765 Z M81.1470588,22.1382353 C81.375,22.1382353 81.5459559,22.3102941 81.5459559,22.5397059 C81.5459559,22.7691176 81.375,22.9411765 81.1470588,22.9411765 C80.9191176,22.9411765 80.7481618,22.7691176 80.7481618,22.5397059 C80.6911765,22.3102941 80.8621324,22.1382353 81.1470588,22.1382353 L81.1470588,22.1382353 Z M82.5716912,24.6617647 C82.5716912,25.0632353 82.8566176,25.4073529 83.2555147,25.4073529 C83.7113971,25.4073529 83.9963235,25.0632353 83.9963235,24.6617647 C83.9963235,24.2602941 83.7113971,23.9161765 83.2555147,23.9161765 C82.8566176,23.8588235 82.5716912,24.2029412 82.5716912,24.6617647 Z M83.9963235,23.4573529 L84.5661765,23.4573529 L84.5661765,27.1279412 L83.9963235,27.1279412 L83.9963235,25.5794118 C83.8253676,25.8088235 83.5404412,25.9808824 83.2555147,25.9808824 C82.5147059,25.9808824 82.0018382,25.4073529 82.0018382,24.7191176 C82.0018382,24.0308824 82.5147059,23.4573529 83.2555147,23.4573529 C83.5404412,23.4573529 83.8253676,23.6294118 83.9963235,23.8588235 C83.9963235,23.7441176 83.9963235,23.4573529 83.9963235,23.4573529 Z M87.5863971,23.4 L87.5863971,25.8088235 L87.0165441,25.8088235 L87.0165441,25.4647059 C86.8455882,25.7514706 86.5606618,25.8661765 86.21875,25.8661765 C85.8768382,25.8661765 85.6488971,25.7514706 85.4779412,25.5220588 C85.3639706,25.35 85.3069853,25.1205882 85.3069853,24.7764706 L85.3069853,23.3426471 L85.8768382,23.3426471 L85.8768382,24.6617647 C85.8768382,25.0632353 85.9908088,25.4073529 86.3897059,25.4073529 C86.7886029,25.4073529 86.9595588,25.0632353 86.9595588,24.6617647 L86.9595588,23.4 L87.5863971,23.4 L87.5863971,23.4 Z M88.7830882,24.375 L89.9797794,24.375 C89.9797794,24.0308824 89.7518382,23.8014706 89.4099265,23.8014706 C89.0680147,23.8014706 88.7830882,23.9735294 88.7830882,24.375 L88.7830882,24.375 Z M88.8970588,23.2852941 L88.6121324,22.8264706 L89.9227941,22.1382353 L90.2077206,22.5970588 L88.8970588,23.2852941 Z M88.7830882,24.8338235 C88.7830882,25.1779412 88.9540441,25.4647059 89.4099265,25.4647059 C89.7518382,25.4647059 89.8658088,25.2926471 89.9227941,25.1205882 L90.4926471,25.1205882 C90.4356618,25.5220588 90.0367647,25.9235294 89.4099265,25.9235294 C88.6121324,25.9235294 88.2132353,25.35 88.2132353,24.6617647 C88.2132353,23.9161765 88.6691176,23.4 89.4099265,23.4 C90.0367647,23.4 90.5496324,23.8588235 90.5496324,24.4897059 C90.5496324,24.5470588 90.5496324,24.6617647 90.5496324,24.8338235 L88.7830882,24.8338235 L88.7830882,24.8338235 Z M93,25.1779412 C93,25.6941176 92.5441176,25.9235294 92.03125,25.9235294 C91.5183824,25.9235294 91.0625,25.6367647 91.0625,25.0632353 L91.6323529,25.0632353 C91.6323529,25.4073529 91.8033088,25.5220588 92.0882353,25.5220588 C92.3161765,25.5220588 92.4871324,25.4647059 92.4871324,25.2352941 C92.4871324,25.0058824 92.2591912,25.0058824 91.7463235,24.7764706 C91.4044118,24.6617647 91.1764706,24.5470588 91.1764706,24.0882353 C91.1764706,23.6294118 91.5753676,23.4 92.0882353,23.4 C92.6011029,23.4 93,23.7441176 93,24.2029412 L92.4301471,24.2029412 C92.4301471,23.9735294 92.3161765,23.8014706 92.03125,23.8014706 C91.8602941,23.8014706 91.6893382,23.9161765 91.6893382,24.0882353 C91.6893382,24.3176471 91.9172794,24.3176471 92.3731618,24.4897059 C92.6580882,24.6044118 93,24.7191176 93,25.1779412 M1.13970588,30.2823529 L1.13970588,31.3147059 L1.82352941,31.3147059 C2.33639706,31.3147059 2.39338235,31.0279412 2.39338235,30.7985294 C2.39338235,30.6264706 2.27941176,30.2823529 1.82352941,30.2823529 L1.13970588,30.2823529 L1.13970588,30.2823529 Z M1.76654412,29.7088235 C2.27941176,29.7088235 2.33639706,29.3647059 2.33639706,29.1926471 C2.33639706,29.0205882 2.27941176,28.6764706 1.76654412,28.6764706 L1.13970588,28.6764706 L1.13970588,29.6514706 C1.13970588,29.7088235 1.76654412,29.7088235 1.76654412,29.7088235 Z M0.512867647,28.2176471 L1.76654412,28.2176471 C2.73529412,28.2176471 2.90625,28.8485294 2.90625,29.1926471 C2.90625,29.6514706 2.56433824,29.9382353 2.27941176,29.9955882 C2.50735294,29.9955882 2.96323529,30.2823529 2.96323529,30.7985294 C2.96323529,31.2 2.79227941,31.8308824 1.76654412,31.8308824 L0.512867647,31.8308824 L0.512867647,28.2176471 Z M4.10294118,30.3970588 L5.29963235,30.3970588 C5.29963235,30.0529412 5.07169118,29.8235294 4.72977941,29.8235294 C4.33088235,29.7661765 4.10294118,29.9955882 4.10294118,30.3970588 L4.10294118,30.3970588 Z M4.10294118,30.7985294 C4.10294118,31.1426471 4.27389706,31.4294118 4.72977941,31.4294118 C5.07169118,31.4294118 5.18566176,31.2573529 5.24264706,31.0852941 L5.8125,31.0852941 C5.75551471,31.4867647 5.35661765,31.8882353 4.72977941,31.8882353 C3.93198529,31.8882353 3.53308824,31.3147059 3.53308824,30.6264706 C3.53308824,29.8808824 3.98897059,29.3647059 4.72977941,29.3647059 C5.35661765,29.3647059 5.86948529,29.8235294 5.86948529,30.4544118 C5.86948529,30.5117647 5.86948529,30.6264706 5.86948529,30.7985294 L4.10294118,30.7985294 L4.10294118,30.7985294 Z M8.03492647,29.9382353 C7.97794118,29.9382353 7.86397059,29.9382353 7.80698529,29.9382353 C7.35110294,29.9382353 7.06617647,30.225 7.06617647,30.7985294 L7.06617647,31.8308824 L6.49632353,31.8308824 L6.49632353,29.4220588 L7.06617647,29.4220588 L7.06617647,29.8235294 C7.18014706,29.5941176 7.46507353,29.4220588 7.80698529,29.4220588 C7.92095588,29.4220588 7.97794118,29.4220588 8.03492647,29.4794118 C8.03492647,29.4220588 8.03492647,29.9382353 8.03492647,29.9382353 Z M10.7132353,29.4220588 L10.7132353,31.8308824 L10.1433824,31.8308824 L10.1433824,31.4867647 C9.97242647,31.7735294 9.6875,31.8882353 9.34558824,31.8882353 C9.00367647,31.8882353 8.77573529,31.7735294 8.60477941,31.5441176 C8.49080882,31.3720588 8.43382353,31.1426471 8.43382353,30.7985294 L8.43382353,29.3647059 L9.00367647,29.3647059 L9.00367647,30.6264706 C9.00367647,31.0279412 9.11764706,31.3720588 9.51654412,31.3720588 C9.91544118,31.3720588 10.0863971,31.0279412 10.0863971,30.6264706 L10.0863971,29.3647059 C10.1433824,29.4220588 10.7132353,29.4220588 10.7132353,29.4220588 Z M12.9356618,28.7338235 C12.8786765,28.7338235 12.7647059,28.6764706 12.7077206,28.6764706 C12.5367647,28.6764706 12.3088235,28.6764706 12.3088235,29.0779412 L12.3088235,29.4220588 L12.9356618,29.4220588 L12.9356618,29.8808824 L12.3088235,29.8808824 L12.3088235,31.8308824 L11.7389706,31.8308824 L11.7389706,29.8808824 L11.2261029,29.8808824 L11.2261029,29.4220588 L11.7389706,29.4220588 L11.7389706,29.1352941 C11.7389706,28.2176471 12.3088235,28.1602941 12.59375,28.1602941 C12.7647059,28.1602941 12.8786765,28.2176471 12.9356618,28.2176471 L12.9356618,28.7338235 L12.9356618,28.7338235 Z M15.2720588,31.1426471 C15.2720588,31.6588235 14.8161765,31.8882353 14.3033088,31.8882353 C13.7904412,31.8882353 13.3345588,31.6014706 13.3345588,31.0279412 L13.9044118,31.0279412 C13.9044118,31.3720588 14.0753676,31.4867647 14.3602941,31.4867647 C14.5882353,31.4867647 14.7591912,31.4294118 14.7591912,31.2 C14.7591912,30.9705882 14.53125,30.9705882 14.0183824,30.7411765 C13.6764706,30.6264706 13.4485294,30.5117647 13.4485294,30.0529412 C13.4485294,29.5941176 13.8474265,29.3647059 14.3602941,29.3647059 C14.8731618,29.3647059 15.2720588,29.7088235 15.2720588,30.1676471 L14.7022059,30.1676471 C14.7022059,29.9382353 14.5882353,29.7661765 14.3033088,29.7661765 C14.1323529,29.7661765 13.9613971,29.8808824 13.9613971,30.0529412 C13.9613971,30.2823529 14.1893382,30.2823529 14.6452206,30.4544118 C14.9301471,30.6264706 15.2720588,30.7411765 15.2720588,31.1426471 M17.3235294,28.7338235 C17.2665441,28.6764706 17.1525735,28.6764706 17.0955882,28.6764706 C16.9246324,28.6764706 16.6966912,28.6764706 16.6966912,29.0779412 L16.6966912,29.4220588 L17.3235294,29.4220588 L17.3235294,29.8808824 L16.6966912,29.8808824 L16.6966912,31.8308824 L16.1268382,31.8308824 L16.1268382,29.8808824 L15.6139706,29.8808824 L15.6139706,29.4220588 L16.1268382,29.4220588 L16.1268382,29.1352941 C16.1268382,28.2176471 16.6966912,28.1602941 16.9816176,28.1602941 C17.1525735,28.1602941 17.2665441,28.2176471 17.3235294,28.2176471 L17.3235294,28.7338235 L17.3235294,28.7338235 Z M19.6599265,30.6264706 C19.6599265,30.225 19.375,29.8808824 18.9191176,29.8808824 C18.5202206,29.8808824 18.2352941,30.225 18.2352941,30.6264706 C18.2352941,31.0279412 18.5202206,31.3720588 18.9191176,31.3720588 C19.375,31.4294118 19.6599265,31.0279412 19.6599265,30.6264706 L19.6599265,30.6264706 Z M20.2297794,29.4220588 L20.2297794,31.8308824 L19.6599265,31.8308824 L19.6599265,31.5441176 C19.4889706,31.7735294 19.2040441,31.9455882 18.9191176,31.9455882 C18.1783088,31.9455882 17.6654412,31.3720588 17.6654412,30.6838235 C17.6654412,29.9955882 18.1783088,29.4220588 18.9191176,29.4220588 C19.2040441,29.4220588 19.4889706,29.5941176 19.6599265,29.8235294 L19.6599265,29.4794118 L20.2297794,29.4220588 L20.2297794,29.4220588 Z M22.6231618,30.2823529 C22.5661765,29.9955882 22.4522059,29.8235294 22.0533088,29.8235294 C21.5974265,29.8235294 21.4264706,30.1676471 21.4264706,30.5691176 C21.4264706,30.9705882 21.5974265,31.3147059 22.1102941,31.3147059 C22.4522059,31.3147059 22.5661765,31.1426471 22.6231618,30.9132353 L23.1930147,30.9132353 C23.1360294,31.4294118 22.7371324,31.8308824 22.0533088,31.8308824 C21.2555147,31.8308824 20.8566176,31.2 20.8566176,30.5691176 C20.8566176,29.9382353 21.2555147,29.3073529 22.0533088,29.3073529 C22.8511029,29.3073529 23.1360294,29.7661765 23.1930147,30.2823529 L22.6231618,30.2823529 L22.6231618,30.2823529 Z M23.8768382,28.2176471 L24.4466912,28.2176471 L24.4466912,29.7661765 C24.6176471,29.4794118 24.9025735,29.3647059 25.2444853,29.3647059 C25.5863971,29.3647059 25.8143382,29.4794118 25.9852941,29.7088235 C26.0992647,29.8808824 26.15625,30.1102941 26.15625,30.4544118 L26.15625,31.8882353 L25.5863971,31.8882353 L25.5863971,30.6264706 C25.5863971,30.225 25.4724265,29.8808824 25.0735294,29.8808824 C24.6746324,29.8808824 24.5036765,30.225 24.5036765,30.6264706 L24.5036765,31.8882353 L23.9338235,31.8882353 L23.8768382,28.2176471 L23.8768382,28.2176471 Z M28.6066176,31.1426471 C28.6066176,31.6588235 28.1507353,31.8882353 27.6378676,31.8882353 C27.125,31.8882353 26.6691176,31.6014706 26.6691176,31.0279412 L27.2389706,31.0279412 C27.2389706,31.3720588 27.4099265,31.4867647 27.6948529,31.4867647 C27.9227941,31.4867647 28.09375,31.4294118 28.09375,31.2 C28.09375,30.9705882 27.8658088,30.9705882 27.3529412,30.7411765 C27.0110294,30.6264706 26.7830882,30.5117647 26.7830882,30.0529412 C26.7830882,29.5941176 27.1819853,29.3647059 27.6948529,29.3647059 C28.2077206,29.3647059 28.6066176,29.7088235 28.6066176,30.1676471 L28.0367647,30.1676471 C28.0367647,29.9382353 27.9227941,29.7661765 27.6378676,29.7661765 C27.4669118,29.7661765 27.2959559,29.8808824 27.2959559,30.0529412 C27.2959559,30.2823529 27.5238971,30.2823529 27.9797794,30.4544118 C28.3216912,30.6264706 28.6066176,30.7411765 28.6066176,31.1426471 M30.8860294,30.2823529 C30.8290441,29.9955882 30.7150735,29.8235294 30.3161765,29.8235294 C29.8602941,29.8235294 29.6893382,30.1676471 29.6893382,30.5691176 C29.6893382,30.9705882 29.8602941,31.3147059 30.3731618,31.3147059 C30.7150735,31.3147059 30.8290441,31.1426471 30.8860294,30.9132353 L31.4558824,30.9132353 C31.3988971,31.4294118 31,31.8308824 30.3161765,31.8308824 C29.5183824,31.8308824 29.1194853,31.2 29.1194853,30.5691176 C29.1194853,29.9382353 29.5183824,29.3073529 30.3161765,29.3073529 C31.1139706,29.3073529 31.3988971,29.7661765 31.4558824,30.2823529 C31.4558824,30.2823529 30.8860294,30.2823529 30.8860294,30.2823529 Z M32.1397059,28.2176471 L32.7095588,28.2176471 L32.7095588,29.7661765 C32.8805147,29.4794118 33.1654412,29.3647059 33.5073529,29.3647059 C33.8492647,29.3647059 34.0772059,29.4794118 34.2481618,29.7088235 C34.3621324,29.8808824 34.4191176,30.1102941 34.4191176,30.4544118 L34.4191176,31.8882353 L33.8492647,31.8882353 L33.8492647,30.6264706 C33.8492647,30.225 33.7352941,29.8808824 33.3363971,29.8808824 C32.9375,29.8808824 32.7665441,30.225 32.7665441,30.6264706 L32.7665441,31.8882353 L32.1966912,31.8882353 L32.1397059,28.2176471 L32.1397059,28.2176471 Z M37.3253676,29.4220588 L37.3253676,31.8308824 L36.7555147,31.8308824 L36.7555147,31.4867647 C36.5845588,31.7735294 36.2996324,31.8882353 35.9577206,31.8882353 C35.6158088,31.8882353 35.3878676,31.7735294 35.2169118,31.5441176 C35.1029412,31.3720588 35.0459559,31.1426471 35.0459559,30.7985294 L35.0459559,29.3647059 L35.6158088,29.3647059 L35.6158088,30.6264706 C35.6158088,31.0279412 35.7297794,31.3720588 36.1286765,31.3720588 C36.5275735,31.3720588 36.6985294,31.0279412 36.6985294,30.6264706 L36.6985294,29.3647059 L37.3253676,29.4220588 L37.3253676,29.4220588 Z M38.1231618,31.8308824 L38.6930147,31.8308824 L38.6930147,28.1602941 L38.1231618,28.1602941 L38.1231618,31.8308824 Z M39.8897059,30.3970588 L41.0863971,30.3970588 C41.0863971,30.0529412 40.8584559,29.8235294 40.5165441,29.8235294 C40.1176471,29.7661765 39.8897059,29.9955882 39.8897059,30.3970588 L39.8897059,30.3970588 Z M39.8897059,30.7985294 C39.8897059,31.1426471 40.0606618,31.4294118 40.5165441,31.4294118 C40.8584559,31.4294118 40.9724265,31.2573529 41.0294118,31.0852941 L41.5992647,31.0852941 C41.5422794,31.4867647 41.1433824,31.8882353 40.5165441,31.8882353 C39.71875,31.8882353 39.3198529,31.3147059 39.3198529,30.6264706 C39.3198529,29.8808824 39.7757353,29.3647059 40.5165441,29.3647059 C41.1433824,29.3647059 41.65625,29.8235294 41.65625,30.4544118 C41.65625,30.5117647 41.65625,30.6264706 41.65625,30.7985294 L39.8897059,30.7985294 L39.8897059,30.7985294 Z M44.8474265,28.7338235 C44.7904412,28.7338235 44.6764706,28.6764706 44.6194853,28.6764706 C44.4485294,28.6764706 44.2205882,28.6764706 44.2205882,29.0779412 L44.2205882,29.4220588 L44.8474265,29.4220588 L44.8474265,29.8808824 L44.2205882,29.8808824 L44.2205882,31.8308824 L43.6507353,31.8308824 L43.6507353,29.8808824 L43.1378676,29.8808824 L43.1378676,29.4220588 L43.6507353,29.4220588 L43.6507353,29.1352941 C43.6507353,28.2176471 44.2205882,28.1602941 44.5055147,28.1602941 C44.6764706,28.1602941 44.7904412,28.2176471 44.8474265,28.2176471 L44.8474265,28.7338235 L44.8474265,28.7338235 Z M45.8161765,28.2176471 C46.0441176,28.2176471 46.2150735,28.3897059 46.2150735,28.6191176 C46.2150735,28.8485294 46.0441176,29.0205882 45.8161765,29.0205882 C45.5882353,29.0205882 45.4172794,28.8485294 45.4172794,28.6191176 C45.4172794,28.3897059 45.5882353,28.2176471 45.8161765,28.2176471 Z M47.5257353,31.8308824 L46.9558824,31.8308824 L46.9558824,31.4867647 C46.7849265,31.7735294 46.5,31.8882353 46.1580882,31.8882353 C45.8161765,31.8882353 45.5882353,31.7735294 45.4172794,31.5441176 C45.3033088,31.3720588 45.2463235,31.1426471 45.2463235,30.7985294 L45.2463235,29.3647059 L45.8161765,29.3647059 L45.8161765,30.6264706 C45.8161765,31.0279412 45.9301471,31.3720588 46.3290441,31.3720588 C46.7279412,31.3720588 46.8988971,31.0279412 46.8988971,30.6264706 L46.8988971,29.3647059 L47.46875,29.3647059 L47.46875,31.8308824 L47.5257353,31.8308824 Z M49.8621324,29.9382353 C49.8051471,29.9382353 49.6911765,29.9382353 49.6341912,29.9382353 C49.1783088,29.9382353 48.8933824,30.225 48.8933824,30.7985294 L48.8933824,31.8308824 L48.3235294,31.8308824 L48.3235294,29.4220588 L48.8933824,29.4220588 L48.8933824,29.8235294 C49.0073529,29.5941176 49.2922794,29.4220588 49.6341912,29.4220588 C49.7481618,29.4220588 49.8051471,29.4220588 49.8621324,29.4794118 C49.8621324,29.4220588 49.8621324,29.9382353 49.8621324,29.9382353 Z M53.6231618,29.9955882 L55.3327206,29.9955882 L55.3327206,30.5117647 L54.9338235,30.5117647 C54.7628676,31.3147059 54.1930147,31.8882353 53.1672794,31.8882353 C51.9705882,31.8882353 51.2867647,30.9705882 51.2867647,29.9955882 C51.2867647,29.0205882 52.0275735,28.1029412 53.1672794,28.1029412 C54.0220588,28.1029412 54.6488971,28.6191176 54.7058824,29.3073529 L54.1360294,29.3073529 C54.0790441,28.9632353 53.6801471,28.6764706 53.1672794,28.6764706 C52.3694853,28.6764706 51.9136029,29.3647059 51.9136029,30.0529412 C51.9136029,30.7411765 52.3694853,31.4294118 53.2242647,31.4294118 C53.8511029,31.4294118 54.1930147,31.0279412 54.3069853,30.5691176 L53.6231618,30.5691176 C53.6231618,30.5691176 53.6231618,29.9955882 53.6231618,29.9955882 Z M56.3014706,30.3970588 L57.4981618,30.3970588 C57.4981618,30.0529412 57.2702206,29.8235294 56.9283088,29.8235294 C56.5863971,29.7661765 56.3014706,29.9955882 56.3014706,30.3970588 Z M56.3014706,30.7985294 C56.3014706,31.1426471 56.4724265,31.4294118 56.9283088,31.4294118 C57.2702206,31.4294118 57.3841912,31.2573529 57.4411765,31.0852941 L58.0110294,31.0852941 C57.9540441,31.4867647 57.5551471,31.8882353 56.9283088,31.8882353 C56.1305147,31.8882353 55.7316176,31.3147059 55.7316176,30.6264706 C55.7316176,29.8808824 56.1875,29.3647059 56.9283088,29.3647059 C57.5551471,29.3647059 58.0680147,29.8235294 58.0680147,30.4544118 C58.0680147,30.5117647 58.0680147,30.6264706 58.0680147,30.7985294 L56.3014706,30.7985294 L56.3014706,30.7985294 Z M60.5183824,31.1426471 C60.5183824,31.6588235 60.0625,31.8882353 59.5496324,31.8882353 C59.0367647,31.8882353 58.5808824,31.6014706 58.5808824,31.0279412 L59.1507353,31.0279412 C59.1507353,31.3720588 59.3216912,31.4867647 59.6066176,31.4867647 C59.8345588,31.4867647 60.0055147,31.4294118 60.0055147,31.2 C60.0055147,30.9705882 59.7775735,30.9705882 59.2647059,30.7411765 C58.9227941,30.6264706 58.6948529,30.5117647 58.6948529,30.0529412 C58.6948529,29.5941176 59.09375,29.3647059 59.6066176,29.3647059 C60.1194853,29.3647059 60.5183824,29.7088235 60.5183824,30.1676471 L59.9485294,30.1676471 C59.9485294,29.9382353 59.8345588,29.7661765 59.5496324,29.7661765 C59.3786765,29.7661765 59.2077206,29.8808824 59.2077206,30.0529412 C59.2077206,30.2823529 59.4356618,30.2823529 59.8915441,30.4544118 C60.1764706,30.6264706 60.5183824,30.7411765 60.5183824,31.1426471 M62.5128676,31.8308824 C62.3988971,31.8308824 62.2279412,31.8882353 62.1139706,31.8882353 C61.8290441,31.8882353 61.3161765,31.8308824 61.3161765,31.0279412 L61.3161765,29.8808824 L60.9172794,29.8808824 L60.9172794,29.4220588 L61.3161765,29.4220588 L61.3161765,28.6764706 L61.8860294,28.6764706 L61.8860294,29.4220588 L62.4558824,29.4220588 L62.4558824,29.8808824 L61.8860294,29.8808824 L61.8860294,30.8558824 C61.8860294,31.2573529 62,31.3147059 62.2279412,31.3147059 C62.3419118,31.3147059 62.4558824,31.3147059 62.5128676,31.3147059 C62.5128676,31.3720588 62.5128676,31.8308824 62.5128676,31.8308824 Z M64.8492647,30.6264706 C64.8492647,30.225 64.5643382,29.8808824 64.1084559,29.8808824 C63.7095588,29.8808824 63.4246324,30.225 63.4246324,30.6264706 C63.4246324,31.0279412 63.7095588,31.3720588 64.1084559,31.3720588 C64.5643382,31.4294118 64.8492647,31.0279412 64.8492647,30.6264706 Z M65.4191176,29.4220588 L65.4191176,31.8308824 L64.8492647,31.8308824 L64.8492647,31.5441176 C64.6783088,31.7735294 64.3933824,31.9455882 64.1084559,31.9455882 C63.3676471,31.9455882 62.8547794,31.3720588 62.8547794,30.6838235 C62.8547794,29.9955882 63.3676471,29.4220588 64.1084559,29.4220588 C64.3933824,29.4220588 64.6783088,29.5941176 64.8492647,29.8235294 L64.8492647,29.4794118 C64.8492647,29.4220588 65.4191176,29.4220588 65.4191176,29.4220588 Z M66.2169118,31.8308824 L66.7867647,31.8308824 L66.7867647,28.1602941 L66.2169118,28.1602941 L66.2169118,31.8308824 Z M68.9522059,31.8308824 C68.8382353,31.8308824 68.6672794,31.8882353 68.5533088,31.8882353 C68.2683824,31.8882353 67.7555147,31.8308824 67.7555147,31.0279412 L67.7555147,29.8808824 L67.3566176,29.8808824 L67.3566176,29.4220588 L67.7555147,29.4220588 L67.7555147,28.6764706 L68.3253676,28.6764706 L68.3253676,29.4220588 L68.8952206,29.4220588 L68.8952206,29.8808824 L68.3253676,29.8808824 L68.3253676,30.8558824 C68.3253676,31.2573529 68.4393382,31.3147059 68.6672794,31.3147059 C68.78125,31.3147059 68.8952206,31.3147059 68.9522059,31.3147059 L68.9522059,31.8308824 L68.9522059,31.8308824 Z M71.6305147,29.4220588 L71.6305147,31.8308824 L71.0606618,31.8308824 L71.0606618,31.4867647 C70.8897059,31.7735294 70.6047794,31.8882353 70.2628676,31.8882353 C69.9209559,31.8882353 69.6930147,31.7735294 69.5220588,31.5441176 C69.4080882,31.3720588 69.3511029,31.1426471 69.3511029,30.7985294 L69.3511029,29.3647059 L69.9209559,29.3647059 L69.9209559,30.6264706 C69.9209559,31.0279412 70.0349265,31.3720588 70.4338235,31.3720588 C70.8327206,31.3720588 71.0036765,31.0279412 71.0036765,30.6264706 L71.0036765,29.3647059 C71.0606618,29.4220588 71.6305147,29.4220588 71.6305147,29.4220588 Z M72.4283088,29.4220588 L72.9981618,29.4220588 L72.9981618,29.7661765 C73.1691176,29.4794118 73.4540441,29.3647059 73.7959559,29.3647059 C74.1378676,29.3647059 74.3658088,29.4794118 74.5367647,29.7088235 C74.6507353,29.8808824 74.7077206,30.1102941 74.7077206,30.4544118 L74.7077206,31.8882353 L74.1378676,31.8882353 L74.1378676,30.6264706 C74.1378676,30.225 74.0238971,29.8808824 73.625,29.8808824 C73.2261029,29.8808824 73.0551471,30.225 73.0551471,30.6264706 L73.0551471,31.8882353 L72.4852941,31.8882353 C72.4283088,31.8308824 72.4283088,29.4220588 72.4283088,29.4220588 Z M75.8474265,30.6264706 C75.8474265,31.0279412 76.1323529,31.3720588 76.53125,31.3720588 C76.9871324,31.3720588 77.2720588,31.0279412 77.2720588,30.6264706 C77.2720588,30.225 76.9871324,29.8808824 76.53125,29.8808824 C76.1323529,29.8808824 75.8474265,30.225 75.8474265,30.6264706 Z M77.8419118,31.9455882 C77.8419118,32.3470588 77.7279412,32.6338235 77.5,32.8058824 C77.2720588,32.9779412 76.9301471,33.0926471 76.53125,33.0926471 C76.1323529,33.0926471 75.8474265,32.9779412 75.6194853,32.8058824 C75.4485294,32.6338235 75.3345588,32.4044118 75.2775735,32.1176471 L75.8474265,32.1176471 C75.9044118,32.4044118 76.0753676,32.6338235 76.4742647,32.6338235 C76.9301471,32.6338235 77.2150735,32.4617647 77.2150735,32.0029412 L77.2150735,31.5441176 C77.0441176,31.7735294 76.7591912,31.9455882 76.4742647,31.9455882 C75.7334559,31.9455882 75.2205882,31.3720588 75.2205882,30.6838235 C75.2205882,29.9955882 75.7334559,29.4220588 76.4742647,29.4220588 C76.7591912,29.4220588 77.0441176,29.5941176 77.2150735,29.8235294 L77.2150735,29.4794118 L77.7849265,29.4794118 C77.8419118,29.4220588 77.8419118,31.9455882 77.8419118,31.9455882 Z M1.82352941,37.8529412 L1.42463235,37.8529412 L0.170955882,34.1823529 L0.797794118,34.1823529 L1.65257353,36.8205882 L2.50735294,34.1823529 L3.13419118,34.1823529 L1.82352941,37.8529412 Z M5.12867647,36.6485294 C5.12867647,36.2470588 4.84375,35.9029412 4.38786765,35.9029412 C3.98897059,35.9029412 3.70404412,36.2470588 3.70404412,36.6485294 C3.70404412,37.05 3.98897059,37.3941176 4.38786765,37.3941176 C4.84375,37.3941176 5.12867647,37.05 5.12867647,36.6485294 M3.13419118,36.6485294 C3.13419118,35.9602941 3.64705882,35.3867647 4.38786765,35.3867647 C5.18566176,35.3867647 5.64154412,35.9602941 5.64154412,36.6485294 C5.64154412,37.3367647 5.12867647,37.9102941 4.38786765,37.9102941 C3.64705882,37.9102941 3.13419118,37.2794118 3.13419118,36.6485294 M7.97794118,36.3044118 C7.92095588,36.0176471 7.80698529,35.8455882 7.40808824,35.8455882 C6.95220588,35.8455882 6.78125,36.1897059 6.78125,36.5911765 C6.78125,36.9926471 6.95220588,37.3367647 7.46507353,37.3367647 C7.80698529,37.3367647 7.92095588,37.1647059 7.97794118,36.9352941 L8.54779412,36.9352941 C8.49080882,37.4514706 8.09191176,37.8529412 7.40808824,37.8529412 C6.61029412,37.8529412 6.21139706,37.2220588 6.21139706,36.5911765 C6.21139706,35.9602941 6.61029412,35.3294118 7.40808824,35.3294118 C8.20588235,35.3294118 8.49080882,35.7882353 8.54779412,36.3044118 L7.97794118,36.3044118 L7.97794118,36.3044118 Z M10.9981618,36.6485294 C10.9981618,36.2470588 10.7132353,35.9029412 10.2573529,35.9029412 C9.85845588,35.9029412 9.57352941,36.2470588 9.57352941,36.6485294 C9.57352941,37.05 9.85845588,37.3941176 10.2573529,37.3941176 C10.7132353,37.3941176 10.9981618,37.05 10.9981618,36.6485294 Z M11.5680147,35.3867647 L11.5680147,37.8529412 L10.9981618,37.8529412 L10.9981618,37.5088235 C10.8272059,37.7382353 10.5422794,37.9102941 10.2573529,37.9102941 C9.51654412,37.9102941 9.00367647,37.3367647 9.00367647,36.6485294 C9.00367647,35.9602941 9.51654412,35.3867647 10.2573529,35.3867647 C10.5422794,35.3867647 10.8272059,35.5588235 10.9981618,35.7882353 L10.9981618,35.4441176 L11.5680147,35.3867647 L11.5680147,35.3867647 Z M13.6764706,37.8529412 C13.5625,37.8529412 13.3915441,37.9102941 13.2775735,37.9102941 C12.9926471,37.9102941 12.4797794,37.8529412 12.4797794,37.05 L12.4797794,35.9029412 L12.0808824,35.9029412 L12.0808824,35.4441176 L12.4797794,35.4441176 L12.4797794,34.6985294 L13.0496324,34.6985294 L13.0496324,35.4441176 L13.6194853,35.4441176 L13.6194853,35.9029412 L13.0496324,35.9029412 L13.0496324,36.8779412 C13.0496324,37.2794118 13.1636029,37.3367647 13.3915441,37.3367647 C13.5055147,37.3367647 13.6194853,37.3367647 13.6764706,37.3367647 L13.6764706,37.8529412 L13.6764706,37.8529412 Z M14.1893382,37.8529412 L14.7591912,37.8529412 L14.7591912,35.4441176 L14.1893382,35.4441176 L14.1893382,37.8529412 Z M14.4742647,34.125 C14.7022059,34.125 14.9301471,34.2970588 14.9301471,34.5264706 C14.9301471,34.7558824 14.7591912,34.9852941 14.53125,34.9852941 L14.4742647,34.9852941 C14.2463235,34.9852941 14.0753676,34.7558824 14.0753676,34.5264706 C14.1323529,34.2970588 14.3033088,34.125 14.4742647,34.125 L14.4742647,34.125 Z M17.3805147,36.6485294 C17.3805147,36.2470588 17.0955882,35.9029412 16.6397059,35.9029412 C16.2408088,35.9029412 15.9558824,36.2470588 15.9558824,36.6485294 C15.9558824,37.05 16.2408088,37.3941176 16.6397059,37.3941176 C17.0955882,37.3941176 17.3805147,37.05 17.3805147,36.6485294 M15.3860294,36.6485294 C15.3860294,35.9602941 15.8988971,35.3867647 16.6397059,35.3867647 C17.4375,35.3867647 17.8933824,35.9602941 17.8933824,36.6485294 C17.8933824,37.3367647 17.3805147,37.9102941 16.6397059,37.9102941 C15.8988971,37.9102941 15.3860294,37.2794118 15.3860294,36.6485294 M18.5772059,35.3867647 L19.1470588,35.3867647 L19.1470588,35.7308824 C19.3180147,35.4441176 19.6029412,35.3294118 19.9448529,35.3294118 C20.2867647,35.3294118 20.5147059,35.4441176 20.6856618,35.6735294 C20.7996324,35.8455882 20.8566176,36.075 20.8566176,36.4191176 L20.8566176,37.8529412 L20.2867647,37.8529412 L20.2867647,36.5911765 C20.2867647,36.1897059 20.1727941,35.8455882 19.7738971,35.8455882 C19.375,35.8455882 19.2040441,36.1897059 19.2040441,36.5911765 L19.2040441,37.8529412 L18.6341912,37.8529412 C18.5772059,37.8529412 18.5772059,35.3867647 18.5772059,35.3867647 Z M23.3639706,36.6485294 C23.3639706,36.2470588 23.0790441,35.9029412 22.6231618,35.9029412 C22.2242647,35.9029412 21.9393382,36.2470588 21.9393382,36.6485294 C21.9393382,37.05 22.2242647,37.3941176 22.6231618,37.3941176 C23.0790441,37.3941176 23.3639706,37.05 23.3639706,36.6485294 Z M23.9338235,35.3867647 L23.9338235,37.8529412 L23.3639706,37.8529412 L23.3639706,37.5088235 C23.1930147,37.7382353 22.9080882,37.9102941 22.6231618,37.9102941 C21.8823529,37.9102941 21.3694853,37.3367647 21.3694853,36.6485294 C21.3694853,35.9602941 21.8823529,35.3867647 22.6231618,35.3867647 C22.9080882,35.3867647 23.1930147,35.5588235 23.3639706,35.7882353 L23.3639706,35.4441176 L23.9338235,35.3867647 L23.9338235,35.3867647 Z M24.7316176,37.8529412 L25.3014706,37.8529412 L25.3014706,34.1823529 L24.7316176,34.1823529 L24.7316176,37.8529412 Z M27.6948529,36.6485294 C27.6948529,37.1073529 27.9797794,37.3941176 28.3786765,37.3941176 C28.7205882,37.3941176 28.9485294,37.1647059 28.9485294,36.8779412 C28.9485294,36.5338235 28.6066176,36.3617647 28.3786765,36.3044118 C27.6948529,36.075 27.1819853,35.8455882 27.1819853,35.1573529 C27.1819853,34.5264706 27.6948529,34.1823529 28.3216912,34.1823529 C28.9485294,34.1823529 29.4613971,34.6411765 29.4613971,35.3294118 L28.8915441,35.3294118 C28.8915441,34.9852941 28.6636029,34.6985294 28.3216912,34.6985294 C28.0367647,34.6985294 27.7518382,34.8705882 27.7518382,35.1573529 C27.7518382,35.4441176 28.0367647,35.6161765 28.2647059,35.6735294 C28.8345588,35.9029412 29.5183824,36.1323529 29.5183824,36.8205882 C29.5183824,37.5661765 28.9485294,37.9676471 28.2647059,37.9676471 C27.5808824,37.9676471 27.0110294,37.5088235 27.0110294,36.7058824 C27.125,36.6485294 27.6948529,36.6485294 27.6948529,36.6485294 Z M31.9117647,36.3044118 C31.8547794,36.0176471 31.7408088,35.8455882 31.3419118,35.8455882 C30.8860294,35.8455882 30.7150735,36.1897059 30.7150735,36.5911765 C30.7150735,36.9926471 30.8860294,37.3367647 31.3988971,37.3367647 C31.7408088,37.3367647 31.8547794,37.1647059 31.9117647,36.9352941 L32.4816176,36.9352941 C32.4246324,37.4514706 32.0257353,37.8529412 31.3419118,37.8529412 C30.5441176,37.8529412 30.1452206,37.2220588 30.1452206,36.5911765 C30.1452206,35.9602941 30.5441176,35.3294118 31.3419118,35.3294118 C32.1397059,35.3294118 32.4246324,35.7882353 32.4816176,36.3044118 L31.9117647,36.3044118 L31.9117647,36.3044118 Z M33.1084559,34.1823529 L33.6783088,34.1823529 L33.6783088,35.7308824 C33.8492647,35.4441176 34.1341912,35.3294118 34.4761029,35.3294118 C34.8180147,35.3294118 35.0459559,35.4441176 35.2169118,35.6735294 C35.3308824,35.8455882 35.3878676,36.075 35.3878676,36.4191176 L35.3878676,37.8529412 L34.8180147,37.8529412 L34.8180147,36.5911765 C34.8180147,36.1897059 34.7040441,35.8455882 34.3051471,35.8455882 C33.90625,35.8455882 33.7352941,36.1897059 33.7352941,36.5911765 L33.7352941,37.8529412 L33.1654412,37.8529412 L33.1084559,34.1823529 L33.1084559,34.1823529 Z M37.8952206,36.6485294 C37.8952206,36.2470588 37.6102941,35.9029412 37.1544118,35.9029412 C36.7555147,35.9029412 36.4705882,36.2470588 36.4705882,36.6485294 C36.4705882,37.05 36.7555147,37.3941176 37.1544118,37.3941176 C37.6672794,37.3941176 37.8952206,37.05 37.8952206,36.6485294 M35.9577206,36.6485294 C35.9577206,35.9602941 36.4705882,35.3867647 37.2113971,35.3867647 C38.0091912,35.3867647 38.4650735,35.9602941 38.4650735,36.6485294 C38.4650735,37.3367647 37.9522059,37.9102941 37.2113971,37.9102941 C36.4136029,37.9102941 35.9577206,37.2794118 35.9577206,36.6485294 M40.9154412,36.6485294 C40.9154412,36.2470588 40.6305147,35.9029412 40.1746324,35.9029412 C39.7757353,35.9029412 39.4908088,36.2470588 39.4908088,36.6485294 C39.4908088,37.05 39.7757353,37.3941176 40.1746324,37.3941176 C40.6875,37.3941176 40.9154412,37.05 40.9154412,36.6485294 M38.9779412,36.6485294 C38.9779412,35.9602941 39.4908088,35.3867647 40.2316176,35.3867647 C41.0294118,35.3867647 41.4852941,35.9602941 41.4852941,36.6485294 C41.4852941,37.3367647 40.9724265,37.9102941 40.2316176,37.9102941 C39.4338235,37.9102941 38.9779412,37.2794118 38.9779412,36.6485294 M42.1691176,37.8529412 L42.7389706,37.8529412 L42.7389706,34.1823529 L42.1691176,34.1823529 L42.1691176,37.8529412 Z M46.4430147,36.6485294 C46.4430147,36.2470588 46.1580882,35.9029412 45.7022059,35.9029412 C45.3033088,35.9029412 45.0183824,36.2470588 45.0183824,36.6485294 C45.0183824,37.05 45.3033088,37.3941176 45.7022059,37.3941176 C46.1580882,37.3941176 46.4430147,37.05 46.4430147,36.6485294 M44.5055147,36.6485294 C44.5055147,35.9602941 45.0183824,35.3867647 45.7591912,35.3867647 C46.5569853,35.3867647 47.0128676,35.9602941 47.0128676,36.6485294 C47.0128676,37.3367647 46.5,37.9102941 45.7591912,37.9102941 C44.9613971,37.9102941 44.5055147,37.2794118 44.5055147,36.6485294 M49.0643382,34.6985294 C49.0073529,34.6985294 48.8933824,34.6411765 48.8363971,34.6411765 C48.6654412,34.6411765 48.4375,34.6411765 48.4375,35.0426471 L48.4375,35.3867647 L49.0643382,35.3867647 L49.0643382,35.8455882 L48.4375,35.8455882 L48.4375,37.8529412 L47.8676471,37.8529412 L47.8676471,35.9029412 L47.3547794,35.9029412 L47.3547794,35.4441176 L47.8676471,35.4441176 L47.8676471,35.1573529 C47.8676471,34.2397059 48.4375,34.1823529 48.7224265,34.1823529 C48.8933824,34.1823529 49.0073529,34.2397059 49.0643382,34.2397059 C49.0643382,34.2397059 49.0643382,34.6985294 49.0643382,34.6985294 Z M51.7996324,35.1573529 L51.2867647,36.8205882 L52.3125,36.8205882 L51.7996324,35.1573529 Z M52.6544118,37.8529412 L52.4834559,37.3941176 L51.1158088,37.3941176 L50.9448529,37.8529412 L50.3180147,37.8529412 L51.5716912,34.1823529 L51.9705882,34.1823529 L53.2242647,37.8529412 L52.6544118,37.8529412 Z M54.3069853,36.6485294 C54.3069853,37.05 54.5919118,37.3941176 55.0477941,37.3941176 C55.4466912,37.3941176 55.7316176,37.05 55.7316176,36.6485294 C55.7316176,36.2470588 55.4466912,35.9029412 55.0477941,35.9029412 C54.5919118,35.8455882 54.3069853,36.1897059 54.3069853,36.6485294 L54.3069853,36.6485294 Z M54.3069853,35.7308824 C54.4779412,35.5014706 54.7628676,35.3294118 55.0477941,35.3294118 C55.7886029,35.3294118 56.3014706,35.9029412 56.3014706,36.5911765 C56.3014706,37.2794118 55.7886029,37.8529412 55.0477941,37.8529412 C54.7628676,37.8529412 54.4779412,37.6808824 54.3069853,37.4514706 L54.3069853,39 L53.7371324,39 L53.7371324,35.3294118 L54.3069853,35.3294118 L54.3069853,35.7308824 L54.3069853,35.7308824 Z M57.4981618,36.6485294 C57.4981618,37.05 57.7830882,37.3941176 58.2389706,37.3941176 C58.6378676,37.3941176 58.9227941,37.05 58.9227941,36.6485294 C58.9227941,36.2470588 58.6378676,35.9029412 58.2389706,35.9029412 C57.7830882,35.8455882 57.4981618,36.1897059 57.4981618,36.6485294 Z M57.4981618,35.7308824 C57.6691176,35.5014706 57.9540441,35.3294118 58.2389706,35.3294118 C58.9797794,35.3294118 59.4926471,35.9029412 59.4926471,36.5911765 C59.4926471,37.2794118 58.9797794,37.8529412 58.2389706,37.8529412 C57.9540441,37.8529412 57.6691176,37.6808824 57.4981618,37.4514706 L57.4981618,39 L56.9283088,39 L56.9283088,35.3294118 L57.4981618,35.3294118 L57.4981618,35.7308824 Z M60.1194853,37.8529412 L60.6893382,37.8529412 L60.6893382,34.1823529 L60.1194853,34.1823529 L60.1194853,37.8529412 Z M61.4871324,37.8529412 L62.0569853,37.8529412 L62.0569853,35.4441176 L61.4871324,35.4441176 L61.4871324,37.8529412 Z M61.7720588,34.125 C62,34.125 62.1709559,34.2970588 62.2279412,34.5264706 C62.2279412,34.7558824 62.0569853,34.9279412 61.8290441,34.9852941 C61.8290441,34.9852941 61.8290441,34.9852941 61.7720588,34.9852941 C61.5441176,34.9852941 61.3731618,34.8132353 61.3731618,34.5838235 C61.3161765,34.2970588 61.5441176,34.125 61.7720588,34.125 L61.7720588,34.125 L61.7720588,34.125 Z M63.2536765,36.3617647 L64.4503676,36.3617647 C64.4503676,36.0176471 64.2224265,35.7882353 63.8805147,35.7882353 C63.4816176,35.7882353 63.2536765,35.9602941 63.2536765,36.3617647 L63.2536765,36.3617647 Z M63.2536765,36.8205882 C63.2536765,37.1647059 63.4246324,37.4514706 63.8805147,37.4514706 C64.2224265,37.4514706 64.3363971,37.2794118 64.3933824,37.1073529 L64.9632353,37.1073529 C64.90625,37.5088235 64.5073529,37.9102941 63.8805147,37.9102941 C63.0827206,37.9102941 62.6838235,37.3367647 62.6838235,36.6485294 C62.6838235,35.9029412 63.1397059,35.3867647 63.8805147,35.3867647 C64.5073529,35.3867647 65.0202206,35.8455882 65.0202206,36.4764706 C65.0202206,36.5338235 65.0202206,36.6485294 65.0202206,36.8205882 C64.9632353,36.8205882 63.2536765,36.8205882 63.2536765,36.8205882 Z M67.4705882,36.6485294 C67.4705882,36.2470588 67.1856618,35.9029412 66.7297794,35.9029412 C66.3308824,35.9029412 66.0459559,36.2470588 66.0459559,36.6485294 C66.0459559,37.05 66.3308824,37.3941176 66.7297794,37.3941176 C67.1856618,37.3941176 67.4705882,37.05 67.4705882,36.6485294 L67.4705882,36.6485294 Z M67.4705882,37.5088235 C67.2996324,37.7382353 67.0147059,37.9102941 66.7297794,37.9102941 C65.9889706,37.9102941 65.4761029,37.3367647 65.4761029,36.6485294 C65.4761029,35.9602941 65.9889706,35.3867647 66.7297794,35.3867647 C67.0147059,35.3867647 67.2996324,35.5588235 67.4705882,35.7882353 L67.4705882,34.2397059 L68.0404412,34.2397059 L68.0404412,37.8529412 L67.4705882,37.8529412 L67.4705882,37.5088235 L67.4705882,37.5088235 Z M71.0606618,35.1573529 L70.5477941,36.8205882 L71.5735294,36.8205882 L71.0606618,35.1573529 Z M71.9154412,37.8529412 L71.7444853,37.3941176 L70.3768382,37.3941176 L70.2058824,37.8529412 L69.5790441,37.8529412 L70.8327206,34.1823529 L71.2316176,34.1823529 L72.4852941,37.8529412 C72.5422794,37.8529412 71.9154412,37.8529412 71.9154412,37.8529412 Z M74.5367647,35.9602941 C74.4797794,35.9602941 74.3658088,35.9602941 74.3088235,35.9602941 C73.8529412,35.9602941 73.5680147,36.2470588 73.5680147,36.8205882 L73.5680147,37.8529412 L72.9981618,37.8529412 L72.9981618,35.4441176 L73.5680147,35.4441176 L73.5680147,35.8455882 C73.6819853,35.6161765 73.9669118,35.4441176 74.3088235,35.4441176 C74.4227941,35.4441176 74.4797794,35.4441176 74.5367647,35.5014706 C74.5367647,35.3867647 74.5367647,35.9602941 74.5367647,35.9602941 Z M76.53125,37.8529412 C76.4172794,37.8529412 76.2463235,37.9102941 76.1323529,37.9102941 C75.8474265,37.9102941 75.3345588,37.8529412 75.3345588,37.05 L75.3345588,35.9029412 L74.9356618,35.9029412 L74.9356618,35.4441176 L75.3345588,35.4441176 L75.3345588,34.6985294 L75.9044118,34.6985294 L75.9044118,35.4441176 L76.4742647,35.4441176 L76.4742647,35.9029412 L75.9044118,35.9029412 L75.9044118,36.8779412 C75.9044118,37.2794118 76.0183824,37.3367647 76.2463235,37.3367647 C76.3602941,37.3367647 76.4742647,37.3367647 76.53125,37.3367647 L76.53125,37.8529412 L76.53125,37.8529412 Z M78.8676471,37.1647059 C78.8676471,37.6808824 78.4117647,37.9102941 77.8988971,37.9102941 C77.3860294,37.9102941 76.9301471,37.6235294 76.9301471,37.05 L77.5,37.05 C77.5,37.3941176 77.6709559,37.5088235 77.9558824,37.5088235 C78.1838235,37.5088235 78.3547794,37.4514706 78.3547794,37.2220588 C78.3547794,36.9926471 78.1268382,36.9926471 77.6139706,36.7632353 C77.2720588,36.6485294 77.0441176,36.5338235 77.0441176,36.075 C77.0441176,35.6161765 77.4430147,35.3867647 77.9558824,35.3867647 C78.46875,35.3867647 78.8676471,35.7308824 78.8676471,36.1897059 L78.2977941,36.1897059 C78.2977941,35.9602941 78.1838235,35.7882353 77.8988971,35.7882353 C77.7279412,35.7882353 77.5569853,35.9029412 77.5569853,36.075 C77.5569853,36.3044118 77.7849265,36.3044118 78.2408088,36.4764706 C78.5257353,36.5911765 78.8676471,36.7058824 78.8676471,37.1647059 M6.43933824,7.97205882 C6.43933824,6.71029412 5.58455882,5.96470588 4.33088235,5.96470588 C3.13419118,5.96470588 2.16544118,6.65294118 2.16544118,7.97205882 L6.43933824,7.97205882 L6.43933824,7.97205882 Z M4.33088235,4.24411765 C6.61029412,4.24411765 8.43382353,5.96470588 8.43382353,8.20147059 C8.43382353,8.48823529 8.43382353,8.88970588 8.31985294,9.52058824 L2.10845588,9.52058824 C2.10845588,10.7823529 2.79227941,11.8147059 4.38786765,11.8147059 C5.58455882,11.8147059 5.98345588,11.2985294 6.26838235,10.6676471 L8.31985294,10.6676471 C8.03492647,12.1588235 6.66727941,13.5352941 4.38786765,13.5352941 C1.42463235,13.5352941 0,11.2985294 0,8.88970588 C0,6.25147059 1.53860294,4.24411765 4.33088235,4.24411765 L4.33088235,4.24411765 Z M10.2003676,13.3058824 L12.2518382,13.3058824 L12.2518382,4.47352941 L10.2003676,4.47352941 L10.2003676,13.3058824 L10.2003676,13.3058824 Z M11.2261029,0 C11.9669118,0 12.59375,0.630882353 12.59375,1.37647059 L12.59375,1.37647059 C12.59375,2.12205882 11.9669118,2.75294118 11.2261029,2.75294118 C10.4852941,2.75294118 9.85845588,2.12205882 9.85845588,1.37647059 C9.85845588,0.630882353 10.4852941,0 11.2261029,0 Z M14.4742647,13.3058824 L14.4742647,0.0573529412 L16.5257353,0.0573529412 L16.5257353,8.43088235 L19.7738971,4.53088235 L22.3382353,4.53088235 L18.6911765,8.94705882 L22.3382353,13.3632353 L19.7738971,13.3632353 L16.5257353,9.40588235 L16.5257353,13.3058824 L14.4742647,13.3058824 Z" id="Shape"></path>
                    <path d="M26.8400735,11.7 C28.3786765,11.7 29.4613971,10.3808824 29.4613971,8.88970588 C29.4613971,7.39852941 28.4356618,6.07941176 26.8400735,6.07941176 C25.3014706,6.07941176 24.2757353,7.39852941 24.2757353,8.88970588 C24.2757353,10.4382353 25.3014706,11.7 26.8400735,11.7 M26.8400735,4.24411765 C29.6323529,4.24411765 31.5128676,6.36617647 31.5128676,8.88970588 C31.5128676,11.4132353 29.6893382,13.5352941 26.8400735,13.5352941 C24.0477941,13.5352941 22.2242647,11.4132353 22.2242647,8.88970588 C22.2242647,6.42352941 24.0477941,4.24411765 26.8400735,4.24411765 M32.9944853,13.3058824 L32.9944853,4.47352941 L35.0459559,4.47352941 L35.0459559,5.73529412 C35.6158088,4.76029412 36.5845588,4.24411765 37.8952206,4.24411765 C39.1488971,4.24411765 40.0036765,4.70294118 40.5165441,5.44852941 C40.9724265,6.13676471 41.0863971,6.825 41.0863971,8.08676471 L41.0863971,13.3632353 L39.0349265,13.3632353 L39.0349265,8.775 C39.0349265,7.28382353 38.5790441,6.07941176 37.1544118,6.07941176 C35.7297794,6.07941176 35.0459559,7.22647059 35.0459559,8.775 L35.0459559,13.3632353 C35.1029412,13.3058824 32.9944853,13.3058824 32.9944853,13.3058824 Z M18.0643382,14.7397059 L0.284926471,14.7397059 L0.284926471,15.7147059 L18.4632353,15.7147059 L18.0643382,14.7397059 Z M19.375,14.7397059 L19.8308824,15.7147059 L41.3713235,15.7147059 L41.3713235,14.7397059 L19.375,14.7397059 Z" id="Shape"></path>
                </g>
            </g>
        </g>
    </g>
</svg>