<?xml version="1.0" encoding="UTF-8"?>
<svg width="40px" height="40px" viewBox="0 0 40 40" version="1.1" xmlns="http://www.w3.org/2000/svg" xmlns:xlink="http://www.w3.org/1999/xlink">
    <title>partenaire-fribourg</title>
    <g id="Page-1" stroke="none" stroke-width="1" fill="none" fill-rule="evenodd">
        <g id="partenaire-fribourg" fill="#5E8216" fill-rule="nonzero">
            <path d="M0,18.2 L0,19 C2.3,18.4 4.7,17 6.1,15.8 C7,15 7.8,14 8.4,12.8 C8.4,12.8 8.5,12.7 8.5,12.7 C9.1,11.7 9.5,10.4 9.8,8.9 C10.6,4.9 9.4,0.8 9.1,0.3 C8.7,0 8.3,0 8,0 C8,0 7.8,0 7.8,0 L0,0 L0,9.2 L6,9.2 C6.1,9.2 6.2,9.2 6.2,9.2 C6.4,9.3 6.6,9.4 6.6,9.6 C6.6,9.7 6.6,9.7 6.6,9.8 C6.6,11.6 5.7,15.2 0.6,17.5 L0,17.7 L0,18.2 Z" id="Path"></path>
            <g id="Group" transform="translate(0.000000, 24.000000)">
                <polygon id="Path_00000129916854109057410080000002099630748354245530_" points="0.2 0.1 2.3 0.1 2.3 0.4 0.7 0.4 0.7 1.3 2.2 1.3 2.2 1.6 0.7 1.6 0.7 2.7 2.3 2.7 2.3 3 0.2 3"></polygon>
                <polygon id="Path_00000035533326653917562670000002665323645484470681_" points="3.6 0.4 2.6 0.4 2.6 0.1 5 0.1 5 0.4 4 0.4 4 3 3.6 3"></polygon>
                <path d="M5.9,0.1 L6.3,0.1 L7.5,3.1 L7.1,3.1 L6.7,2.1 L5.4,2.1 L5.1,3 L4.7,3 L5.9,0.1 Z M5.5,1.8 L6.5,1.8 L6.1,0.4 L6.1,0.4 L5.5,1.8 Z" id="Shape"></path>
                <polygon id="Path_00000029754498596189599500000018212797537562129853_" points="8.2 0.4 7.2 0.4 7.2 0.1 9.6 0.1 9.6 0.4 8.6 0.4 8.6 3 8.2 3"></polygon>
                <path d="M11.3,0.1 L12.3,0.1 C13.2,0.1 13.8,0.6 13.8,1.5 C13.8,2.5 13.4,3 12.3,3 L11.3,3 L11.3,0.1 Z M11.7,2.7 L12.4,2.7 C12.7,2.7 13.4,2.6 13.4,1.5 C13.4,0.8 13.1,0.4 12.4,0.4 L11.7,0.4 L11.7,2.7 L11.7,2.7 Z" id="Shape_00000104679729158933089840000006487772153999260047_"></path>
                <polygon id="Path_00000034050167164612536160000006659214295094422947_" points="14.3 0.1 16.4 0.1 16.4 0.4 14.7 0.4 14.7 1.4 16.3 1.4 16.3 1.7 14.7 1.7 14.7 2.7 16.4 2.7 16.4 3 14.3 3 14.3 0.1"></polygon>
                <polygon id="Path_00000029749604349592140540000017643187593513255072_" points="18.3 0.1 20.3 0.1 20.3 0.4 18.7 0.4 18.7 1.3 20.1 1.3 20.1 1.6 18.7 1.6 18.7 3 18.3 3"></polygon>
                <path d="M20.8,0.1 L22.2,0.1 C22.7,0.1 23.1,0.4 23.1,0.9 C23.1,1.3 22.9,1.5 22.6,1.6 L22.6,1.6 C23,1.6 23,1.9 23,2.2 C23,2.5 23,2.8 23.2,3 L22.8,3 C22.7,2.9 22.7,2.6 22.7,2.3 C22.6,2 22.6,1.8 22.2,1.8 L21.3,1.8 L21.3,3 L20.9,3 L20.8,0.1 L20.8,0.1 Z M22,1.4 C22.4,1.4 22.7,1.3 22.7,0.9 C22.7,0.6 22.5,0.4 22.2,0.4 L21.2,0.4 L21.2,1.4 L22,1.4 L22,1.4 Z" id="Shape_00000135658973786087219650000002017758234566342823_"></path>
                <polygon id="Path_00000101090155530856849990000014135971686233044405_" points="23.8 0.1 24.2 0.1 24.2 3 23.8 3"></polygon>
                <path d="M25,0.1 L26.1,0.1 C26.4,0.1 26.7,0.1 26.9,0.2 C27.1,0.3 27.3,0.5 27.3,0.8 C27.3,1.1 27.1,1.3 26.9,1.5 L26.9,1.5 C27.3,1.6 27.5,1.9 27.5,2.2 C27.5,2.6 27.2,3 26.6,3 L25,3 L25,0.1 L25,0.1 Z M25.4,1.3 L26.2,1.3 C26.6,1.3 26.9,1.1 26.9,0.8 C26.9,0.4 26.6,0.3 26.2,0.3 L25.4,0.3 L25.4,1.3 Z M25.4,2.7 L26.4,2.7 C26.7,2.7 26.9,2.5 26.9,2.2 C26.9,1.8 26.6,1.7 26.2,1.7 L25.3,1.7 L25.3,2.7 L25.4,2.7 Z" id="Shape_00000103253757122049978550000005654888037594466193_"></path>
                <path d="M29.3,0 C30.3,0 30.8,0.7 30.8,1.5 C30.8,2.3 30.3,3 29.3,3 C28.3,3 27.8,2.3 27.8,1.5 C27.8,0.7 28.3,0 29.3,0 Z M29.3,2.8 C30.1,2.8 30.3,2.2 30.3,1.6 C30.3,1 30,0.4 29.3,0.4 C28.5,0.4 28.3,1 28.3,1.6 C28.3,2.2 28.5,2.8 29.3,2.8 Z" id="Shape_00000001654501462203929000000009399207944953845646_"></path>
                <path d="M33.7,2 C33.7,2.7 33.3,3.2 32.5,3.2 C31.7,3.2 31.3,2.8 31.3,2 L31.3,0.1 L31.7,0.1 L31.7,2 C31.7,2.5 32,2.8 32.5,2.8 C33,2.8 33.3,2.5 33.3,2 L33.3,0.1 L33.7,0.1 L33.7,2 L33.7,2 Z" id="Path_00000171693964833371420850000001673259441423712690_"></path>
                <path d="M34.4,0.1 L35.9,0.1 C36.4,0.1 36.8,0.4 36.8,0.9 C36.8,1.3 36.6,1.5 36.3,1.6 L36.3,1.6 C36.7,1.7 36.7,1.9 36.7,2.2 C36.7,2.5 36.7,2.8 36.9,3 L36.5,3 C36.4,2.9 36.4,2.6 36.4,2.3 C36.3,2 36.3,1.8 35.9,1.8 L34.9,1.8 L34.9,3 L34.5,3 L34.4,0.1 L34.4,0.1 Z M35.7,1.4 C36.1,1.4 36.4,1.3 36.4,0.9 C36.4,0.6 36.2,0.4 35.9,0.4 L34.9,0.4 L34.9,1.4 L35.7,1.4 L35.7,1.4 Z" id="Shape_00000003087080066383902380000015612606095434670506_"></path>
                <path d="M39.7,2.7 C39.5,3 39.1,3.1 38.7,3.1 C37.8,3.1 37.2,2.4 37.2,1.6 C37.2,0.8 37.7,0 38.7,0 C39.4,0 39.9,0.3 40,1 L39.6,1 C39.5,0.6 39.2,0.4 38.7,0.4 C37.9,0.4 37.7,1 37.7,1.7 C37.7,2.4 38.1,2.9 38.7,2.9 C39.4,2.9 39.7,2.5 39.7,1.9 L38.7,1.9 L38.7,1.5 L40,1.5 L40,3 L39.7,3 L39.7,2.7 Z" id="Path_00000127760215089557554450000003384980939424373162_"></path>
                <path d="M2,6.8 C1.9,6.4 1.6,6.3 1.2,6.3 C0.9,6.3 0.5,6.4 0.5,6.8 C0.5,7.2 1,7.2 1.5,7.3 C2,7.4 2.5,7.6 2.5,8.1 C2.5,8.7 1.8,9 1.3,9 C0.5,9.1 0,8.7 0,8 L0.4,8 C0.4,8.5 0.8,8.7 1.3,8.7 C1.6,8.7 2,8.6 2,8.2 C2,7.8 1.5,7.7 1,7.6 C0.5,7.5 0,7.3 0,6.8 C0,6.2 0.5,6 1.1,6 C1.7,6 2.2,6.3 2.2,7 L2,6.8 L2,6.8 Z" id="Path_00000124145308365769067700000010608702444634778509_"></path>
                <polygon id="Path_00000020397124527955233800000011335665450131253899_" points="3.6 6.3 2.6 6.3 2.6 6 5 6 5 6.3 4 6.3 4 9 3.6 9"></polygon>
                <path d="M5.9,6 L6.3,6 L7.5,9 L7.1,9 L6.7,8.1 L5.4,8.1 L5.1,9 L4.7,9 L5.9,6 Z M5.5,7.7 L6.5,7.7 L6.1,6.4 L6.1,6.4 L5.5,7.7 Z" id="Shape_00000104671169134336270140000015625817653716619171_"></path>
                <path d="M8.7,6 L9.1,6 L10.3,9 L9.9,9 L9.6,8.1 L8.2,8.1 L7.9,9 L7.5,9 L8.7,6 Z M8.4,7.7 L9.4,7.7 L8.9,6.4 L8.9,6.4 L8.4,7.7 Z" id="Shape_00000173883961203197588870000013197229774872930986_"></path>
                <polygon id="Path_00000138554612709176626180000015260657424453648817_" points="11 6.3 10 6.3 10 6 12.4 6 12.4 6.3 11.4 6.3 11.4 9 11 9"></polygon>
                <polygon id="Path_00000089537342556371229910000008119023384261448379_" points="14.1 6 16.1 6 16.1 6.3 14.5 6.3 14.5 7.3 16 7.3 16 7.6 14.6 7.6 14.6 9 14.2 9"></polygon>
                <path d="M16.6,6 L18,6 C18.5,6 18.9,6.3 18.9,6.8 C18.9,7.2 18.7,7.4 18.4,7.5 L18.4,7.5 C18.7,7.6 18.8,7.8 18.8,8.1 C18.8,8.4 18.8,8.7 19,8.9 L18.6,8.9 C18.5,8.8 18.5,8.5 18.5,8.2 C18.4,8 18.3,7.7 18,7.7 L17,7.7 L17,9 L16.6,9 L16.6,6 Z M17.9,7.4 C18.3,7.4 18.6,7.3 18.6,6.9 C18.6,6.6 18.4,6.4 18.1,6.4 L17.1,6.4 L17.1,7.4 L17.9,7.4 L17.9,7.4 Z" id="Shape_00000097465407313537791220000008678874446242709688_"></path>
                <polygon id="Path_00000018951928834365576650000002937751373387588997_" points="19.6 6 21.7 6 21.7 6.3 20 6.3 20 7.3 21.6 7.3 21.6 7.6 20 7.6 20 8.6 21.7 8.6 21.7 8.9 19.6 8.9"></polygon>
                <polygon id="Path_00000039840002947738934200000011768995247946568127_" points="22.3 6 22.7 6 22.7 9 22.3 9"></polygon>
                <path d="M23.4,6 L24.5,6 C24.8,6 25.1,6 25.3,6.1 C25.5,6.2 25.7,6.4 25.7,6.7 C25.7,7 25.5,7.2 25.3,7.4 L25.3,7.4 C25.7,7.5 25.9,7.8 25.9,8.1 C25.9,8.5 25.6,9 25,9 L23.5,9 L23.4,6 L23.4,6 Z M23.9,7.3 L24.7,7.3 C25.1,7.3 25.4,7.1 25.4,6.8 C25.4,6.4 25.1,6.3 24.7,6.3 L23.9,6.3 L23.9,7.3 Z M23.9,8.6 L24.9,8.6 C25.2,8.6 25.4,8.4 25.4,8.1 C25.4,7.7 25.1,7.6 24.7,7.6 L23.8,7.6 L23.8,8.6 L23.9,8.6 Z" id="Shape_00000078761863827669148800000015337107519422951359_"></path>
                <path d="M28.9,7.9 C28.9,8.6 28.5,9.1 27.7,9.1 C26.9,9.1 26.5,8.7 26.5,7.9 L26.5,6 L26.9,6 L26.9,7.9 C26.9,8.4 27.2,8.7 27.7,8.7 C28.2,8.7 28.5,8.4 28.5,7.9 L28.5,6 L28.9,6 L28.9,7.9 L28.9,7.9 Z" id="Path_00000068648162353773739100000016970098581765343110_"></path>
                <path d="M29.6,6 L31,6 C31.5,6 31.9,6.3 31.9,6.8 C31.9,7.2 31.7,7.4 31.4,7.5 L31.4,7.5 C31.7,7.6 31.8,7.8 31.8,8.1 C31.8,8.4 31.8,8.7 32,8.9 L31.6,8.9 C31.5,8.8 31.5,8.5 31.5,8.2 C31.4,7.9 31.4,7.7 31,7.7 L30,7.7 L30,9 L29.6,9 L29.6,6 L29.6,6 Z M30.8,7.4 C31.2,7.4 31.5,7.3 31.5,6.9 C31.5,6.6 31.3,6.4 31,6.4 L30,6.4 L30,7.4 L30.8,7.4 L30.8,7.4 Z" id="Shape_00000062906654218538614210000012550949123296615608_"></path>
                <path d="M34.8,8.6 C34.6,8.9 34.2,9 33.8,9 C32.9,9 32.3,8.3 32.3,7.5 C32.3,6.7 32.8,5.9 33.8,5.9 C34.5,5.9 35,6.2 35.1,6.9 L34.7,6.9 C34.6,6.5 34.3,6.3 33.8,6.3 C33,6.3 32.8,6.9 32.8,7.6 C32.8,8.3 33.2,8.8 33.8,8.8 C34.5,8.8 34.8,8.4 34.8,7.8 L33.8,7.8 L33.8,7.5 L35.1,7.5 L35.1,9 L34.8,9 L34.8,8.6 Z" id="Path_00000036948942772327629340000006833798462416974777_"></path>
                <polygon id="Path_00000003789528296632535860000011948036779598310036_" points="2.1 14.9 1.8 14.9 1.4 13.2 1.4 13.2 0.9 14.9 0.6 14.9 0.1 12.9 0.3 12.9 0.8 14.5 0.8 14.5 1.2 12.8 1.6 12.8 2 14.5 2 14.5 2.4 12.8 2.7 12.8"></polygon>
                <polygon id="Path_00000150071116999525281670000011075091810826015393_" points="4.9 14.9 4.6 14.9 4.1 13.2 4.1 13.2 3.6 14.9 3.4 14.9 2.8 12.9 3.1 12.9 3.5 14.5 3.5 14.5 4 12.8 4.3 12.8 4.7 14.5 4.7 14.5 5.2 12.8 5.4 12.8"></polygon>
                <polygon id="Path_00000154396103171780261710000014102277644268146054_" points="7.7 14.9 7.4 14.9 6.9 13.2 6.9 13.2 6.4 14.9 6.1 14.9 5.6 12.9 5.9 12.9 6.3 14.6 6.3 14.6 6.8 12.9 7.1 12.9 7.5 14.6 7.5 14.6 8 12.9 8.2 12.9"></polygon>
                <polygon id="Path_00000156580493204591619570000012688829459646704058_" points="8.3 14.6 8.6 14.6 8.6 14.9 8.3 14.9"></polygon>
                <polygon id="Path_00000058563327015893820390000016448160679307654807_" points="9.2 12.8 10.5 12.8 10.5 13 9.4 13 9.4 13.7 10.4 13.7 10.4 13.9 9.4 13.9 9.4 14.8 9.2 14.8"></polygon>
                <path d="M10.9,12.8 L11.9,12.8 C12.3,12.8 12.6,13 12.6,13.3 C12.6,13.6 12.5,13.7 12.2,13.8 L12.2,13.8 C12.4,13.9 12.5,14 12.5,14.2 C12.5,14.4 12.5,14.6 12.6,14.8 L12.3,14.8 C12.2,14.7 12.2,14.5 12.2,14.3 C12.1,14.1 12.1,13.9 11.9,13.9 L11.2,13.9 L11.2,14.7 L10.9,14.7 L10.9,12.8 L10.9,12.8 Z M11.8,13.8 C12.1,13.8 12.3,13.7 12.3,13.4 C12.3,13.2 12.2,13 11.9,13 L11.2,13 L11.2,13.7 L11.8,13.8 L11.8,13.8 Z" id="Shape_00000163039013695723144620000001115781748767747498_"></path>
                <polygon id="Path_00000165209301858222728100000015511867930727923630_" points="13 14.6 13.3 14.6 13.3 14.9 13 14.9"></polygon>
                <path d="M15.3,13.5 C15.3,13.2 15,13 14.7,13 C14.2,13 14,13.4 14,13.8 C14,14.3 14.2,14.6 14.7,14.6 C15.1,14.6 15.3,14.3 15.3,14 L15.6,14 C15.5,14.5 15.2,14.8 14.7,14.8 C14,14.8 13.7,14.3 13.7,13.7 C13.7,13.1 14,12.6 14.7,12.6 C15.1,12.6 15.5,12.8 15.6,13.2 L15.3,13.2 L15.3,13.5 Z" id="Path_00000118371824561961076440000016340086268515210899_"></path>
                <polygon id="Path_00000002349767284666380790000008254286155358424222_" points="16 12.8 16.3 12.8 16.3 13.6 17.4 13.6 17.4 12.8 17.7 12.8 17.7 14.8 17.4 14.8 17.4 13.8 16.3 13.8 16.3 14.8 16 14.8"></polygon>
            </g>
        </g>
    </g>
</svg>