<?xml version="1.0" encoding="UTF-8"?>
<svg width="821px" height="592px" viewBox="0 0 821 592" version="1.1" xmlns="http://www.w3.org/2000/svg" xmlns:xlink="http://www.w3.org/1999/xlink">
    <title>PRESENTATION</title>
    <g id="Page-1" stroke="none" stroke-width="1" fill="none" fill-rule="evenodd">
        <g id="PRESENTATION">
            <rect id="Rectangle" fill="#B9FF2B" x="0" y="0" width="821" height="592"></rect>
            <g id="Group" transform="translate(0.000000, 61.000000)" fill="#5E2BFF">
                <path d="M821,332.5 C816.2,335.7 809.2,337.4 799,338.9 C771.3,334.8 768,329.2 764,297 C760,329 756.7,334.8 729.5,338.8 C702.3,334.8 699,329 695,297 C691,329.2 687.7,334.8 660,338.9 C632.3,334.8 629,329.2 625,297 C621,329 617.7,334.8 590.5,338.8 C563.9,334.8 560.1,329.2 556.3,299 C558.7,298.7 561.3,298.3 564,298 C529.2,293.7 525.4,290.2 521.1,256.1 C523.5,255.7 526.1,255.4 529,255 C526.2,254.7 523.6,254.3 521.1,254 C525.4,219.9 529.2,216.4 564,212 C561.2,211.7 558.7,211.3 556.3,211 C560.5,177.8 564.6,174.3 599,170 C563.9,165.6 560.4,162.1 556,127 C552,159.2 548.7,164.8 521,168.9 C493.3,164.8 490,159.2 486,127 C482,159 478.7,164.8 451.5,168.8 C424.6,164.8 421.1,159.1 417.1,128 C419.5,127.6 422.1,127.3 425,126.9 C422.2,126.6 419.7,126.2 417.3,125.9 C421.5,92.7 425.6,89.2 460,84.9 C424.9,80.5 421.4,77 417,41.9 C413,74.1 409.7,79.7 382,83.8 C354.3,79.7 351,74.1 347,41.9 C343,73.9 339.7,79.7 312.5,83.7 C285.3,79.8 282,74 278,42 C274,74.2 270.7,79.8 243,83.9 C215.3,79.8 212,74.2 208,42 C203.6,77.1 200.1,80.6 165,85 C167.8,85.3 170.4,85.7 172.9,86.1 C169,117.2 165.4,122.9 138.5,126.9 C111.6,122.9 108.1,117.2 104.1,86.1 C106.5,85.7 109.1,85.4 112,85 C77.6,80.7 73.5,77.2 69.3,44 C71.7,43.7 74.3,43.3 77,43 C41.9,38.6 38.4,35.1 34,5.68434189e-14 C30.1,31.8 26.8,37.7 0,41.8 L0,44.2 C26.1,48.2 29.9,53.9 33.7,83.7 C11.6,80.3 3.7,76 0,56 L0,114.6 C3.7,94.6 11.6,89.6 33.8,86.2 C29.9,117 26.4,122.8 0,126.8 L0,129.2 C26.6,133.2 30,139.1 33.9,170.5 C30,201.9 26.6,207.7 0,211.8 L0,214.3 C26.2,218.3 29.9,224 33.7,254 C31.3,254.3 28.7,254.7 26,255 C61.1,259.4 64.6,262.9 69,298 C73,266 76.3,260.2 103.5,256.2 C130.7,260.3 134,266 138,298 C142,265.8 145.3,260.2 173,256.1 C200.7,260.2 204,265.8 208,298 C212,266 215.3,260.2 242.5,256.2 C269.4,260.2 272.9,265.9 276.9,297 C274.5,297.3 271.9,297.7 269,298 C304.1,302.4 307.6,305.9 312,341 C316.1,307.7 319.5,302.8 349.8,298.7 C373.7,302.7 377.1,309.2 380.8,339.1 C378.6,339.4 376.4,339.7 373.9,340 C409,344.4 412.5,347.9 416.9,383 C420.9,351 424.2,345.2 451.4,341.2 C478.6,345.3 481.9,351 485.9,383 C489.9,350.8 493.2,345.2 520.9,341.1 C548.6,345.2 551.9,350.8 555.9,383 C559.9,351 563.2,345.2 590.4,341.2 C617.6,345.3 620.9,351 624.9,383 C628.9,350.8 632.2,345.2 659.9,341.1 C686.9,345.1 690.7,350.6 694.6,380.9 C691.9,381.3 689,381.7 685.9,382.1 C721,386.5 724.5,390 728.9,425.1 C732.9,392.9 736.2,387.3 763.9,383.2 C791.6,387.3 794.9,392.9 798.9,425.1 C802.2,398.8 805,390.2 820.9,385.7 L820.9,378.4 C805.4,374 802.3,365.8 799.2,341.2 C809.3,342.7 816.1,344.4 820.9,347.6 L821,332.5 L821,332.5 Z M555.7,210.9 C528.9,206.9 525.1,201.4 521.2,171.1 C548.1,175.1 551.8,180.6 555.7,210.9 Z M172.7,168.7 C146.8,164.7 143.1,159 139.3,129.2 C165.2,133.2 168.9,139 172.7,168.7 Z M138.5,129.2 C138.6,129.2 138.7,129.2 138.7,129.2 C134.8,159.4 131,164.9 104.3,168.9 C108.1,138.7 111.9,133.1 138.5,129.2 Z M103.9,86.1 C100,117.3 96.4,122.9 69.2,126.9 C73.1,95.7 76.6,90.1 103.9,86.1 Z M68.7,44.1 C64.8,74.3 61.1,79.9 34.4,83.9 C34.3,83.9 34.3,83.9 34.2,83.9 C38.2,53.6 41.9,48.1 68.7,44.1 Z M34.5,86.1 C61.4,90.1 65,95.8 68.9,126.9 C41.7,122.9 38.1,117.3 34.2,86.2 C34.3,86.2 34.4,86.2 34.5,86.1 Z M34.3,253.9 C38.2,223.7 41.9,218.1 68.5,214.2 C68.6,214.2 68.7,214.2 68.7,214.2 C64.8,244.4 61.1,249.9 34.3,253.9 Z M69.3,214.3 C95.2,218.3 98.9,224 102.7,253.8 C76.8,249.8 73.1,244 69.3,214.3 Z M68.5,211.8 C41.4,207.8 38,202 34.1,170.5 C38.1,138.7 41.5,133.1 69,129.1 C96.1,133.1 99.8,138.6 103.7,169 C101.3,169.3 98.7,169.7 96,170 C98.4,170.3 100.7,170.6 102.9,170.9 C99,202.1 95.5,207.8 68.5,211.8 Z M103.5,253.8 C103.4,253.8 103.3,253.8 103.3,253.8 C107.2,223.6 111,218.1 137.7,214.1 C133.9,244.3 130.1,249.9 103.5,253.8 Z M103.1,171 C131.2,175 134.9,180.4 138.8,211.8 C138.5,211.8 138.2,211.9 138,211.9 C110.6,207.9 107.1,202.3 103.1,171 Z M138.3,214.1 C165.1,218.1 168.9,223.6 172.8,253.9 C145.9,249.9 142.2,244.4 138.3,214.1 Z M139.2,211.8 C143.1,181.1 146.6,175.3 172.9,171.3 C169,201.9 165.4,207.7 139.2,211.8 Z M173.3,253.9 C177.2,223.7 180.9,218.1 207.8,214.1 C203.8,244.4 200.1,249.9 173.3,253.9 Z M173.2,171.2 C173.3,171.2 173.4,171.2 173.5,171.2 C200.4,175.2 203.9,180.9 207.9,212 C180.7,207.9 177.1,202.3 173.2,171.2 Z M173.3,168.8 C177.2,138.6 181,133.1 207.7,129.1 C203.8,159.3 200.1,164.9 173.5,168.8 C173.4,168.8 173.3,168.8 173.3,168.8 Z M173.1,86.1 C200.3,90.1 203.9,95.7 207.8,126.9 C180.6,122.9 177.1,117.3 173.1,86.1 Z M312.5,86.2 C339.1,90.2 342.9,95.8 346.7,125.9 C319.9,121.9 316.1,116.4 312.3,86.2 C312.3,86.2 312.4,86.2 312.5,86.2 Z M346.9,128.1 C343,159.2 339.4,164.8 312.5,168.9 C312.4,168.9 312.3,168.9 312.2,168.9 C316.1,137.7 319.7,132.1 346.9,128.1 Z M311.7,86.3 C307.9,116 304.1,121.8 278.3,125.8 C282.1,96 285.8,90.2 311.7,86.3 Z M280.8,128.7 C304.6,132.7 308.1,139.2 311.8,168.8 C285.8,164.8 282.1,159.1 278.2,129.1 C279.1,128.9 279.9,128.8 280.8,128.7 Z M277.7,125.8 C276.6,126 275.4,126.1 274.1,126.3 C250.2,122.3 246.8,115.8 243.1,86.1 C270.1,90.1 273.8,95.6 277.7,125.8 Z M277.7,129.1 C273.8,159.3 270.1,164.9 243.2,168.9 C247.2,138.6 250.9,133.1 277.7,129.1 Z M242.9,86.1 C239,117.3 235.4,122.9 208.2,126.9 C212.1,95.7 215.6,90.1 242.9,86.1 Z M242.7,168.9 C215.9,164.9 212.1,159.4 208.2,129.1 C235.1,133.1 238.8,138.6 242.7,168.9 Z M277.1,296.9 C281,265.7 284.6,260.1 311.8,256.1 C307.9,287.3 304.4,292.9 277.1,296.9 Z M343.2,296.3 C319.3,292.3 315.9,285.8 312.2,256.1 C339.1,260.1 342.9,265.6 346.8,295.8 C345.6,296 344.4,296.2 343.2,296.3 Z M312,253.9 C284.3,249.8 281,244.2 277,212 C273,244 269.7,249.8 242.5,253.8 C215.9,249.8 212.1,244.2 208.3,214 C210.7,213.7 213.3,213.3 216,213 C213.2,212.7 210.6,212.3 208.1,212 C212.1,180.7 215.6,175.1 243,171.1 C270.7,175.2 274,180.8 278,213 C282,181 285.3,175.2 312.5,171.2 C339.6,175.2 343,181 346.9,212.5 C343,244.3 339.5,249.9 312,253.9 Z M451.5,171.2 C478.1,175.2 481.9,180.8 485.7,210.9 C458.9,206.9 455.1,201.4 451.3,171.2 C451.3,171.2 451.4,171.2 451.5,171.2 Z M450.7,171.3 C446.9,201 443.1,206.8 417.3,210.8 C421.1,181 424.8,175.2 450.7,171.3 Z M416.7,125.9 C389.9,121.9 386.1,116.4 382.2,86.1 C409.1,90.1 412.8,95.6 416.7,125.9 Z M416.9,128.1 C413,159.3 409.4,164.9 382.2,168.9 C386.1,137.7 389.6,132.1 416.9,128.1 Z M381.7,86.1 C377.8,116.3 374.1,121.9 347.2,125.9 C351.2,95.6 354.9,90.1 381.7,86.1 Z M381.9,168.9 C354.7,164.9 351.1,159.3 347.2,128.1 C374.4,132.1 377.9,137.7 381.9,168.9 Z M347.3,295.7 C351.1,266 354.9,260.2 380.7,256.2 C376.9,286 373.2,291.8 347.3,295.7 Z M347.1,212.5 C351.1,180.7 354.5,175.1 382,171.1 C409,175.1 412.8,180.6 416.7,210.9 C414,211.3 411.1,211.7 408,212.1 C410.8,212.4 413.4,212.8 415.9,213.2 C412,244.3 408.4,250 381.5,254 C354.4,249.8 351,244.1 347.1,212.5 Z M415.7,295.9 C388.9,291.9 385.1,286.4 381.3,256.2 C381.4,256.2 381.4,256.2 381.5,256.2 C408.1,260.1 411.9,265.7 415.7,295.9 Z M381.1,339 C385.1,307.6 388.6,302.1 416,298 C416.3,298 416.6,298.1 416.8,298.1 C412.9,329.7 409.2,335 381.1,339 Z M416.3,295.9 C420.2,265.7 423.9,260.1 450.8,256.1 C446.8,286.4 443.1,291.9 416.3,295.9 Z M417.2,298.2 C443.5,302.2 447,308 450.9,338.7 C424.6,334.7 421,328.9 417.2,298.2 Z M416.1,213.1 C443.3,217.1 446.9,222.7 450.8,253.9 C423.6,249.9 420.1,244.3 416.1,213.1 Z M451.5,338.8 C451.4,338.8 451.3,338.8 451.2,338.8 C455,309 458.4,302.6 482.7,298.6 C483.8,298.7 484.8,298.9 485.8,299 C481.9,329.3 478.1,334.9 451.5,338.8 Z M451.3,256.1 C478.1,260.1 481.9,265.6 485.8,295.9 C458.9,291.9 455.2,286.4 451.3,256.1 Z M451.1,253.9 C455,222.7 458.6,217.1 485.8,213.1 C481.9,244.3 478.4,249.9 451.1,253.9 Z M520.7,171.1 C516.8,201.3 513.1,206.9 486.2,210.9 C490.2,180.6 493.9,175.1 520.7,171.1 Z M486.3,299.1 C513.1,303.1 516.9,308.6 520.8,338.9 C493.9,334.9 490.2,329.4 486.3,299.1 Z M489.4,296.4 C488.3,296.3 487.3,296.1 486.3,296 C490.2,265.6 493.9,260.1 520.9,256.1 C517.1,286 513.7,292.4 489.4,296.4 Z M486.1,213.1 C513.3,217.1 516.9,222.7 520.8,253.9 C493.6,249.9 490.1,244.3 486.1,213.1 Z M521.3,338.9 C525.2,308.7 528.9,303.1 555.8,299.1 C551.8,329.4 548.1,334.9 521.3,338.9 Z M695.3,380.7 C699.1,351 702.9,345.2 728.7,341.2 C724.9,371 721.2,376.8 695.3,380.7 Z M729.3,341.2 C729.4,341.2 729.4,341.2 729.5,341.2 C756.1,345.2 759.9,350.8 763.7,380.9 C736.9,376.9 733.2,371.4 729.3,341.2 Z M764.3,380.9 C768.2,350.7 771.9,345.1 798.8,341.1 C794.8,371.4 791.1,376.9 764.3,380.9 Z" id="Shape"></path>
                <path d="M494,385 C458.9,380.6 455.4,377.1 451,342 C447,374.2 443.7,379.8 416,383.9 C388.3,379.8 385,374.2 381,342 C377,374 373.7,379.8 346.5,383.8 C319.3,379.8 316,374 312,342 C308,374.2 304.7,379.8 277,383.9 C249.3,379.8 246,374.2 242,342 C238,374 234.7,379.8 207.5,383.8 C180.9,379.8 177.1,374.2 173.3,344 C175.7,343.7 178.3,343.3 181,343 C145.9,338.6 142.4,335.1 138,300 C133.6,335.1 130.1,338.6 95,343 C97.8,343.3 100.3,343.7 102.7,344 C98.8,374.2 95.1,379.8 68.4,383.8 C41.3,379.8 38,374 34,342 C30.2,373 26.9,379.4 2,383.5 C1.3,383.6 0.7,383.7 0,383.8 L0,386.2 C0.7,386.3 1.3,386.4 2,386.5 C26.9,390.6 30.2,396.9 34,428 C38,396 41.3,390.2 68.5,386.1 C95.7,390.2 99,396 103,428 C107,395.8 110.3,390.2 138,386.1 C165.7,390.2 169,395.8 173,428 C177,396 180.3,390.2 207.5,386.2 C234.7,390.3 238,396 242,428 C246,395.8 249.3,390.2 277,386.1 C304,390.1 307.8,395.6 311.7,425.9 C309,426.3 306.1,426.7 303,427.1 C338.1,431.5 341.6,435 346,470.1 C350,437.9 353.3,432.3 381,428.2 C408.7,432.3 412,437.9 416,470.1 C420.4,435 423.9,431.5 459,427.1 C456.2,426.8 453.7,426.4 451.3,426.1 C455.5,392.8 459.6,389.3 494,385 Z M103.3,344.1 C130.1,348.1 133.9,353.6 137.8,383.9 C110.9,379.9 107.2,374.4 103.3,344.1 Z M138.3,383.9 C142.2,353.7 145.9,348.1 172.8,344.1 C168.8,374.4 165.1,379.9 138.3,383.9 Z M312.3,425.7 C316.1,396 319.9,390.2 345.7,386.2 C341.9,416 338.2,421.8 312.3,425.7 Z M346.3,386.2 C346.4,386.2 346.4,386.2 346.5,386.2 C373.1,390.2 376.9,395.8 380.7,425.9 C353.9,421.9 350.2,416.4 346.3,386.2 Z M381.3,425.9 C385.2,395.7 388.9,390.1 415.8,386.1 C411.8,416.4 408.1,421.9 381.3,425.9 Z M416.3,386.1 C443.1,390.1 446.9,395.6 450.8,425.9 C423.9,421.9 420.2,416.4 416.3,386.1 Z" id="Shape"></path>
            </g>
        </g>
    </g>
</svg>