<?xml version="1.0" encoding="utf-8"?>
<!-- Generator: Adobe Illustrator 27.1.1, SVG Export Plug-In . SVG Version: 6.00 Build 0)  -->
<svg version="1.1" id="Calque_2_00000124844648714306205160000015683525368290917015_"
	 xmlns="http://www.w3.org/2000/svg" xmlns:xlink="http://www.w3.org/1999/xlink" x="0px" y="0px" viewBox="0 0 1192.1 859.6"
	 style="enable-background:new 0 0 1192.1 859.6;" xml:space="preserve">
<style type="text/css">
	.st0{fill:#B9FF2B;}
	.st1{fill-rule:evenodd;clip-rule:evenodd;fill:#5E2BFF;}
</style>
<rect x="0" y="0" class="st0" width="1192.1" height="859.6"/>
<g>
	<path class="st1" d="M1192.1,571.3c-7,4.6-17.1,7.2-31.9,9.4c-40.2-5.9-45-14.1-50.8-60.9c-5.8,46.5-10.6,54.9-50.1,60.8
		c-39.5-5.9-44.3-14.2-50.1-60.8c-5.8,46.8-10.6,55-50.8,60.9c-40.2-5.9-45-14.1-50.8-60.9c-5.8,46.5-10.6,54.9-50.1,60.8
		c-38.7-5.8-44.1-13.9-49.7-57.8c3.5-0.5,7.2-1,11.2-1.5c-50.5-6.3-56-11.4-62.2-60.9c3.5-0.5,7.3-1,11.4-1.5
		c-4.1-0.5-7.9-1-11.4-1.5c6.2-49.5,11.8-54.7,62.2-60.9c-4-0.5-7.8-1-11.2-1.5c6.2-48.2,12.1-53.3,62.1-59.5
		c-51-6.3-56.1-11.5-62.4-62.4c-5.8,46.8-10.6,55-50.8,60.9c-40.2-5.9-45-14.1-50.8-60.9c-5.8,46.5-10.6,54.9-50.1,60.8
		c-39.1-5.8-44.2-14.1-49.9-59.2c3.5-0.5,7.3-1,11.4-1.5c-4-0.5-7.8-1-11.2-1.5c6.2-48.2,12.1-53.3,62.1-59.5
		c-51-6.3-56.1-11.5-62.4-62.4c-5.8,46.8-10.6,55-50.8,60.9c-40.2-5.9-45-14.1-50.8-60.9c-5.8,46.5-10.6,54.9-50.1,60.8
		c-39.5-5.9-44.3-14.2-50.1-60.8c-5.8,46.8-10.6,55-50.8,60.9c-40.2-5.9-45-14.1-50.8-60.9c-6.3,51-11.5,56.1-62.4,62.4
		c4.1,0.5,7.9,1,11.4,1.5c-5.7,45.1-10.8,53.4-49.9,59.2c-39.1-5.8-44.2-14.1-49.9-59.2c3.5-0.5,7.3-1,11.4-1.5
		c-50-6.2-55.9-11.3-62.1-59.5c3.5-0.5,7.2-1,11.2-1.5c-51-6.3-56.1-11.5-62.4-62.4c-5.7,46.2-10.5,54.8-49.4,60.7v3.5
		c37.9,5.8,43.4,14,48.9,57.4C16.8,205.2,5.3,198.8,0,169.9V255c5.3-29,16.8-36.3,49.1-41.2c-5.6,44.6-10.8,53-49.1,58.9v3.5
		c38.7,5.9,43.6,14.3,49.3,59.9c-5.7,45.6-10.6,54.1-49.3,59.9v3.6c38,5.8,43.4,14.1,49,57.7c-3.5,0.5-7.2,1-11.2,1.5
		c51,6.3,56.1,11.5,62.4,62.4c5.8-46.5,10.6-54.9,50.1-60.8c39.5,5.9,44.3,14.2,50.1,60.8c5.8-46.8,10.6-55,50.8-60.9
		c40.2,5.9,45,14.1,50.8,60.9c5.8-46.5,10.6-54.9,50.1-60.8c39.1,5.8,44.2,14.1,49.9,59.2c-3.5,0.5-7.3,1-11.4,1.5
		c51,6.3,56.1,11.5,62.4,62.4c6-48.4,10.9-55.5,54.9-61.5c34.8,5.9,39.6,15.3,45.1,58.7c-3.1,0.5-6.4,0.9-10,1.3
		c51,6.3,56.1,11.5,62.4,62.4c5.8-46.5,10.6-54.9,50.1-60.8c39.5,5.9,44.3,14.2,50.1,60.8c5.8-46.8,10.6-55,50.8-60.9
		c40.2,5.9,45,14.1,50.8,60.9c5.8-46.5,10.6-54.9,50.1-60.8c39.5,5.9,44.3,14.2,50.1,60.8c5.8-46.8,10.6-55,50.8-60.9
		c39.3,5.8,44.8,13.7,50.4,57.7c-3.9,0.6-8.1,1.1-12.7,1.7c51,6.3,56.1,11.5,62.4,62.4c5.8-46.8,10.6-55,50.8-60.9
		c40.2,5.9,45,14.1,50.8,60.9c4.7-38.2,8.8-50.6,31.9-57.1v-10.6c-22.5-6.3-27-18.3-31.6-54.1c14.7,2.2,24.6,4.7,31.6,9.3V571.3
		L1192.1,571.3z M806.9,394.8c-38.9-5.8-44.4-13.8-50-57.8C795.8,342.8,801.3,350.9,806.9,394.8z M250.8,333.6
		c-37.5-5.8-43-14.1-48.5-57.3C239.8,282,245.2,290.4,250.8,333.6z M201.1,276.1c0.1,0,0.2,0,0.3,0c-5.6,43.8-11.1,51.9-50,57.7
		C157,290,162.5,281.9,201.1,276.1L201.1,276.1z M150.8,213.6c-5.7,45.3-10.9,53.4-50.4,59.3C106.1,227.5,111.3,219.4,150.8,213.6z
		 M99.8,152.6c-5.6,43.8-11.1,51.9-49.7,57.7c-0.1,0-0.2,0-0.3,0C55.4,166.4,60.9,158.4,99.8,152.6z M50,213.6
		c39.1,5.9,44.2,14.1,49.9,59.2c-39.5-5.9-44.7-14-50.4-59.1C49.7,213.7,49.9,213.7,50,213.6z M49.8,457.2
		c5.6-43.8,11.1-51.9,49.7-57.7c0.1,0,0.2,0,0.3,0C94.2,443.4,88.7,451.4,49.8,457.2z M100.6,399.7c37.5,5.7,43,14.1,48.5,57.3
		C111.6,451.2,106.2,442.9,100.6,399.7z M99.5,396.2c-39.3-5.9-44.3-14.2-50-60c5.8-46.1,10.8-54.3,50.7-60.2
		c39.3,5.8,44.8,13.8,50.4,57.9c-3.5,0.5-7.2,1-11.2,1.5c3.6,0.4,6.9,0.9,10,1.3C143.7,382.1,138.6,390.3,99.5,396.2z M150.3,457.2
		c-0.1,0-0.2,0-0.3,0c5.6-43.8,11.1-51.9,50-57.7C194.4,443.3,188.9,451.4,150.3,457.2z M149.7,336.8c40.8,5.9,46.1,13.6,51.9,59.3
		c-0.4,0.1-0.8,0.1-1.2,0.2C160.6,390.4,155.5,382.3,149.7,336.8L149.7,336.8z M200.8,399.5c38.9,5.8,44.4,13.8,50,57.8
		C211.9,451.4,206.4,443.4,200.8,399.5z M202.1,396c5.6-44.5,10.8-53,48.9-58.8C245.3,381.8,240.2,390.2,202.1,396L202.1,396z
		 M251.6,457.2c5.6-43.9,11.1-52,50-57.8C296,443.4,290.5,451.4,251.6,457.2z M251.4,337.1c0.2,0,0.3-0.1,0.5-0.1
		c39.1,5.8,44.2,14.1,49.9,59.2C262.3,390.4,257.1,382.3,251.4,337.1z M251.6,333.7c5.6-43.8,11.1-51.9,50-57.7
		c-5.6,43.8-11.1,51.9-49.7,57.7C251.8,333.7,251.7,333.7,251.6,333.7L251.6,333.7z M251.4,213.6c39.5,5.9,44.7,14,50.4,59.3
		C262.3,267,257.1,258.9,251.4,213.6z M453.7,213.7c38.6,5.8,44.1,13.9,49.7,57.7c-38.9-5.8-44.4-13.8-50-57.7
		C453.5,213.7,453.6,213.7,453.7,213.7z M503.6,274.6c-5.7,45.1-10.8,53.3-49.9,59.2c-0.2,0-0.3,0-0.5-0.1
		C458.9,288.5,464.1,280.4,503.6,274.6z M452.6,213.8c-5.5,43.2-11,51.5-48.5,57.3C409.6,228,415,219.6,452.6,213.8L452.6,213.8z
		 M407.8,275.4c34.6,5.8,39.6,15.2,45,58.2c-37.8-5.8-43.2-14.1-48.8-57.7C405.2,275.7,406.5,275.6,407.8,275.4L407.8,275.4z
		 M403.2,271.3c-1.7,0.2-3.4,0.5-5.2,0.7c-34.7-5.9-39.6-15.2-45.1-58.4C392.1,219.4,397.6,227.4,403.2,271.3L403.2,271.3z
		 M403.3,276c-5.6,43.9-11.1,52-50,57.8C358.9,289.9,364.3,281.8,403.3,276z M352.6,213.6c-5.7,45.3-10.9,53.4-50.4,59.3
		C307.9,227.5,313.1,219.4,352.6,213.6z M352.4,333.8c-38.9-5.8-44.4-13.8-50-57.8C341.3,281.8,346.8,289.9,352.4,333.8z
		 M402.4,519.7c5.7-45.3,10.9-53.4,50.4-59.3C447.1,505.7,441.9,513.8,402.4,519.7z M498.3,518.8c-34.7-5.9-39.6-15.2-45.1-58.4
		c39.1,5.8,44.6,13.8,50.2,57.7C501.8,518.3,500,518.6,498.3,518.8L498.3,518.8z M453,457.3c-40.2-5.9-45-14.1-50.8-60.9
		c-5.8,46.5-10.6,54.9-50.1,60.8c-38.7-5.8-44.1-13.9-49.7-57.8c3.5-0.5,7.2-1,11.2-1.5c-4.1-0.5-7.9-1-11.4-1.5
		c5.7-45.4,10.9-53.5,50.6-59.4c40.2,5.9,45,14.1,50.8,60.9c5.8-46.5,10.6-54.9,50.1-60.8c39.3,5.9,44.3,14.2,50,60
		C498,443.3,493,451.4,453,457.3z M655.6,337.1c38.6,5.8,44.1,13.9,49.7,57.7c-38.9-5.8-44.4-13.8-50-57.7
		C655.4,337.1,655.5,337.1,655.6,337.1z M654.4,337.3c-5.5,43.2-11,51.5-48.5,57.3C611.4,351.4,616.9,343,654.4,337.3L654.4,337.3z
		 M605.1,271.4c-38.9-5.8-44.4-13.8-50-57.8C594,219.4,599.4,227.4,605.1,271.4z M605.3,274.6c-5.7,45.3-10.9,53.4-50.4,59.3
		C560.6,288.5,565.7,280.4,605.3,274.6L605.3,274.6z M554.3,213.6c-5.6,43.9-11.1,52-50,57.8C509.9,227.4,515.3,219.4,554.3,213.6z
		 M554.5,333.8c-39.5-5.9-44.7-14-50.4-59.3C543.6,280.4,548.7,288.5,554.5,333.8L554.5,333.8z M504.3,518
		c5.5-43.2,11-51.6,48.5-57.3C547.2,503.8,541.8,512.2,504.3,518z M503.9,397.1c5.8-46.1,10.8-54.3,50.7-60.2
		c39.3,5.8,44.8,13.7,50.4,57.7c-3.9,0.6-8.1,1.1-12.7,1.7c4.1,0.5,7.9,1,11.4,1.5c-5.7,45.1-10.8,53.4-49.9,59.2
		C514.6,451.3,509.7,443,503.9,397.1z M603.6,518.2c-38.9-5.8-44.4-13.8-50-57.7c0.1,0,0.2,0,0.3,0
		C592.6,466.3,598,474.4,603.6,518.2z M553.4,580.9c5.7-45.6,10.9-53.6,50.6-59.5c0.4,0.1,0.8,0.1,1.2,0.2
		C599.5,567.3,594.2,575,553.4,580.9z M604.4,518.2c5.6-43.9,11.1-52,50-57.8C648.8,504.4,643.3,512.4,604.4,518.2z M605.7,521.6
		c38.1,5.8,43.3,14.3,48.9,58.8C616.5,574.6,611.3,566.2,605.7,521.6z M604.2,398c39.5,5.9,44.7,14,50.4,59.3
		C615.1,451.4,609.9,443.3,604.2,398z M655.6,580.6c-0.2,0-0.3,0-0.5-0.1c5.5-43.3,10.5-52.5,45.7-58.4c1.6,0.2,3.1,0.4,4.5,0.6
		C699.7,566.7,694.2,574.8,655.6,580.6z M655.2,460.4c38.9,5.8,44.4,13.8,50,57.8C666.3,512.4,660.9,504.4,655.2,460.4z M655,457.2
		c5.7-45.3,10.9-53.4,50.4-59.3C699.8,443.3,694.6,451.4,655,457.2z M756.1,337c-5.6,43.9-11.1,52-50,57.8
		C711.7,350.9,717.2,342.8,756.1,337L756.1,337z M706.1,522.9c38.9,5.8,44.4,13.8,50,57.8C717.2,574.9,711.7,566.8,706.1,522.9z
		 M710.6,518.9c-1.6-0.2-3.1-0.4-4.5-0.6c5.6-44.1,11.1-52.1,50.2-57.9C750.8,503.9,745.8,513.1,710.6,518.9L710.6,518.9z
		 M705.9,398c39.5,5.9,44.7,14,50.4,59.3C716.7,451.4,711.6,443.3,705.9,398z M756.9,580.6c5.6-43.9,11.1-52,50-57.8
		C801.3,566.8,795.8,574.9,756.9,580.6z M1009.5,641.4c5.5-43.2,11-51.6,48.5-57.3C1052.5,627.3,1047.1,635.6,1009.5,641.4z
		 M1058.9,584c0.1,0,0.2,0,0.3,0c38.6,5.8,44.1,13.9,49.7,57.7C1070,635.8,1064.5,627.8,1058.9,584L1058.9,584z M1109.7,641.6
		c5.6-43.9,11.1-52,50-57.8C1154.1,627.8,1148.6,635.8,1109.7,641.6z"/>
	<path class="st1" d="M717.3,647.6c-51-6.3-56.1-11.5-62.4-62.4c-5.8,46.8-10.6,55-50.8,60.9c-40.2-5.9-45-14.1-50.8-60.9
		c-5.8,46.5-10.6,54.9-50.1,60.8c-39.5-5.9-44.3-14.2-50.1-60.8c-5.8,46.8-10.6,55-50.8,60.9c-40.2-5.9-45-14.1-50.8-60.9
		c-5.8,46.5-10.6,54.9-50.1,60.8c-38.7-5.8-44.1-13.9-49.7-57.8c3.5-0.5,7.2-1,11.2-1.5c-51-6.3-56.1-11.5-62.4-62.4
		c-6.3,51-11.5,56.1-62.4,62.4c4,0.5,7.8,1,11.2,1.5c-5.6,43.9-11,52-49.7,57.8c-39.5-5.9-44.3-14.3-50.1-60.8
		c-5.6,45.1-10.3,54.3-46.5,60.2C2,645.5,1,645.7,0,645.8v3.5c1,0.2,2,0.3,2.9,0.5c36.2,5.9,40.9,15.1,46.5,60.2
		c5.8-46.5,10.6-54.9,50.1-60.8c39.6,5.9,44.3,14.2,50.1,60.8c5.8-46.8,10.6-55,50.8-60.9c40.2,5.9,45,14.1,50.8,60.9
		c5.8-46.5,10.6-54.9,50.1-60.8c39.5,5.9,44.3,14.2,50.1,60.8c5.8-46.8,10.6-55,50.8-60.9c39.3,5.8,44.8,13.7,50.4,57.7
		c-3.9,0.6-8.1,1.1-12.7,1.7c51,6.3,56.1,11.5,62.4,62.4c5.8-46.8,10.6-55,50.8-60.9c40.2,5.9,45,14.1,50.8,60.9
		c6.3-51,11.5-56.1,62.4-62.4c-4-0.5-7.8-1-11.2-1.5C661.4,658.9,667.3,653.8,717.3,647.6z M149.9,588.2c38.9,5.8,44.4,13.8,50,57.8
		C161.1,640.2,155.6,632.1,149.9,588.2z M200.8,646c5.6-43.9,11.1-52,50-57.8C245.2,632.1,239.7,640.2,200.8,646z M453.4,706.7
		c5.5-43.2,11-51.6,48.5-57.3C496.4,692.6,491,701,453.4,706.7z M502.8,649.3c0.1,0,0.2,0,0.3,0c38.6,5.8,44.1,13.9,49.7,57.7
		C513.9,701.2,508.4,693.1,502.8,649.3z M553.6,707c5.6-43.9,11.1-52,50-57.8C598,693.1,592.5,701.2,553.6,707z M604.4,649.2
		c38.9,5.8,44.4,13.8,50,57.8C615.5,701.2,610,693.1,604.4,649.2z"/>
</g>
</svg>
