<?xml version="1.0" encoding="UTF-8"?>
<svg id="Calque_2" data-name="Calque 2" xmlns="http://www.w3.org/2000/svg" viewBox="0 0 821 592">
  <defs>
    <style>
      .cls-1 {
        fill: #b9ff2b;
      }

      .cls-2 {
        fill: #5e2bff;
        fill-rule: evenodd;
      }
    </style>
  </defs>
  <rect class="cls-1" width="821" height="592"/>
  <g>
    <path class="cls-2" d="m821,393.49c-4.84,3.2-11.75,4.93-22,6.44-27.68-4.08-31-9.7-35-41.93-3.97,32.04-7.28,37.78-34.5,41.85-27.22-4.07-30.53-9.81-34.5-41.85-4,32.23-7.32,37.85-35,41.93-27.68-4.08-31-9.7-35-41.93-3.97,32.04-7.28,37.78-34.5,41.85-26.63-3.98-30.37-9.58-34.24-39.81,2.4-.35,4.96-.69,7.74-1.04-34.75-4.31-38.57-7.84-42.87-41.94,2.44-.36,5.04-.71,7.87-1.06-2.83-.35-5.43-.7-7.87-1.05,4.3-34.11,8.12-37.64,42.87-41.95-2.78-.34-5.34-.69-7.74-1.04,4.25-33.19,8.33-36.69,42.74-40.96-35.11-4.36-38.64-7.89-43-43-4,32.23-7.32,37.85-35,41.93-27.68-4.08-31-9.7-35-41.93-3.97,32.04-7.28,37.78-34.5,41.85-26.92-4.02-30.45-9.7-34.37-40.79,2.44-.36,5.04-.71,7.87-1.06-2.78-.34-5.34-.69-7.74-1.04,4.25-33.19,8.33-36.69,42.74-40.96-35.11-4.36-38.64-7.89-43-43-4,32.23-7.32,37.85-35,41.93-27.68-4.08-31-9.7-35-41.93-3.97,32.04-7.28,37.78-34.5,41.85-27.22-4.07-30.53-9.81-34.5-41.85-4,32.23-7.32,37.85-35,41.93-27.68-4.08-31-9.7-35-41.93-4.36,35.11-7.89,38.64-43,43,2.83.35,5.43.7,7.87,1.06-3.92,31.09-7.45,36.77-34.37,40.79-26.92-4.02-30.45-9.7-34.37-40.79,2.44-.36,5.04-.71,7.87-1.06-34.41-4.27-38.49-7.77-42.74-40.96,2.4-.35,4.96-.69,7.74-1.04-35.11-4.36-38.64-7.89-43-43-3.95,31.85-7.23,37.71-34,41.78v2.44c26.13,3.97,29.87,9.67,33.71,39.52-22.14-3.4-30.06-7.79-33.71-27.75v58.64c3.65-19.99,11.59-24.99,33.84-28.39-3.89,30.75-7.42,36.53-33.84,40.55v2.43c26.63,4.04,30.01,9.88,33.94,41.28-3.93,31.4-7.31,37.23-33.94,41.27v2.46c26.19,3.97,29.89,9.69,33.74,39.73-2.4.35-4.96.7-7.74,1.04,35.11,4.36,38.64,7.89,43,43,3.97-32.04,7.28-37.78,34.5-41.85,27.22,4.07,30.53,9.81,34.5,41.85,4-32.23,7.32-37.85,35-41.93,27.68,4.08,31,9.7,35,41.93,3.97-32.04,7.28-37.78,34.5-41.85,26.92,4.02,30.45,9.7,34.37,40.8-2.44.35-5.04.7-7.87,1.05,35.11,4.36,38.64,7.89,43,43,4.13-33.3,7.54-38.19,37.83-42.33,23.94,4.04,27.3,10.53,31.05,40.42-2.15.31-4.43.61-6.88.91,35.11,4.36,38.64,7.89,43,43,3.97-32.04,7.28-37.78,34.5-41.85,27.22,4.07,30.53,9.81,34.5,41.85,4-32.23,7.32-37.85,35-41.93,27.68,4.08,31,9.7,35,41.93,3.97-32.04,7.28-37.78,34.5-41.85,27.22,4.07,30.53,9.81,34.5,41.85,4-32.23,7.32-37.85,35-41.93,27.04,3.98,30.84,9.46,34.72,39.75-2.67.4-5.56.79-8.72,1.18,35.11,4.36,38.64,7.89,43,43,4-32.23,7.32-37.85,35-41.93,27.68,4.08,31,9.7,35,41.93,3.26-26.29,6.06-34.87,22-39.36v-7.29c-15.49-4.36-18.57-12.62-21.73-37.24,10.11,1.5,16.94,3.22,21.73,6.41v-15.03Zm-265.27-121.6c-26.81-3.98-30.58-9.53-34.46-39.78,26.81,3.98,30.58,9.53,34.46,39.78Zm-383.02-42.15c-25.86-3.97-29.6-9.74-33.42-39.47,25.86,3.96,29.6,9.73,33.42,39.47Zm-34.21-39.59c.07,0,.15.02.22.03-3.87,30.19-7.66,35.73-34.45,39.71,3.87-30.17,7.62-35.77,34.23-39.74Zm-34.64-43.06c-3.93,31.2-7.49,36.79-34.72,40.82,3.93-31.2,7.49-36.79,34.72-40.82Zm-35.13-41.98c-3.87,30.18-7.63,35.77-34.26,39.75-.06-.01-.13-.02-.19-.03,3.87-30.2,7.65-35.74,34.45-39.72Zm-34.26,42.03c26.93,4.03,30.47,9.7,34.39,40.77-27.2-4.03-30.78-9.61-34.71-40.72.11-.01.21-.03.32-.05Zm-.2,167.75c3.87-30.17,7.62-35.77,34.23-39.74.07,0,.15.02.22.03-3.87,30.19-7.66,35.73-34.45,39.71Zm35.02-39.62c25.86,3.96,29.6,9.73,33.42,39.47-25.86-3.97-29.6-9.74-33.42-39.47Zm-.79-2.42c-27.08-4.05-30.49-9.76-34.44-41.35,3.97-31.78,7.41-37.37,34.94-41.43,27.08,3.99,30.85,9.48,34.74,39.89-2.4.35-4.96.7-7.74,1.04,2.45.3,4.73.61,6.88.91-3.92,31.22-7.42,36.91-34.38,40.94Zm35,42c-.07,0-.15-.02-.22-.03,3.87-30.19,7.66-35.73,34.45-39.71-3.87,30.17-7.62,35.77-34.23,39.74Zm-.38-82.9c28.13,4.03,31.75,9.36,35.73,40.85-.28.04-.57.08-.85.13-27.4-4.04-30.93-9.6-34.88-40.98Zm35.15,43.16c26.81,3.98,30.58,9.53,34.46,39.78-26.81-3.98-30.58-9.53-34.46-39.78Zm.89-2.35c3.87-30.68,7.41-36.5,33.68-40.52-3.87,30.68-7.41,36.5-33.68,40.52Zm34.11,42.13c3.88-30.25,7.65-35.8,34.46-39.78-3.88,30.25-7.65,35.8-34.46,39.78Zm-.12-82.69c.12-.02.24-.04.35-.05,26.9,4.02,30.45,9.7,34.36,40.76-27.2-4.03-30.78-9.61-34.71-40.71Zm.13-2.38c3.87-30.19,7.66-35.73,34.45-39.71-3.87,30.17-7.62,35.77-34.23,39.74-.07,0-.15-.02-.22-.03Zm-.14-82.73c27.23,4.03,30.79,9.62,34.72,40.82-27.23-4.03-30.79-9.62-34.72-40.82Zm139.36.06c26.61,3.97,30.36,9.57,34.23,39.74-26.79-3.98-30.58-9.52-34.45-39.71.07-.01.15-.02.22-.03Zm34.36,41.94c-3.91,31.06-7.46,36.74-34.36,40.76-.11,0-.23-.03-.35-.05,3.93-31.1,7.51-36.68,34.71-40.71Zm-35.15-41.82c-3.82,29.73-7.56,35.5-33.42,39.47,3.82-29.74,7.56-35.51,33.42-39.47Zm-30.88,42.4c23.85,4.02,27.27,10.48,31.01,40.09-26.04-3.98-29.74-9.74-33.58-39.72.83-.13,1.69-.25,2.57-.37Zm-3.11-2.85c-1.14.17-2.33.34-3.55.51-23.89-4.03-27.28-10.5-31.03-40.24,26.91,3.98,30.7,9.49,34.58,39.73Zm.01,3.29c-3.88,30.25-7.65,35.8-34.46,39.78,3.88-30.25,7.65-35.8,34.46-39.78Zm-34.87-43.02c-3.93,31.2-7.49,36.79-34.72,40.82,3.93-31.2,7.49-36.79,34.72-40.82Zm-.13,82.8c-26.81-3.98-30.58-9.53-34.46-39.78,26.81,3.98,30.58,9.53,34.46,39.78Zm34.41,128.02c3.93-31.2,7.49-36.79,34.72-40.82-3.93,31.2-7.49,36.79-34.72,40.82Zm66.03-.58c-23.89-4.03-27.28-10.5-31.03-40.24,26.91,3.98,30.7,9.49,34.58,39.73-1.14.17-2.33.34-3.55.51Zm-31.17-42.4c-27.68-4.08-31-9.7-35-41.93-3.97,32.04-7.28,37.78-34.5,41.85-26.63-3.98-30.37-9.58-34.24-39.81,2.4-.35,4.96-.69,7.74-1.04-2.83-.35-5.43-.7-7.87-1.05,3.95-31.29,7.5-36.85,34.87-40.88,27.68,4.08,31,9.7,35,41.93,3.97-32.04,7.28-37.78,34.5-41.85,27.08,4.05,30.49,9.76,34.44,41.35-3.97,31.78-7.41,37.37-34.94,41.43Zm139.5-82.78c26.61,3.97,30.36,9.57,34.23,39.74-26.79-3.98-30.58-9.52-34.45-39.71.07-.01.15-.02.22-.03Zm-.79.12c-3.82,29.73-7.56,35.5-33.42,39.47,3.82-29.74,7.56-35.51,33.42-39.47Zm-33.98-45.38c-26.81-3.98-30.58-9.53-34.46-39.78,26.81,3.98,30.58,9.53,34.46,39.78Zm.13,2.2c-3.93,31.2-7.49,36.79-34.72,40.82,3.93-31.2,7.49-36.79,34.72-40.82Zm-35.13-41.98c-3.88,30.25-7.65,35.8-34.46,39.78,3.88-30.25,7.65-35.8,34.46-39.78Zm.13,82.8c-27.23-4.03-30.79-9.62-34.72-40.82,27.23,4.03,30.79,9.62,34.72,40.82Zm-34.57,126.83c3.82-29.74,7.56-35.51,33.42-39.47-3.82,29.73-7.56,35.5-33.42,39.47Zm-.23-83.24c3.97-31.78,7.41-37.37,34.94-41.43,27.04,3.98,30.84,9.46,34.72,39.75-2.67.4-5.56.79-8.72,1.18,2.83.35,5.43.7,7.87,1.06-3.92,31.09-7.45,36.77-34.37,40.79-27.08-4.05-30.49-9.76-34.44-41.35Zm68.67,83.39c-26.79-3.98-30.58-9.52-34.45-39.71.07-.01.15-.02.22-.03,26.61,3.97,30.36,9.57,34.23,39.74Zm-34.61,43.16c3.95-31.38,7.48-36.94,34.88-40.98.28.05.57.09.85.13-3.98,31.49-7.6,36.82-35.73,40.85Zm35.15-43.16c3.88-30.25,7.65-35.8,34.46-39.78-3.88,30.25-7.65,35.8-34.46,39.78Zm.89,2.35c26.27,4.02,29.81,9.84,33.68,40.52-26.27-4.02-29.81-9.84-33.68-40.52Zm-1.02-85.15c27.23,4.03,30.79,9.62,34.72,40.82-27.23-4.03-30.79-9.62-34.72-40.82Zm35.36,125.76c-.11,0-.23-.03-.35-.05,3.77-29.83,7.21-36.18,31.47-40.2,1.07.14,2.11.29,3.12.44-3.87,30.23-7.61,35.83-34.24,39.81Zm-.23-82.74c26.81,3.98,30.58,9.53,34.46,39.78-26.81-3.98-30.58-9.53-34.46-39.78Zm-.13-2.2c3.93-31.2,7.49-36.79,34.72-40.82-3.93,31.2-7.49,36.79-34.72,40.82Zm69.59-82.8c-3.88,30.25-7.65,35.8-34.46,39.78,3.88-30.25,7.65-35.8,34.46-39.78Zm-34.46,128c26.81,3.98,30.58,9.53,34.46,39.78-26.81-3.98-30.58-9.53-34.46-39.78Zm3.11-2.71c-1.07-.14-2.11-.29-3.12-.44,3.89-30.36,7.65-35.88,34.6-39.86-3.77,29.91-7.19,36.28-31.48,40.3Zm-3.24-83.31c27.23,4.03,30.79,9.62,34.72,40.82-27.23-4.03-30.79-9.62-34.72-40.82Zm35.13,125.8c3.88-30.25,7.65-35.8,34.46-39.78-3.88,30.25-7.65,35.8-34.46,39.78Zm174.02,41.85c3.82-29.74,7.56-35.51,33.42-39.47-3.82,29.73-7.56,35.5-33.42,39.47Zm33.99-39.56c.07-.01.15-.02.22-.03,26.61,3.97,30.36,9.57,34.23,39.74-26.79-3.98-30.58-9.52-34.45-39.71Zm34.99,39.71c3.88-30.25,7.65-35.8,34.46-39.78-3.88,30.25-7.65,35.8-34.46,39.78Z"/>
    <path class="cls-2" d="m494,446c-35.11-4.36-38.64-7.89-43-43-4,32.23-7.32,37.85-35,41.93-27.68-4.08-31-9.7-35-41.93-3.97,32.04-7.28,37.78-34.5,41.85-27.22-4.07-30.53-9.81-34.5-41.85-4,32.23-7.32,37.85-35,41.93-27.68-4.08-31-9.7-35-41.93-3.97,32.04-7.28,37.78-34.5,41.85-26.63-3.98-30.37-9.58-34.24-39.81,2.4-.35,4.96-.69,7.74-1.04-35.11-4.36-38.64-7.89-43-43-4.36,35.11-7.89,38.64-43,43,2.78.35,5.34.69,7.74,1.04-3.87,30.24-7.61,35.83-34.26,39.82-27.21-4.08-30.5-9.83-34.48-41.86-3.85,31.04-7.06,37.4-32,41.47-.65.11-1.32.21-2,.31v2.44c.68.11,1.35.21,2,.32,24.94,4.06,28.15,10.42,32,41.46,3.98-32.03,7.27-37.78,34.48-41.86,27.24,4.07,30.54,9.81,34.52,41.86,4-32.23,7.32-37.85,35-41.93,27.68,4.08,31,9.7,35,41.93,3.97-32.04,7.28-37.78,34.5-41.85,27.22,4.07,30.53,9.81,34.5,41.85,4-32.23,7.32-37.85,35-41.93,27.04,3.98,30.84,9.46,34.72,39.75-2.67.4-5.56.79-8.72,1.18,35.11,4.36,38.64,7.89,43,43,4-32.23,7.32-37.85,35-41.93,27.68,4.08,31,9.7,35,41.93,4.36-35.11,7.89-38.64,43-43-2.78-.34-5.34-.69-7.74-1.04,4.25-33.19,8.33-36.69,42.74-40.96Zm-390.73-40.89c26.81,3.98,30.58,9.53,34.46,39.78-26.81-3.98-30.58-9.53-34.46-39.78Zm35,39.78c3.88-30.25,7.65-35.8,34.46-39.78-3.88,30.25-7.65,35.8-34.46,39.78Zm174.02,41.85c3.82-29.74,7.56-35.51,33.42-39.47-3.82,29.73-7.56,35.5-33.42,39.47Zm33.99-39.56c.07-.01.15-.02.22-.03,26.61,3.97,30.36,9.57,34.23,39.74-26.79-3.98-30.58-9.52-34.45-39.71Zm34.99,39.71c3.88-30.25,7.65-35.8,34.46-39.78-3.88,30.25-7.65,35.8-34.46,39.78Zm35-39.78c26.81,3.98,30.58,9.53,34.46,39.78-26.81-3.98-30.58-9.53-34.46-39.78Z"/>
  </g>
</svg>