<?xml version="1.0" encoding="UTF-8"?>
<svg width="1193px" height="860px" viewBox="0 0 1193 860" version="1.1" xmlns="http://www.w3.org/2000/svg" xmlns:xlink="http://www.w3.org/1999/xlink">
    <title>presentation-asset</title>
    <g id="Page-1" stroke="none" stroke-width="1" fill="none" fill-rule="evenodd">
        <g id="presentation-asset">
            <rect id="Rectangle" fill="#B9FF2B" fill-rule="nonzero" x="0" y="0" width="1192.1" height="859.6"></rect>
            <g id="Group" transform="translate(0.000000, 88.800000)" fill="#5E2BFF">
                <path d="M1192.1,482.5 C1185.1,487.1 1175,489.7 1160.2,491.9 C1120,486 1115.2,477.8 1109.4,431 C1103.6,477.5 1098.8,485.9 1059.3,491.8 C1019.8,485.9 1015,477.6 1009.2,431 C1003.4,477.8 998.6,486 958.4,491.9 C918.2,486 913.4,477.8 907.6,431 C901.8,477.5 897,485.9 857.5,491.8 C818.8,486 813.4,477.9 807.8,434 C811.3,433.5 815,433 819,432.5 C768.5,426.2 763,421.1 756.8,371.6 C760.3,371.1 764.1,370.6 768.2,370.1 C764.1,369.6 760.3,369.1 756.8,368.6 C763,319.1 768.6,313.9 819,307.7 C815,307.2 811.2,306.7 807.8,306.2 C814,258 819.9,252.9 869.9,246.7 C818.9,240.4 813.8,235.2 807.5,184.3 C801.7,231.1 796.9,239.3 756.7,245.2 C716.5,239.3 711.7,231.1 705.9,184.3 C700.1,230.8 695.3,239.2 655.8,245.1 C616.7,239.3 611.6,231 605.9,185.9 C609.4,185.4 613.2,184.9 617.3,184.4 C613.3,183.9 609.5,183.4 606.1,182.9 C612.3,134.7 618.2,129.6 668.2,123.4 C617.2,117.1 612.1,111.9 605.8,61 C600,107.8 595.2,116 555,121.9 C514.8,116 510,107.8 504.2,61 C498.4,107.5 493.6,115.9 454.1,121.8 C414.6,115.9 409.8,107.6 404,61 C398.2,107.8 393.4,116 353.2,121.9 C313,116 308.2,107.8 302.4,61 C296.1,112 290.9,117.1 240,123.4 C244.1,123.9 247.9,124.4 251.4,124.9 C245.7,170 240.6,178.3 201.5,184.1 C162.4,178.3 157.3,170 151.6,124.9 C155.1,124.4 158.9,123.9 163,123.4 C113,117.2 107.1,112.1 100.9,63.9 C104.4,63.4 108.1,62.9 112.1,62.4 C61.1,56.1 56,50.9 49.7,-2.84217094e-14 C44,46.2 39.2,54.8 0.3,60.7 L0.3,64.2 C38.2,70 43.7,78.2 49.2,121.6 C16.8,116.4 5.3,110 0,81.1 L0,166.2 C5.3,137.2 16.8,129.9 49.1,125 C43.5,169.6 38.3,178 0,183.9 L0,187.4 C38.7,193.3 43.6,201.7 49.3,247.3 C43.6,292.9 38.7,301.4 0,307.2 L0,310.8 C38,316.6 43.4,324.9 49,368.5 C45.5,369 41.8,369.5 37.8,370 C88.8,376.3 93.9,381.5 100.2,432.4 C106,385.9 110.8,377.5 150.3,371.6 C189.8,377.5 194.6,385.8 200.4,432.4 C206.2,385.6 211,377.4 251.2,371.5 C291.4,377.4 296.2,385.6 302,432.4 C307.8,385.9 312.6,377.5 352.1,371.6 C391.2,377.4 396.3,385.7 402,430.8 C398.5,431.3 394.7,431.8 390.6,432.3 C441.6,438.6 446.7,443.8 453,494.7 C459,446.3 463.9,439.2 507.9,433.2 C542.7,439.1 547.5,448.5 553,491.9 C549.9,492.4 546.6,492.8 543,493.2 C594,499.5 599.1,504.7 605.4,555.6 C611.2,509.1 616,500.7 655.5,494.8 C695,500.7 699.8,509 705.6,555.6 C711.4,508.8 716.2,500.6 756.4,494.7 C796.6,500.6 801.4,508.8 807.2,555.6 C813,509.1 817.8,500.7 857.3,494.8 C896.8,500.7 901.6,509 907.4,555.6 C913.2,508.8 918,500.6 958.2,494.7 C997.5,500.5 1003,508.4 1008.6,552.4 C1004.7,553 1000.5,553.5 995.9,554.1 C1046.9,560.4 1052,565.6 1058.3,616.5 C1064.1,569.7 1068.9,561.5 1109.1,555.6 C1149.3,561.5 1154.1,569.7 1159.9,616.5 C1164.6,578.3 1168.7,565.9 1191.8,559.4 L1191.8,548.8 C1169.3,542.5 1164.8,530.5 1160.2,494.7 C1174.9,496.9 1184.8,499.4 1191.8,504 L1191.8,482.5 L1192.1,482.5 L1192.1,482.5 Z M806.9,306 C768,300.2 762.5,292.2 756.9,248.2 C795.8,254 801.3,262.1 806.9,306 Z M250.8,244.8 C213.3,239 207.8,230.7 202.3,187.5 C239.8,193.2 245.2,201.6 250.8,244.8 Z M201.1,187.3 C201.2,187.3 201.3,187.3 201.4,187.3 C195.8,231.1 190.3,239.2 151.4,245 C157,201.2 162.5,193.1 201.1,187.3 L201.1,187.3 Z M150.8,124.8 C145.1,170.1 139.9,178.2 100.4,184.1 C106.1,138.7 111.3,130.6 150.8,124.8 Z M99.8,63.8 C94.2,107.6 88.7,115.7 50.1,121.5 C50,121.5 49.9,121.5 49.8,121.5 C55.4,77.6 60.9,69.6 99.8,63.8 Z M50,124.8 C89.1,130.7 94.2,138.9 99.9,184 C60.4,178.1 55.2,170 49.5,124.9 C49.7,124.9 49.9,124.9 50,124.8 Z M49.8,368.4 C55.4,324.6 60.9,316.5 99.5,310.7 C99.6,310.7 99.7,310.7 99.8,310.7 C94.2,354.6 88.7,362.6 49.8,368.4 Z M100.6,310.9 C138.1,316.6 143.6,325 149.1,368.2 C111.6,362.4 106.2,354.1 100.6,310.9 Z M99.5,307.4 C60.2,301.5 55.2,293.2 49.5,247.4 C55.3,201.3 60.3,193.1 100.2,187.2 C139.5,193 145,201 150.6,245.1 C147.1,245.6 143.4,246.1 139.4,246.6 C143,247 146.3,247.5 149.4,247.9 C143.7,293.3 138.6,301.5 99.5,307.4 Z M150.3,368.4 C150.2,368.4 150.1,368.4 150,368.4 C155.6,324.6 161.1,316.5 200,310.7 C194.4,354.5 188.9,362.6 150.3,368.4 Z M149.7,248 C190.5,253.9 195.8,261.6 201.6,307.3 C201.2,307.4 200.8,307.4 200.4,307.5 C160.6,301.6 155.5,293.5 149.7,248 L149.7,248 Z M200.8,310.7 C239.7,316.5 245.2,324.5 250.8,368.5 C211.9,362.6 206.4,354.6 200.8,310.7 Z M202.1,307.2 C207.7,262.7 212.9,254.2 251,248.4 C245.3,293 240.2,301.4 202.1,307.2 L202.1,307.2 Z M251.6,368.4 C257.2,324.5 262.7,316.4 301.6,310.6 C296,354.6 290.5,362.6 251.6,368.4 Z M251.4,248.3 C251.6,248.3 251.7,248.2 251.9,248.2 C291,254 296.1,262.3 301.8,307.4 C262.3,301.6 257.1,293.5 251.4,248.3 Z M251.6,244.9 C257.2,201.1 262.7,193 301.6,187.2 C296,231 290.5,239.1 251.9,244.9 C251.8,244.9 251.7,244.9 251.6,244.9 L251.6,244.9 Z M251.4,124.8 C290.9,130.7 296.1,138.8 301.8,184.1 C262.3,178.2 257.1,170.1 251.4,124.8 Z M453.7,124.9 C492.3,130.7 497.8,138.8 503.4,182.6 C464.5,176.8 459,168.8 453.4,124.9 C453.5,124.9 453.6,124.9 453.7,124.9 Z M503.6,185.8 C497.9,230.9 492.8,239.1 453.7,245 C453.5,245 453.4,245 453.2,244.9 C458.9,199.7 464.1,191.6 503.6,185.8 Z M452.6,125 C447.1,168.2 441.6,176.5 404.1,182.3 C409.6,139.2 415,130.8 452.6,125 L452.6,125 Z M407.8,186.6 C442.4,192.4 447.4,201.8 452.8,244.8 C415,239 409.6,230.7 404,187.1 C405.2,186.9 406.5,186.8 407.8,186.6 L407.8,186.6 Z M403.2,182.5 C401.5,182.7 399.8,183 398,183.2 C363.3,177.3 358.4,168 352.9,124.8 C392.1,130.6 397.6,138.6 403.2,182.5 L403.2,182.5 Z M403.3,187.2 C397.7,231.1 392.2,239.2 353.3,245 C358.9,201.1 364.3,193 403.3,187.2 Z M352.6,124.8 C346.9,170.1 341.7,178.2 302.2,184.1 C307.9,138.7 313.1,130.6 352.6,124.8 Z M352.4,245 C313.5,239.2 308,231.2 302.4,187.2 C341.3,193 346.8,201.1 352.4,245 Z M402.4,430.9 C408.1,385.6 413.3,377.5 452.8,371.6 C447.1,416.9 441.9,425 402.4,430.9 Z M498.3,430 C463.6,424.1 458.7,414.8 453.2,371.6 C492.3,377.4 497.8,385.4 503.4,429.3 C501.8,429.5 500,429.8 498.3,430 L498.3,430 Z M453,368.5 C412.8,362.6 408,354.4 402.2,307.6 C396.4,354.1 391.6,362.5 352.1,368.4 C313.4,362.6 308,354.5 302.4,310.6 C305.9,310.1 309.6,309.6 313.6,309.1 C309.5,308.6 305.7,308.1 302.2,307.6 C307.9,262.2 313.1,254.1 352.8,248.2 C393,254.1 397.8,262.3 403.6,309.1 C409.4,262.6 414.2,254.2 453.7,248.3 C493,254.2 498,262.5 503.7,308.3 C498,354.5 493,362.6 453,368.5 Z M655.6,248.3 C694.2,254.1 699.7,262.2 705.3,306 C666.4,300.2 660.9,292.2 655.3,248.3 C655.4,248.3 655.5,248.3 655.6,248.3 Z M654.4,248.5 C648.9,291.7 643.4,300 605.9,305.8 C611.4,262.6 616.9,254.2 654.4,248.5 L654.4,248.5 Z M605.1,182.6 C566.2,176.8 560.7,168.8 555.1,124.8 C594,130.6 599.4,138.6 605.1,182.6 Z M605.3,185.8 C599.6,231.1 594.4,239.2 554.9,245.1 C560.6,199.7 565.7,191.6 605.3,185.8 L605.3,185.8 Z M554.3,124.8 C548.7,168.7 543.2,176.8 504.3,182.6 C509.9,138.6 515.3,130.6 554.3,124.8 Z M554.5,245 C515,239.1 509.8,231 504.1,185.7 C543.6,191.6 548.7,199.7 554.5,245 L554.5,245 Z M504.3,429.2 C509.8,386 515.3,377.6 552.8,371.9 C547.2,415 541.8,423.4 504.3,429.2 Z M503.9,308.3 C509.7,262.2 514.7,254 554.6,248.1 C593.9,253.9 599.4,261.8 605,305.8 C601.1,306.4 596.9,306.9 592.3,307.5 C596.4,308 600.2,308.5 603.7,309 C598,354.1 592.9,362.4 553.8,368.2 C514.6,362.5 509.7,354.2 503.9,308.3 Z M603.6,429.4 C564.7,423.6 559.2,415.6 553.6,371.7 C553.7,371.7 553.8,371.7 553.9,371.7 C592.6,377.5 598,385.6 603.6,429.4 Z M553.4,492.1 C559.1,446.5 564.3,438.5 604,432.6 C604.4,432.7 604.8,432.7 605.2,432.8 C599.5,478.5 594.2,486.2 553.4,492.1 Z M604.4,429.4 C610,385.5 615.5,377.4 654.4,371.6 C648.8,415.6 643.3,423.6 604.4,429.4 Z M605.7,432.8 C643.8,438.6 649,447.1 654.6,491.6 C616.5,485.8 611.3,477.4 605.7,432.8 Z M604.2,309.2 C643.7,315.1 648.9,323.2 654.6,368.5 C615.1,362.6 609.9,354.5 604.2,309.2 Z M655.6,491.8 C655.4,491.8 655.3,491.8 655.1,491.7 C660.6,448.4 665.6,439.2 700.8,433.3 C702.4,433.5 703.9,433.7 705.3,433.9 C699.7,477.9 694.2,486 655.6,491.8 Z M655.2,371.6 C694.1,377.4 699.6,385.4 705.2,429.4 C666.3,423.6 660.9,415.6 655.2,371.6 Z M655,368.4 C660.7,323.1 665.9,315 705.4,309.1 C699.8,354.5 694.6,362.6 655,368.4 Z M756.1,248.2 C750.5,292.1 745,300.2 706.1,306 C711.7,262.1 717.2,254 756.1,248.2 L756.1,248.2 Z M706.1,434.1 C745,439.9 750.5,447.9 756.1,491.9 C717.2,486.1 711.7,478 706.1,434.1 Z M710.6,430.1 C709,429.9 707.5,429.7 706.1,429.5 C711.7,385.4 717.2,377.4 756.3,371.6 C750.8,415.1 745.8,424.3 710.6,430.1 L710.6,430.1 Z M705.9,309.2 C745.4,315.1 750.6,323.2 756.3,368.5 C716.7,362.6 711.6,354.5 705.9,309.2 Z M756.9,491.8 C762.5,447.9 768,439.8 806.9,434 C801.3,478 795.8,486.1 756.9,491.8 Z M1009.5,552.6 C1015,509.4 1020.5,501 1058,495.3 C1052.5,538.5 1047.1,546.8 1009.5,552.6 Z M1058.9,495.2 C1059,495.2 1059.1,495.2 1059.2,495.2 C1097.8,501 1103.3,509.1 1108.9,552.9 C1070,547 1064.5,539 1058.9,495.2 L1058.9,495.2 Z M1109.7,552.8 C1115.3,508.9 1120.8,500.8 1159.7,495 C1154.1,539 1148.6,547 1109.7,552.8 Z" id="Shape"></path>
                <path d="M717.3,558.8 C666.3,552.5 661.2,547.3 654.9,496.4 C649.1,543.2 644.3,551.4 604.1,557.3 C563.9,551.4 559.1,543.2 553.3,496.4 C547.5,542.9 542.7,551.3 503.2,557.2 C463.7,551.3 458.9,543 453.1,496.4 C447.3,543.2 442.5,551.4 402.3,557.3 C362.1,551.4 357.3,543.2 351.5,496.4 C345.7,542.9 340.9,551.3 301.4,557.2 C262.7,551.4 257.3,543.3 251.7,499.4 C255.2,498.9 258.9,498.4 262.9,497.9 C211.9,491.6 206.8,486.4 200.5,435.5 C194.2,486.5 189,491.6 138.1,497.9 C142.1,498.4 145.9,498.9 149.3,499.4 C143.7,543.3 138.3,551.4 99.6,557.2 C60.1,551.3 55.3,542.9 49.5,496.4 C43.9,541.5 39.2,550.7 3,556.6 C2,556.7 1,556.9 -4.97379915e-14,557 L-4.97379915e-14,560.5 C1,560.7 2,560.8 2.9,561 C39.1,566.9 43.8,576.1 49.4,621.2 C55.2,574.7 60,566.3 99.5,560.4 C139.1,566.3 143.8,574.6 149.6,621.2 C155.4,574.4 160.2,566.2 200.4,560.3 C240.6,566.2 245.4,574.4 251.2,621.2 C257,574.7 261.8,566.3 301.3,560.4 C340.8,566.3 345.6,574.6 351.4,621.2 C357.2,574.4 362,566.2 402.2,560.3 C441.5,566.1 447,574 452.6,618 C448.7,618.6 444.5,619.1 439.9,619.7 C490.9,626 496,631.2 502.3,682.1 C508.1,635.3 512.9,627.1 553.1,621.2 C593.3,627.1 598.1,635.3 603.9,682.1 C610.2,631.1 615.4,626 666.3,619.7 C662.3,619.2 658.5,618.7 655.1,618.2 C661.4,570.1 667.3,565 717.3,558.8 Z M149.9,499.4 C188.8,505.2 194.3,513.2 199.9,557.2 C161.1,551.4 155.6,543.3 149.9,499.4 Z M200.8,557.2 C206.4,513.3 211.9,505.2 250.8,499.4 C245.2,543.3 239.7,551.4 200.8,557.2 Z M453.4,617.9 C458.9,574.7 464.4,566.3 501.9,560.6 C496.4,603.8 491,612.2 453.4,617.9 Z M502.8,560.5 C502.9,560.5 503,560.5 503.1,560.5 C541.7,566.3 547.2,574.4 552.8,618.2 C513.9,612.4 508.4,604.3 502.8,560.5 Z M553.6,618.2 C559.2,574.3 564.7,566.2 603.6,560.4 C598,604.3 592.5,612.4 553.6,618.2 Z M604.4,560.4 C643.3,566.2 648.8,574.2 654.4,618.2 C615.5,612.4 610,604.3 604.4,560.4 Z" id="Shape"></path>
            </g>
        </g>
    </g>
</svg>