<?xml version="1.0" encoding="UTF-8"?>
<svg width="434px" height="434px" viewBox="0 0 434 434" version="1.1" xmlns="http://www.w3.org/2000/svg" xmlns:xlink="http://www.w3.org/1999/xlink">
    <title>round-title</title>
    <g id="Page-1" stroke="none" stroke-width="1" fill="none" fill-rule="evenodd">
        <g id="round-title" transform="translate(0.504102, 0.507544)" fill-rule="nonzero">
            <g id="Group" fill="#FFFFFF">
                <g id="F" transform="translate(72.819770, 78.962865) rotate(-46.310000) translate(-72.819770, -78.962865) translate(63.819770, 61.462865)" font-family="Helvetica" font-size="28.87" font-weight="normal">
                    <text>
                        <tspan x="3.28784309e-16" y="28">F</tspan>
                    </text>
                </g>
                <g id="e" transform="translate(91.501568, 61.783923) rotate(-39.210000) translate(-91.501568, -61.783923) translate(83.001568, 44.283923)" font-family="Helvetica" font-size="28.87" font-weight="normal">
                    <text>
                        <tspan x="0" y="28">e</tspan>
                    </text>
                </g>
                <g id="s" transform="translate(110.152800, 48.390310) rotate(-32.420000) translate(-110.152800, -48.390310) translate(102.652800, 30.890310)" font-family="Helvetica" font-size="28.87" font-weight="normal">
                    <text>
                        <tspan x="4.36445585e-16" y="28">s</tspan>
                    </text>
                </g>
                <g id="t" transform="translate(125.922295, 39.389890) rotate(-27.210000) translate(-125.922295, -39.389890) translate(121.422295, 21.889890)" font-family="Helvetica" font-size="28.87" font-weight="normal">
                    <text>
                        <tspan x="-3.65565868e-16" y="28">t</tspan>
                    </text>
                </g>
                <g id="i" transform="translate(136.500167, 34.359878) rotate(-23.840000) translate(-136.500167, -34.359878) translate(133.000167, 16.859878)" font-family="Helvetica" font-size="28.87" font-weight="normal">
                    <text>
                        <tspan x="-1.72320383e-16" y="28">i</tspan>
                    </text>
                </g>
                <g id="v" transform="translate(151.617985, 28.447388) rotate(-19.120000) translate(-151.617985, -28.447388) translate(144.117985, 10.947388)" font-family="Helvetica" font-size="28.87" font-weight="normal">
                    <text>
                        <tspan x="-3.92277899e-16" y="28">v</tspan>
                    </text>
                </g>
                <g id="a" transform="translate(174.342617, 22.091961) rotate(-12.440000) translate(-174.342617, -22.091961) translate(165.842617, 4.591961)" font-family="Helvetica" font-size="28.87" font-weight="normal">
                    <text>
                        <tspan x="4.90645529e-16" y="28">a</tspan>
                    </text>
                </g>
                <g id="l" transform="translate(190.763421, 19.273877) rotate(-7.460000) translate(-190.763421, -19.273877) translate(187.263421, 1.773877)" font-family="Helvetica" font-size="28.87" font-weight="normal">
                    <text>
                        <tspan x="-1.43087582e-16" y="28">l</tspan>
                    </text>
                </g>
                <g id="d" transform="translate(218.039307, 17.635657) rotate(0.930000) translate(-218.039307, -17.635657) translate(209.539307, 0.135657)" font-family="Helvetica" font-size="28.87" font-weight="normal">
                    <text>
                        <tspan x="4.15357852e-16" y="28">d</tspan>
                    </text>
                </g>
                <g id="e_00000003063982265125479230000005360821876820184462_" transform="translate(243.072389, 19.398914) rotate(7.380000) translate(-243.072389, -19.398914) translate(234.572389, 1.898914)" font-family="Helvetica" font-size="28.87" font-weight="normal">
                    <text id="e">
                        <tspan x="0" y="28">e</tspan>
                    </text>
                </g>
                <g id="s_00000072959449162445664510000008663159142340300940_" transform="translate(265.603698, 23.764982) rotate(14.220000) translate(-265.603698, -23.764982) translate(258.103698, 6.264982)" font-family="Helvetica" font-size="28.87" font-weight="normal">
                    <text id="s">
                        <tspan x="-1.93577522e-16" y="28">s</tspan>
                    </text>
                </g>
                <g id="a_00000094586368382349174590000003464460699314804882_" transform="translate(297.355344, 34.798174) rotate(23.770000) translate(-297.355344, -34.798174) translate(288.855344, 17.298174)" font-family="Helvetica" font-size="28.87" font-weight="normal">
                    <text id="a">
                        <tspan x="5.57794913e-16" y="28">a</tspan>
                    </text>
                </g>
                <g id="r" transform="translate(314.303041, 43.346575) rotate(29.440000) translate(-314.303041, -43.346575) translate(309.303041, 25.846575)" font-family="Helvetica" font-size="28.87" font-weight="normal">
                    <text>
                        <tspan x="-4.23814629e-16" y="28">r</tspan>
                    </text>
                </g>
                <g id="t_00000099664577023774049490000010209708002118901655_" transform="translate(326.249910, 50.686351) rotate(33.480000) translate(-326.249910, -50.686351) translate(321.749910, 33.186351)" font-family="Helvetica" font-size="28.87" font-weight="normal">
                    <text id="t">
                        <tspan x="2.53527126e-16" y="28">t</tspan>
                    </text>
                </g>
                <g id="s_00000000183153970929166140000001487646150286336447_" transform="translate(340.748089, 61.294176) rotate(38.680000) translate(-340.748089, -61.294176) translate(333.248089, 43.794176)" font-family="Helvetica" font-size="28.87" font-weight="normal">
                    <text id="s">
                        <tspan x="2.88113175e-16" y="28">s</tspan>
                    </text>
                </g>
                <g id="n" transform="translate(365.109937, 84.452506) rotate(48.220000) translate(-365.109937, -84.452506) translate(356.609937, 66.952506)" font-family="Helvetica" font-size="28.87" font-weight="normal">
                    <text>
                        <tspan x="-5.70561393e-16" y="28">n</tspan>
                    </text>
                </g>
                <g id="u" transform="translate(380.577985, 104.240777) rotate(55.430000) translate(-380.577985, -104.240777) translate(372.077985, 86.740777)" font-family="Helvetica" font-size="28.87" font-weight="normal">
                    <text>
                        <tspan x="4.36418479e-16" y="28">u</tspan>
                    </text>
                </g>
                <g id="m" transform="translate(396.182144, 131.393396) rotate(64.600000) translate(-396.182144, -131.393396) translate(383.682144, 113.893396)" font-family="Helvetica" font-size="28.87" font-weight="normal">
                    <text>
                        <tspan x="5.57822018e-17" y="28">m</tspan>
                    </text>
                </g>
                <g id="é" transform="translate(407.543522, 161.482957) rotate(73.720000) translate(-407.543522, -161.482957) translate(399.043522, 143.982957)" font-family="Helvetica" font-size="28.87" font-weight="normal">
                    <text>
                        <tspan x="-6.7394007e-16" y="28">é</tspan>
                    </text>
                </g>
                <g id="r_00000034072587578306390340000012002462558045549221_" transform="translate(411.926825, 180.106928) rotate(79.430000) translate(-411.926825, -180.106928) translate(406.926825, 162.606928)" font-family="Helvetica" font-size="28.87" font-weight="normal">
                    <text id="r">
                        <tspan x="-7.67987833e-17" y="28">r</tspan>
                    </text>
                </g>
                <g id="i_00000172402203417906467180000002443964547138937258_" transform="translate(413.806940, 192.471510) rotate(83.030000) translate(-413.806940, -192.471510) translate(410.306940, 174.971510)" font-family="Helvetica" font-size="28.87" font-weight="normal">
                    <text id="i">
                        <tspan x="6.25991229e-17" y="28">i</tspan>
                    </text>
                </g>
                <g id="q" transform="translate(415.153849, 210.211796) rotate(88.100000) translate(-415.153849, -210.211796) translate(406.653849, 192.711796)" font-family="Helvetica" font-size="28.87" font-weight="normal">
                    <text>
                        <tspan x="-3.04549002e-16" y="28">q</tspan>
                    </text>
                </g>
                <g id="u_00000097469032833420931350000000738511681966264491_" transform="translate(414.354700, 235.471359) rotate(95.260000) translate(-414.354700, -235.471359) translate(405.854700, 217.971359)" font-family="Helvetica" font-size="28.87" font-weight="normal">
                    <text id="u">
                        <tspan x="-7.24260604e-16" y="28">u</tspan>
                    </text>
                </g>
                <g id="e_00000009570530214080156990000007393592827956739501_" transform="translate(410.410061, 260.261115) rotate(102.420000) translate(-410.410061, -260.261115) translate(401.910061, 242.761115)" font-family="Helvetica" font-size="28.87" font-weight="normal">
                    <text id="e">
                        <tspan x="4.9664591e-16" y="28">e</tspan>
                    </text>
                </g>
                <g id="s_00000049185691818228962160000016553796656749250733_" transform="translate(404.078833, 282.344699) rotate(109.280000) translate(-404.078833, -282.344699) translate(396.578833, 264.844699)" font-family="Helvetica" font-size="28.87" font-weight="normal">
                    <text id="s">
                        <tspan x="1.16768574e-16" y="28">s</tspan>
                    </text>
                </g>
                <g id="F_00000096740139788374575060000011723801322095436983_" transform="translate(373.164720, 338.819870) rotate(127.940000) translate(-373.164720, -338.819870) translate(364.164720, 321.319870)" font-family="Helvetica" font-size="28.87" font-weight="normal">
                    <text id="F">
                        <tspan x="-6.27210957e-16" y="28">F</tspan>
                    </text>
                </g>
                <g id="r_00000039845755589747610740000016850709603461861817_" transform="translate(359.283109, 354.765409) rotate(133.990000) translate(-359.283109, -354.765409) translate(354.283109, 337.265409)" font-family="Helvetica" font-size="28.87" font-weight="normal">
                    <text id="r">
                        <tspan x="-1.53143557e-16" y="28">r</tspan>
                    </text>
                </g>
                <g id="i_00000082333191063397676930000010508535278146321545_" transform="translate(350.305435, 363.481683) rotate(137.550000) translate(-350.305435, -363.481683) translate(346.805435, 345.981683)" font-family="Helvetica" font-size="28.87" font-weight="normal">
                    <text id="i">
                        <tspan x="8.60856525e-17" y="28">i</tspan>
                    </text>
                </g>
                <g id="b" transform="translate(336.629338, 374.872779) rotate(142.630000) translate(-336.629338, -374.872779) translate(328.129338, 357.372779)" font-family="Helvetica" font-size="28.87" font-weight="normal">
                    <text>
                        <tspan x="-2.62647976e-16" y="28">b</tspan>
                    </text>
                </g>
                <g id="o" transform="translate(315.543767, 388.883477) rotate(149.940000) translate(-315.543767, -388.883477) translate(307.043767, 371.383477)" font-family="Helvetica" font-size="28.87" font-weight="normal">
                    <text>
                        <tspan x="-5.07081356e-16" y="28">o</tspan>
                    </text>
                </g>
                <g id="u_00000111870781467783494860000003174929073218798981_" transform="translate(292.730807, 400.141929) rotate(157.250000) translate(-292.730807, -400.141929) translate(284.230807, 382.641929)" font-family="Helvetica" font-size="28.87" font-weight="normal">
                    <text id="u">
                        <tspan x="9.06393016e-17" y="28">u</tspan>
                    </text>
                </g>
                <g id="r_00000084521976698736941650000007346111712375648386_" transform="translate(274.151777, 406.799995) rotate(163.060000) translate(-274.151777, -406.799995) translate(269.151777, 389.299995)" font-family="Helvetica" font-size="28.87" font-weight="normal">
                    <text id="r">
                        <tspan x="-3.10759448e-16" y="28">r</tspan>
                    </text>
                </g>
                <g id="g" transform="translate(254.497351, 411.673624) rotate(168.820000) translate(-254.497351, -411.673624) translate(245.997351, 394.173624)" font-family="Helvetica" font-size="28.87" font-weight="normal">
                    <text>
                        <tspan x="-5.6877246e-16" y="28">g</tspan>
                    </text>
                </g>
                <g id="_x2C_" transform="translate(236.076158, 414.346674) rotate(174.180000) translate(-236.076158, -414.346674) translate(231.576158, 396.846674)" font-family="Helvetica" font-size="28.87" font-weight="normal">
                    <text id=",">
                        <tspan x="2.63894809e-16" y="28">,</tspan>
                    </text>
                </g>
                <g id="_x31_" transform="translate(208.217239, 415.142935) rotate(-178.080000) translate(-208.217239, -415.142935) translate(199.717239, 397.642935)" font-family="Helvetica" font-size="28.87" font-weight="normal">
                    <text id="1">
                        <tspan x="7.05869824e-16" y="28">1</tspan>
                    </text>
                </g>
                <g id="_x33_" transform="translate(185.038131, 412.837708) rotate(-171.080000) translate(-185.038131, -412.837708) translate(176.538131, 395.337708)" font-family="Helvetica" font-size="28.87" font-weight="normal">
                    <text id="3">
                        <tspan x="4.98516159e-16" y="28">3</tspan>
                    </text>
                </g>
                <g id="_x2D_" transform="translate(156.311716, 406.057722) rotate(-162.500000) translate(-156.311716, -406.057722) translate(151.311716, 388.557722)" font-family="Helvetica" font-size="28.87" font-weight="normal">
                    <text id="-">
                        <tspan x="2.01282133e-16" y="28">-</tspan>
                    </text>
                </g>
                <g id="_x31__00000053508350268303368710000008895524410123990934_" transform="translate(128.859074, 395.033830) rotate(-154.250000) translate(-128.859074, -395.033830) translate(120.359074, 377.533830)" font-family="Helvetica" font-size="28.87" font-weight="normal">
                    <text id="1">
                        <tspan x="-5.70778234e-16" y="28">1</tspan>
                    </text>
                </g>
                <g id="_x35_" transform="translate(108.561752, 383.529087) rotate(-147.210000) translate(-108.561752, -383.529087) translate(100.061752, 366.029087)" font-family="Helvetica" font-size="28.87" font-weight="normal">
                    <text id="5">
                        <tspan x="8.23261815e-16" y="28">5</tspan>
                    </text>
                </g>
                <g id="o_00000119078076071152516900000008720688187729139344_" transform="translate(81.113078, 362.150394) rotate(-137.210000) translate(-81.113078, -362.150394) translate(72.613078, 344.650394)" font-family="Helvetica" font-size="28.87" font-weight="normal">
                    <text id="o">
                        <tspan x="3.09864981e-16" y="28">o</tspan>
                    </text>
                </g>
                <g id="c" transform="translate(64.601796, 344.845469) rotate(-130.240000) translate(-64.601796, -344.845469) translate(57.101796, 327.345469)" font-family="Helvetica" font-size="28.87" font-weight="normal">
                    <text>
                        <tspan x="6.41847686e-17" y="28">c</tspan>
                    </text>
                </g>
                <g id="t_00000140736761226731923510000008175096320864134075_" transform="translate(53.304900, 330.170470) rotate(-125.010000) translate(-53.304900, -330.170470) translate(48.804900, 312.670470)" font-family="Helvetica" font-size="28.87" font-weight="normal">
                    <text id="t">
                        <tspan x="1.98951099e-16" y="28">t</tspan>
                    </text>
                </g>
                <g id="o_00000070840390380235140120000010335167593503936641_" transform="translate(42.944946, 313.664295) rotate(-119.420000) translate(-42.944946, -313.664295) translate(34.444946, 296.164295)" font-family="Helvetica" font-size="28.87" font-weight="normal">
                    <text id="o">
                        <tspan x="6.04280081e-16" y="28">o</tspan>
                    </text>
                </g>
                <g id="b_00000034075323720476282800000002916065175399074699_" transform="translate(31.942242, 290.707813) rotate(-112.070000) translate(-31.942242, -290.707813) translate(23.442242, 273.207813)" font-family="Helvetica" font-size="28.87" font-weight="normal">
                    <text id="b">
                        <tspan x="2.70847255e-17" y="28">b</tspan>
                    </text>
                </g>
                <g id="r_00000044885792237886912890000018235180537714093228_" transform="translate(25.443348, 271.859703) rotate(-106.230000) translate(-25.443348, -271.859703) translate(20.443348, 254.359703)" font-family="Helvetica" font-size="28.87" font-weight="normal">
                    <text id="r">
                        <tspan x="1.97324795e-17" y="28">r</tspan>
                    </text>
                </g>
                <g id="e_00000103239173409635255040000014760576386627062667_" transform="translate(20.902950, 252.629722) rotate(-100.670000) translate(-20.902950, -252.629722) translate(12.402950, 235.129722)" font-family="Helvetica" font-size="28.87" font-weight="normal">
                    <text id="e">
                        <tspan x="-7.02779848e-16" y="28">e</tspan>
                    </text>
                </g>
                <g id="_x32_" transform="translate(17.635657, 218.964006) rotate(-90.930000) translate(-17.635657, -218.964006) translate(9.135657, 201.464006)" font-family="Helvetica" font-size="28.87" font-weight="normal">
                    <text id="2">
                        <tspan x="1.53414607e-16" y="28">2</tspan>
                    </text>
                </g>
                <g id="_x30_" transform="translate(18.914657, 193.670723) rotate(-83.580000) translate(-18.914657, -193.670723) translate(10.414657, 176.170723)" font-family="Helvetica" font-size="28.87" font-weight="normal">
                    <text id="0">
                        <tspan x="4.15845743e-16" y="28">0</tspan>
                    </text>
                </g>
                <g id="_x32__00000091009641849303294370000009541889229869946254_" transform="translate(23.436224, 168.505990) rotate(-76.220000) translate(-23.436224, -168.505990) translate(14.936224, 151.005990)" font-family="Helvetica" font-size="28.87" font-weight="normal">
                    <text id="2">
                        <tspan x="-2.50504912e-16" y="28">2</tspan>
                    </text>
                </g>
                <g id="_x33__00000170274517333594788970000009487056306877025955_" transform="translate(31.104433, 144.339023) rotate(-68.820000) translate(-31.104433, -144.339023) translate(22.604433, 126.839023)" font-family="Helvetica" font-size="28.87" font-weight="normal">
                    <text id="3">
                        <tspan x="-4.49618641e-16" y="28">3</tspan>
                    </text>
                </g>
                <path d="M393.400007,299.2 C389.800007,307.3 387.000007,312.1 382.300007,319.6" id="Path"></path>
                <path d="M48.0000072,117.8 C52.7000072,109.9 54.7000072,106.4 60.4000072,99.3000002" id="Path_00000137830448980407608670000012102936969027325321_"></path>
            </g>
            <circle id="Oval" fill="#B8FF2B" cx="216.500007" cy="216.5" r="158"></circle>
        </g>
    </g>
</svg>